<svg version="1.1" xmlns="http://www.w3.org/2000/svg" viewBox="0 0 808.6897575080241 538.2437777895661" width="1617.3795150160481" height="1076.4875555791323">
  <!-- svg-source:excalidraw -->
  
  <defs>
    <style class="style-fonts">
      @font-face {
        font-family: "Virgil";
        src: url("https://excalidraw.com/Virgil.woff2");
      }
      @font-face {
        font-family: "Cascadia";
        src: url("https://excalidraw.com/Cascadia.woff2");
      }
      @font-face {
        font-family: "Assistant";
        src: url("https://app.excalidraw.com//dist/excalidraw-assets/Assistant-Regular.woff2");
      }
    </style>
    
  </defs>
  <rect x="0" y="0" width="808.6897575080241" height="538.2437777895661" fill="#ffffff"></rect><g stroke-linecap="round" transform="translate(101.55385079707753 113.09889478572268) rotate(0 37.80292808809827 43.30153581000354)"><path d="M13.56 10.46 C13.56 10.46, 13.56 10.46, 13.56 10.46 M13.56 10.46 C13.56 10.46, 13.56 10.46, 13.56 10.46 M2.14 29.69 C8.61 24.69, 11.65 17.34, 23.79 4.78 M2.14 29.69 C9.05 20.94, 17.13 13.88, 23.79 4.78 M3.19 34.58 C12.32 21.58, 26.95 9.84, 33.37 -0.14 M3.19 34.58 C9.26 27.9, 15.4 20.33, 33.37 -0.14 M2.93 40.97 C13.56 28.91, 24.71 14.83, 37.7 0.97 M2.93 40.97 C13.18 27.54, 23.56 16.4, 37.7 0.97 M2.67 47.37 C15.83 34.93, 28.92 18.83, 42.03 2.09 M2.67 47.37 C15.99 31.11, 28.68 17.24, 42.03 2.09 M2.41 53.77 C13.59 39.78, 26.71 22.76, 46.36 3.2 M2.41 53.77 C13.03 40.96, 23.68 27.92, 46.36 3.2 M3.46 58.66 C17.87 42.74, 32.8 25.38, 50.7 4.32 M3.46 58.66 C18.05 42.61, 32.68 26.76, 50.7 4.32 M5.82 62.04 C18.04 46.96, 30.5 30.03, 55.03 5.43 M5.82 62.04 C25.6 40.68, 44.38 18.63, 55.03 5.43 M7.53 66.17 C24.02 48, 40.18 28.21, 58.05 8.06 M7.53 66.17 C23.98 48.05, 41.47 28.05, 58.05 8.06 M9.24 70.3 C20.62 56.7, 31.89 44.63, 61.06 10.68 M9.24 70.3 C19.33 56.95, 30.83 45.79, 61.06 10.68 M11.6 73.68 C33.11 48.76, 52.83 25.41, 64.08 13.31 M11.6 73.68 C24.34 57.91, 38.38 44.23, 64.08 13.31 M13.96 77.06 C27.22 60.81, 40.97 48.83, 66.45 16.69 M13.96 77.06 C29.63 57.11, 46.9 38.11, 66.45 16.69 M17.64 78.93 C29.05 63.21, 40.75 50.86, 69.46 19.31 M17.64 78.93 C30.19 63.65, 43.83 48.17, 69.46 19.31 M21.31 80.8 C33.63 66.09, 43.52 55.89, 71.83 22.69 M21.31 80.8 C40.64 58.63, 59.12 37.57, 71.83 22.69 M24.99 82.67 C34.74 67.11, 46.62 57.02, 72.88 27.58 M24.99 82.67 C40.69 63.47, 55.88 45.66, 72.88 27.58 M28.66 84.54 C47.22 66.18, 65.07 43.05, 73.93 32.47 M28.66 84.54 C42.89 69.46, 56.05 52.81, 73.93 32.47 M32.34 86.41 C45.19 74.23, 55.69 59.98, 74.98 37.35 M32.34 86.41 C41.41 76.34, 50.59 65.1, 74.98 37.35 M38.64 85.26 C51.74 71.39, 67.34 52.91, 76.03 42.24 M38.64 85.26 C50.05 71.6, 62.15 57.63, 76.03 42.24 M44.93 84.11 C51.67 73.52, 62.11 66.04, 75.11 49.39 M44.93 84.11 C53.48 74.85, 59.38 66.97, 75.11 49.39 M51.23 82.96 C60.35 74.15, 65.62 66.12, 72.88 58.06 M51.23 82.96 C59.74 74.87, 66.9 65.35, 72.88 58.06 M12.21 75.89 C12.21 75.89, 12.21 75.89, 12.21 75.89 M12.21 75.89 C12.21 75.89, 12.21 75.89, 12.21 75.89 M28.42 84.68 C20.91 79.07, 11.37 70.71, 7.28 66.31 M28.42 84.68 C21.52 77.36, 14.44 72.63, 7.28 66.31 M34.81 84.94 C27.77 77.28, 18.7 67.67, 2.36 56.73 M34.81 84.94 C24.49 75.86, 13.08 65.04, 2.36 56.73 M40.46 84.55 C27.44 74.1, 14.4 63.87, 1.97 51.09 M40.46 84.55 C29.17 75.94, 20.11 67.24, 1.97 51.09 M45.35 83.49 C36.8 73.51, 28.36 66.52, 2.33 46.1 M45.35 83.49 C31.08 72.68, 18.24 60.23, 2.33 46.1 M50.99 83.1 C31.84 65.64, 15.91 51.1, 1.93 40.46 M50.99 83.1 C40.1 75.12, 31.54 65.69, 1.93 40.46 M55.12 81.39 C34.81 64.62, 16.01 48.96, 2.29 35.47 M55.12 81.39 C44.25 71.14, 32.47 61.4, 2.29 35.47 M57.75 78.37 C36.16 58.87, 15.93 41.37, 2.65 30.48 M57.75 78.37 C36.81 62.01, 17.66 44.47, 2.65 30.48 M61.13 76.01 C44.06 61.03, 26.67 45.91, 4.52 26.81 M61.13 76.01 C48.23 64.25, 36.03 53.02, 4.52 26.81 M63.75 72.99 C44.74 54.34, 25.51 36.41, 6.39 23.13 M63.75 72.99 C45.92 58.23, 30.31 42.71, 6.39 23.13 M66.37 69.97 C46.36 51.8, 22.98 33.69, 8.26 19.46 M66.37 69.97 C53.06 59.41, 41.92 49.03, 8.26 19.46 M69.75 67.61 C51.09 53.19, 34.3 36.06, 10.13 15.78 M69.75 67.61 C49.98 49.41, 30.4 32.12, 10.13 15.78 M70.87 63.28 C55.81 52.54, 42.62 38.13, 12.76 12.76 M70.87 63.28 C52.4 48.01, 34.26 30.64, 12.76 12.76 M71.98 58.95 C51.35 39.62, 32.63 22.29, 14.62 9.09 M71.98 58.95 C50.84 39.77, 29.07 20.59, 14.62 9.09 M73.1 54.62 C51.67 36.33, 32.47 19.58, 18.76 7.38 M73.1 54.62 C52.1 37.13, 32.55 19.33, 18.76 7.38 M74.21 50.29 C56.19 36.13, 42.26 21.31, 22.14 5.02 M74.21 50.29 C58.3 37.62, 43.9 24.63, 22.14 5.02 M75.33 45.96 C57.68 33.38, 41.14 18.05, 26.27 3.31 M75.33 45.96 C64.7 35.88, 52.71 27.23, 26.27 3.31 M75.69 40.97 C60.23 27.74, 48.41 16.26, 29.65 0.95 M75.69 40.97 C59.77 28.33, 44.4 14.85, 29.65 0.95 M73.78 34.01 C61.59 26.23, 53.36 14.95, 33.78 -0.76 M73.78 34.01 C62.96 24.57, 53.23 15.05, 33.78 -0.76 M72.63 27.71 C64.48 20.27, 58.89 17.45, 42.45 1.47 M72.63 27.71 C63.25 19.34, 54.2 9.96, 42.45 1.47 M70.73 20.76 C63.94 17.77, 58.65 10.69, 51.11 3.7 M70.73 20.76 C64.13 16.36, 60.11 11.37, 51.11 3.7" stroke="#a5d8ff" stroke-width="0.5" fill="none"></path><path d="M33.42 -0.44 C39.67 -1.68, 47.83 1.59, 54.02 4.96 C60.21 8.32, 66.88 13.2, 70.55 19.76 C74.22 26.32, 76.13 36.45, 76.04 44.32 C75.94 52.18, 73.73 60.54, 69.96 66.94 C66.19 73.33, 59.9 79.48, 53.42 82.69 C46.93 85.9, 37.96 87.37, 31.03 86.18 C24.1 85, 16.72 80.72, 11.85 75.57 C6.97 70.43, 3.38 62.99, 1.79 55.32 C0.19 47.65, 0.29 37.04, 2.26 29.55 C4.23 22.07, 8.12 15.36, 13.61 10.4 C19.1 5.43, 31.52 1.29, 35.21 -0.21 C38.9 -1.72, 35.67 0.52, 35.75 1.39 M46.62 0.9 C52.9 1.78, 59.27 7.24, 64.19 13.01 C69.11 18.78, 74.84 27.61, 76.13 35.5 C77.41 43.39, 74.43 53.09, 71.88 60.36 C69.33 67.63, 66.18 74.83, 60.82 79.13 C55.47 83.42, 46.69 85.76, 39.74 86.12 C32.79 86.48, 25.1 85.17, 19.11 81.27 C13.12 77.37, 6.89 69.75, 3.79 62.74 C0.69 55.73, -0.21 46.85, 0.52 39.21 C1.25 31.57, 3.77 23.26, 8.17 16.9 C12.57 10.54, 20.32 3.8, 26.92 1.05 C33.52 -1.69, 44.71 0.05, 47.77 0.46 C50.83 0.87, 45.84 2.57, 45.28 3.51" stroke="#1e1e1e" stroke-width="1" fill="none"></path></g><g stroke-linecap="round" transform="translate(101.55385079707753 334.41785559240725) rotate(0 46.73816563619425 50.174795462384964)"><path d="M7.09 23.39 C7.09 23.39, 7.09 23.39, 7.09 23.39 M7.09 23.39 C7.09 23.39, 7.09 23.39, 7.09 23.39 M4.86 32.05 C12.54 22.99, 18.79 16.17, 27.17 6.39 M4.86 32.05 C13.5 21.08, 21.97 12.85, 27.17 6.39 M1.98 41.47 C12.05 27.81, 25.65 14.31, 34.78 3.73 M1.98 41.47 C13.05 27.26, 26.24 13.27, 34.78 3.73 M1.06 48.62 C15.73 31.9, 26.79 15.24, 41.73 1.83 M1.06 48.62 C15.94 31.74, 31.64 14.99, 41.73 1.83 M2.11 53.51 C13.86 37.3, 27.48 19.64, 48.69 -0.08 M2.11 53.51 C20.48 32.56, 37.8 12.55, 48.69 -0.08 M2.5 59.15 C15.7 45.86, 25.69 32.18, 53.02 1.04 M2.5 59.15 C19.6 40.01, 35.95 21.27, 53.02 1.04 M3.55 64.04 C20.4 44.68, 38.73 25.42, 57.35 2.15 M3.55 64.04 C25.32 39.21, 46.17 14.5, 57.35 2.15 M4.6 68.93 C17.75 54.77, 32.58 38.47, 61.03 4.02 M4.6 68.93 C22.13 48.66, 40.55 28.01, 61.03 4.02 M5.66 73.82 C18.67 56.6, 35.44 41.89, 64.7 5.89 M5.66 73.82 C25.44 52.11, 43.6 30.44, 64.7 5.89 M8.02 77.2 C29.76 50.95, 50.3 27.02, 69.03 7.01 M8.02 77.2 C30.42 51.82, 51.99 25.46, 69.03 7.01 M11.04 79.82 C25.33 61.48, 39.72 45.87, 72.71 8.88 M11.04 79.82 C31.94 55.99, 52.84 32.09, 72.71 8.88 M14.06 82.44 C36.78 55.59, 56.89 31.41, 75.73 11.5 M14.06 82.44 C32.23 61.84, 48.82 41.39, 75.73 11.5 M16.42 85.82 C37.97 61.96, 56.44 40.38, 78.09 14.88 M16.42 85.82 C38.12 62.57, 57.65 38.09, 78.09 14.88 M19.44 88.45 C39.15 66.82, 57.77 43.39, 81.11 17.5 M19.44 88.45 C34.6 69.98, 48.75 52.76, 81.11 17.5 M21.8 91.83 C46.78 64.78, 67.33 36.58, 83.47 20.88 M21.8 91.83 C35.74 74.56, 52.32 57.25, 83.47 20.88 M26.13 92.94 C39.6 78.96, 54.15 62.69, 86.49 23.51 M26.13 92.94 C38.63 78.82, 51.92 63.76, 86.49 23.51 M29.81 94.81 C52.38 69.7, 75.21 44.49, 88.85 26.89 M29.81 94.81 C45.91 74.67, 65.05 55.47, 88.85 26.89 M33.48 96.68 C48.26 77.25, 65.13 59.06, 90.56 31.02 M33.48 96.68 C52.38 75.29, 68.8 55.94, 90.56 31.02 M37.81 97.8 C59.34 77.27, 76.47 51.48, 91.61 35.91 M37.81 97.8 C57.37 74.48, 78.85 49.33, 91.61 35.91 M41.49 99.66 C60.91 79.69, 80.61 57.02, 92.66 40.8 M41.49 99.66 C56.89 83.47, 71.06 67.58, 92.66 40.8 M45.16 101.53 C55.48 91.53, 65.49 79.46, 93.71 45.69 M45.16 101.53 C59.14 83.62, 74.09 68.95, 93.71 45.69 M52.12 99.63 C61.96 86.49, 76.83 70.18, 94.1 51.33 M52.12 99.63 C67.49 79.83, 85.6 61.54, 94.1 51.33 M59.07 97.73 C69.96 83.32, 83.06 72.55, 91.88 59.99 M59.07 97.73 C68.45 87.22, 78.02 76.07, 91.88 59.99 M66.03 95.82 C72.56 89.47, 75.59 83.53, 88.33 70.16 M66.03 95.82 C73.29 87.11, 81.49 77.51, 88.33 70.16 M22.19 91.84 C22.19 91.84, 22.19 91.84, 22.19 91.84 M22.19 91.84 C22.19 91.84, 22.19 91.84, 22.19 91.84 M33.12 96.04 C25.33 86.23, 17.21 81.92, 5.95 72.42 M33.12 96.04 C23.5 87.93, 16.06 80.75, 5.95 72.42 M44.8 100.89 C28.62 89.39, 14.22 75.22, 4.8 66.12 M44.8 100.89 C32.14 89.8, 19.09 79.31, 4.8 66.12 M47.42 97.87 C37.82 86.17, 26.52 78.53, 3.65 59.82 M47.42 97.87 C30.7 84.46, 16.32 71.05, 3.65 59.82 M52.31 96.82 C31.83 78.93, 13.38 63.12, 2.5 53.52 M52.31 96.82 C38.74 86.58, 26.75 76.09, 2.5 53.52 M57.2 95.77 C43.43 82.6, 32.48 74.34, 1.35 47.22 M57.2 95.77 C42.57 84.15, 27.99 70.25, 1.35 47.22 M61.33 94.07 C45.5 79.32, 29.9 67.77, 2.46 42.89 M61.33 94.07 C39.16 74.77, 18.99 56.21, 2.46 42.89 M67.73 94.33 C51.86 81.18, 38.83 69.46, 3.58 38.56 M67.73 94.33 C52.31 81.02, 37.94 67.78, 3.58 38.56 M71.11 91.96 C58.02 79.24, 42.26 67.57, 4.69 34.23 M71.11 91.96 C54.13 78.44, 37.74 65.24, 4.69 34.23 M73.73 88.95 C54.1 74.4, 37.39 58.07, 5.81 29.9 M73.73 88.95 C58.12 76.61, 44.39 64.91, 5.81 29.9 M76.36 85.93 C47.56 61.54, 21.82 38.54, 6.92 25.57 M76.36 85.93 C58.87 70.36, 40.36 56.12, 6.92 25.57 M79.73 83.56 C60.18 64.5, 40.43 48.57, 8.79 21.89 M79.73 83.56 C55.07 60.19, 29.58 38.15, 8.79 21.89 M82.36 80.55 C60.85 61, 37.26 39.82, 11.42 18.88 M82.36 80.55 C57.05 58.73, 32.82 38.38, 11.42 18.88 M84.98 77.53 C66.74 58.4, 45.56 41.12, 14.04 15.86 M84.98 77.53 C61.63 57.5, 40.83 39.09, 14.04 15.86 M87.61 74.51 C66.1 56.16, 44.6 38.95, 17.42 13.49 M87.61 74.51 C72.24 60.36, 56.7 47.36, 17.42 13.49 M89.48 70.83 C64.5 51.26, 43.76 32.36, 20.04 10.48 M89.48 70.83 C73.32 56.16, 59.47 42.58, 20.04 10.48 M90.59 66.5 C74.85 50.12, 57.75 38.9, 23.42 8.11 M90.59 66.5 C66.01 45.49, 41.98 25.46, 23.42 8.11 M91.71 62.17 C64.51 41.2, 41.83 16.1, 26.05 5.09 M91.71 62.17 C74.32 46.79, 58.03 31.66, 26.05 5.09 M93.58 58.5 C80.74 48.04, 66.22 31.8, 30.94 4.04 M93.58 58.5 C80.97 46.66, 67.47 35.84, 30.94 4.04 M94.69 54.17 C77.52 38.87, 59 22.55, 35.07 2.34 M94.69 54.17 C75.82 39.07, 58.26 23.53, 35.07 2.34 M95.81 49.83 C79.3 35.06, 66.36 22.32, 39.96 1.29 M95.81 49.83 C83.76 39.26, 71.64 28.74, 39.96 1.29 M94.66 43.54 C76.64 27.51, 57.16 10.67, 44.09 -0.42 M94.66 43.54 C80.54 31.61, 66.31 18.05, 44.09 -0.42 M93.51 37.24 C84.43 26.34, 71.89 18.5, 49.73 -0.82 M93.51 37.24 C76.71 22.27, 60.35 9.36, 49.73 -0.82 M92.36 30.94 C79.34 20, 71.04 13.06, 60.66 3.38 M92.36 30.94 C85.74 25.47, 79.35 18.57, 60.66 3.38 M91.21 24.64 C84.65 19, 78.79 16.32, 71.59 7.58 M91.21 24.64 C85.71 20.15, 82.51 15.77, 71.59 7.58" stroke="#a5d8ff" stroke-width="0.5" fill="none"></path><path d="M25.19 6.24 C31.51 1.94, 41.67 -1.12, 49.55 -0.8 C57.43 -0.48, 65.89 3.56, 72.48 8.14 C79.06 12.73, 85.47 19.38, 89.06 26.73 C92.65 34.08, 94.63 43.8, 94.01 52.26 C93.4 60.72, 89.8 70.38, 85.38 77.49 C80.96 84.59, 74.22 91, 67.48 94.91 C60.74 98.81, 52.52 101.48, 44.94 100.94 C37.35 100.39, 28.58 96.21, 21.95 91.63 C15.32 87.06, 8.73 80.88, 5.17 73.5 C1.62 66.13, 0.3 55.72, 0.61 47.38 C0.91 39.05, 1.87 30.8, 7 23.49 C12.13 16.19, 26.41 7.1, 31.41 3.54 C36.41 -0.02, 36.72 1.45, 37.01 2.14 M43 0.67 C50.28 -0.66, 57.57 1.86, 64.68 5.28 C71.78 8.7, 80.83 14.66, 85.61 21.18 C90.39 27.71, 92.68 36.13, 93.35 44.43 C94.03 52.74, 92.92 63.35, 89.67 71 C86.42 78.65, 80.12 85.48, 73.84 90.33 C67.57 95.18, 59.7 99.08, 52.03 100.09 C44.37 101.11, 34.79 100.02, 27.86 96.41 C20.93 92.79, 14.87 85.34, 10.44 78.39 C6.02 71.44, 2.59 62.57, 1.31 54.72 C0.03 46.86, 0.01 38.68, 2.76 31.27 C5.51 23.86, 11.24 15.27, 17.82 10.27 C24.4 5.26, 38.15 2.55, 42.24 1.24 C46.34 -0.07, 42.22 1.51, 42.4 2.41" stroke="#1e1e1e" stroke-width="1" fill="none"></path></g><g stroke-linecap="round" transform="translate(578.8144679522231 237.94041817579296) rotate(0 41.23955791428921 46.73816563619425)"><path d="M6.87 20.54 C6.87 20.54, 6.87 20.54, 6.87 20.54 M6.87 20.54 C6.87 20.54, 6.87 20.54, 6.87 20.54 M4.64 29.21 C13.81 20.34, 21.77 9.64, 26.94 3.55 M4.64 29.21 C11.03 22.23, 16.35 14.52, 26.94 3.55 M2.41 37.87 C9.13 27.64, 18.21 16.79, 32.59 3.15 M2.41 37.87 C14.16 24.61, 24.15 11.61, 32.59 3.15 M1.49 45.02 C15.44 30.61, 29.6 13.45, 38.23 2.76 M1.49 45.02 C10.39 36.08, 18.69 26.13, 38.23 2.76 M2.54 49.91 C19.11 32.24, 32.53 12.68, 43.87 2.36 M2.54 49.91 C11.2 39.91, 20.36 29.67, 43.87 2.36 M3.59 54.8 C18.88 38.67, 37.66 18.35, 50.17 1.21 M3.59 54.8 C20.1 36.74, 36.81 17.72, 50.17 1.21 M3.99 60.44 C21.53 39.87, 38.71 20.18, 53.85 3.08 M3.99 60.44 C19.85 41.04, 37.1 21.51, 53.85 3.08 M5.04 65.33 C24.16 46.72, 39.14 28.79, 56.86 5.71 M5.04 65.33 C22.49 44.04, 39.69 24.42, 56.86 5.71 M5.43 70.97 C22.83 50.39, 38.16 31.15, 60.54 7.58 M5.43 70.97 C26.22 46.4, 49.1 21.27, 60.54 7.58 M8.45 73.6 C23.24 56.06, 40.96 34.54, 64.21 9.45 M8.45 73.6 C21.5 58.91, 33.24 45.58, 64.21 9.45 M11.47 76.22 C23.87 60.54, 37.13 44.46, 67.89 11.31 M11.47 76.22 C22.02 61.94, 33.29 49.76, 67.89 11.31 M14.49 78.84 C26.81 66.4, 39.51 49.52, 71.56 13.18 M14.49 78.84 C28.53 62.08, 44.01 44.78, 71.56 13.18 M16.85 82.22 C29.13 67.16, 44.59 51.22, 73.27 17.32 M16.85 82.22 C36.35 59.01, 57.45 36.73, 73.27 17.32 M19.87 84.85 C32.62 71.93, 42.67 60.13, 75.63 20.7 M19.87 84.85 C30.77 71.94, 43.08 56.73, 75.63 20.7 M22.89 87.47 C35.09 74.84, 47.12 61.9, 77.34 24.83 M22.89 87.47 C36.07 74.7, 46.67 60.66, 77.34 24.83 M25.91 90.1 C45.24 68.13, 65.01 46.53, 79.05 28.96 M25.91 90.1 C42.74 71.16, 60.34 50.99, 79.05 28.96 M30.24 91.21 C48.48 69.77, 70.09 45.88, 81.41 32.34 M30.24 91.21 C49.14 69.39, 65.9 48.56, 81.41 32.34 M34.57 92.33 C54.18 71.22, 72.11 47.14, 83.12 36.48 M34.57 92.33 C49.83 75.22, 66.27 56.56, 83.12 36.48 M38.9 93.44 C49.16 79.78, 63.38 68.61, 82.86 42.87 M38.9 93.44 C52.76 78.72, 64.04 64.52, 82.86 42.87 M43.23 94.55 C56.65 79.63, 68.44 68.19, 81.94 50.03 M43.23 94.55 C56.26 79.38, 71.89 62.86, 81.94 50.03 M47.56 95.67 C61.1 82.02, 73.41 68.22, 81.68 56.42 M47.56 95.67 C58.66 84.04, 69.05 69.54, 81.68 56.42 M57.14 90.75 C65.79 82.63, 71.14 73.03, 80.76 63.58 M57.14 90.75 C66.6 80.71, 73.04 70.78, 80.76 63.58 M23.11 87.73 C23.11 87.73, 23.11 87.73, 23.11 87.73 M23.11 87.73 C23.11 87.73, 23.11 87.73, 23.11 87.73 M31.77 89.96 C23.55 84.43, 16.6 75.12, 7.62 68.97 M31.77 89.96 C22.8 82.88, 15.47 76.44, 7.62 68.97 M41.19 92.85 C33.94 84.91, 27.87 78.2, 5.72 62.01 M41.19 92.85 C28.75 81.72, 13.85 69.65, 5.72 62.01 M46.83 92.45 C34.08 81.88, 26.11 72.17, 4.57 55.71 M46.83 92.45 C31.6 78.56, 14.4 64.74, 4.57 55.71 M50.97 90.75 C33.9 78.94, 19 65.81, 3.42 49.41 M50.97 90.75 C37.61 78.8, 22.87 66.13, 3.42 49.41 M54.35 88.38 C43.96 77.15, 32.53 65.68, 2.27 43.11 M54.35 88.38 C35.46 71.87, 15.34 55.95, 2.27 43.11 M58.48 86.68 C36.8 69, 17.03 51.89, 3.39 38.78 M58.48 86.68 C44.03 73.66, 27.77 61.02, 3.39 38.78 M62.61 84.97 C47.1 70.9, 31.07 56.47, 4.5 34.45 M62.61 84.97 C43.62 68.66, 23.78 51.58, 4.5 34.45 M66.75 83.26 C48.05 69.39, 32.24 51.67, 5.62 30.12 M66.75 83.26 C46.37 66.64, 25.85 48.34, 5.62 30.12 M68.62 79.59 C48.69 59.59, 25.27 41.93, 6.73 25.79 M68.62 79.59 C52.45 66.65, 37.15 51.58, 6.73 25.79 M70.49 75.91 C48.65 55.35, 27.56 36.62, 7.85 21.46 M70.49 75.91 C48.71 57.21, 25.79 37.57, 7.85 21.46 M73.11 72.89 C58.97 60.19, 41.04 47.18, 9.71 17.79 M73.11 72.89 C56.43 57.53, 37.34 41.63, 9.71 17.79 M74.98 69.22 C56.07 54.43, 33.78 34.03, 12.34 14.77 M74.98 69.22 C55.85 52.76, 36.71 34.49, 12.34 14.77 M77.6 66.2 C58.36 49.79, 40.38 32.16, 15.72 12.4 M77.6 66.2 C57.06 47.51, 36.63 29.4, 15.72 12.4 M79.47 62.53 C56.1 41.79, 35.55 24.1, 18.34 9.38 M79.47 62.53 C64.72 50.03, 48.81 35.71, 18.34 9.38 M82.1 59.51 C67.04 44.81, 52.61 30.76, 20.97 6.37 M82.1 59.51 C61.98 42.48, 41.2 23.88, 20.97 6.37 M82.46 54.52 C58.17 35.94, 35.39 13.94, 24.35 4 M82.46 54.52 C65.73 40.69, 50.48 26.06, 24.35 4 M82.82 49.53 C72.19 39.87, 58.69 30.48, 27.72 1.64 M82.82 49.53 C64.13 33.07, 45.72 17.08, 27.72 1.64 M83.18 44.55 C64.42 27.67, 46.63 9.54, 33.37 1.25 M83.18 44.55 C65.44 29.02, 47.2 14.57, 33.37 1.25 M83.54 39.56 C71.46 31.43, 60.63 23.21, 39.01 0.85 M83.54 39.56 C67.17 24.74, 50.96 11.11, 39.01 0.85 M83.14 33.92 C67.79 22.12, 56.29 11.08, 44.65 0.46 M83.14 33.92 C69.91 22, 57.22 9.73, 44.65 0.46 M78.22 24.34 C65.71 16.22, 55.97 4.59, 50.3 0.06 M78.22 24.34 C70.98 18.84, 62.85 11.64, 50.3 0.06" stroke="#a5d8ff" stroke-width="0.5" fill="none"></path><path d="M26.3 2.56 C32.73 -1.14, 41.97 -0.66, 49.31 0.97 C56.65 2.59, 64.91 6.59, 70.34 12.29 C75.76 17.99, 80.32 26.9, 81.87 35.18 C83.41 43.47, 82.22 53.94, 79.61 61.99 C77 70.04, 71.86 78.15, 66.23 83.47 C60.59 88.79, 52.99 93.2, 45.79 93.89 C38.59 94.59, 29.7 91.52, 23.01 87.64 C16.31 83.77, 9.34 77.86, 5.61 70.65 C1.87 63.43, 0.34 52.74, 0.59 44.34 C0.84 35.95, 2.25 27.22, 7.11 20.27 C11.97 13.31, 25.41 5.65, 29.74 2.59 C34.07 -0.47, 32.85 1.24, 33.08 1.89 M38.08 0.65 C45.03 -0.62, 52.1 2.13, 58.72 5.93 C65.35 9.74, 73.85 16.47, 77.83 23.48 C81.8 30.5, 83.01 39.62, 82.59 48.02 C82.17 56.43, 79.64 66.99, 75.3 73.91 C70.96 80.83, 63.41 86.4, 56.57 89.54 C49.72 92.68, 41.45 94.13, 34.22 92.75 C26.99 91.37, 18.43 87.25, 13.18 81.28 C7.94 75.31, 4.42 65.27, 2.75 56.92 C1.08 48.57, 1.28 38.69, 3.18 31.16 C5.08 23.64, 8.76 16.8, 14.14 11.76 C19.53 6.72, 31.6 2.51, 35.48 0.91 C39.36 -0.69, 37.02 1.29, 37.41 2.15" stroke="#1e1e1e" stroke-width="1" fill="none"></path></g><g stroke-linecap="round" transform="translate(326.9967673951912 117.22285057715135) rotate(0 41.92688387952728 39.86490598381283)"><path d="M7.79 2.8 C7.79 2.8, 7.79 2.8, 7.79 2.8 M7.79 2.8 C7.79 2.8, 7.79 2.8, 7.79 2.8 M3.59 13.72 C6.16 10.7, 9.22 6.18, 14.09 1.65 M3.59 13.72 C6.48 9.31, 9.36 6.63, 14.09 1.65 M2.02 21.63 C8.81 16.79, 15.3 8.27, 20.39 0.5 M2.02 21.63 C8.2 13.52, 13.64 7.98, 20.39 0.5 M1.76 28.03 C7.26 20.68, 14.72 10.17, 26.03 0.1 M1.76 28.03 C7.58 21.16, 13.24 13.87, 26.03 0.1 M2.15 33.67 C11.05 24.36, 20.33 13.5, 31.02 0.46 M2.15 33.67 C11.17 23.98, 20.23 14.54, 31.02 0.46 M1.89 40.07 C10.02 29.76, 18.39 17.54, 36.01 0.82 M1.89 40.07 C15.9 25.39, 28.86 10.03, 36.01 0.82 M2.29 45.71 C15.13 31.57, 27.75 15.86, 41.65 0.43 M2.29 45.71 C14.94 31.79, 28.73 16.05, 41.65 0.43 M2.02 52.11 C11.83 40.39, 21.5 30.17, 46.64 0.79 M2.02 52.11 C10.66 40.5, 20.62 31.11, 46.64 0.79 M0.45 60.02 C21.71 35.39, 41.17 12.33, 52.28 0.4 M0.45 60.02 C13.03 44.43, 26.9 30.94, 52.28 0.4 M1.5 64.91 C15.6 47.75, 30.15 34.84, 57.27 0.76 M1.5 64.91 C18.18 43.73, 36.5 23.52, 57.27 0.76 M2.55 69.79 C15.98 51.73, 29.71 37.06, 62.91 0.36 M2.55 69.79 C17.32 51.91, 33.15 33.91, 62.91 0.36 M4.91 73.17 C19.95 55.3, 32.56 41.97, 67.9 0.72 M4.91 73.17 C28.79 45.74, 51.85 19.42, 67.9 0.72 M7.28 76.55 C21.01 56.33, 36.97 41.54, 71.57 2.59 M7.28 76.55 C28.3 51.05, 48.87 27.05, 71.57 2.59 M10.3 79.18 C36.78 51.6, 62.75 19.11, 76.56 2.95 M10.3 79.18 C30.67 56.97, 50.05 33.17, 76.56 2.95 M15.28 79.54 C34.12 60.29, 50.77 38.98, 79.58 5.57 M15.28 79.54 C28.83 64.06, 42.7 47.44, 79.58 5.57 M20.93 79.14 C43.08 55.3, 67.51 26.66, 81.94 8.95 M20.93 79.14 C39.87 56.77, 59.63 33.99, 81.94 8.95 M25.91 79.5 C39.85 60.2, 57.64 44.27, 82.99 13.84 M25.91 79.5 C41.36 62.1, 54.12 46.33, 82.99 13.84 M30.9 79.86 C51.59 57.85, 68.52 36.42, 84.04 18.73 M30.9 79.86 C50.48 59.08, 68.59 36.96, 84.04 18.73 M36.54 79.47 C48.16 67.99, 59.95 51.98, 86.4 22.11 M36.54 79.47 C54.84 59.28, 72.24 38.75, 86.4 22.11 M41.53 79.83 C54.36 63.31, 73.24 44.71, 86.14 28.51 M41.53 79.83 C56.86 63.27, 70.78 46.27, 86.14 28.51 M47.17 79.43 C61.47 63.01, 78.92 44.47, 86.54 34.15 M47.17 79.43 C54.31 70.94, 63.37 61.31, 86.54 34.15 M52.16 79.79 C60.45 70.81, 67.36 61.8, 86.28 40.55 M52.16 79.79 C64.46 64.86, 76.87 52.15, 86.28 40.55 M57.8 79.4 C67.97 68.49, 76.47 57.72, 86.01 46.95 M57.8 79.4 C65.98 70.22, 73.29 62.52, 86.01 46.95 M62.79 79.76 C68.14 70.5, 76.5 64.38, 86.41 52.59 M62.79 79.76 C71.05 70.17, 78.99 63.06, 86.41 52.59 M66.47 81.63 C70.77 73.43, 79.26 66.84, 86.15 58.99 M66.47 81.63 C73.67 73.6, 81.72 64.5, 86.15 58.99 M72.76 80.48 C76.44 75.26, 78.95 71.29, 85.23 66.14 M72.76 80.48 C76.58 75.98, 79.56 73.29, 85.23 66.14 M7.53 76.7 C7.53 76.7, 7.53 76.7, 7.53 76.7 M7.53 76.7 C7.53 76.7, 7.53 76.7, 7.53 76.7 M16.19 78.93 C12.99 74.79, 9.57 70.91, 4.87 69.09 M16.19 78.93 C12.12 76.2, 9.81 72.72, 4.87 69.09 M21.83 78.54 C14.89 71.51, 4.36 64.56, -0.06 59.51 M21.83 78.54 C16.47 74.71, 13.06 71.04, -0.06 59.51 M28.23 78.8 C18.61 72.46, 10.8 63.13, 0.3 54.52 M28.23 78.8 C18.79 70.02, 9.71 61.86, 0.3 54.52 M34.63 79.06 C25.18 73.12, 17.41 63.42, -0.09 48.88 M34.63 79.06 C23.67 70.14, 13.08 59.33, -0.09 48.88 M40.27 78.66 C25.94 64.81, 13.42 52.87, 0.27 43.89 M40.27 78.66 C25.63 65.22, 10.3 51.65, 0.27 43.89 M46.67 78.93 C28.2 63.22, 11.91 49.01, -0.12 38.25 M46.67 78.93 C28.49 63.89, 11.7 48.48, -0.12 38.25 M53.07 79.19 C34.79 64.83, 20.62 49.79, 0.24 33.26 M53.07 79.19 C36.94 66.33, 22.32 53.15, 0.24 33.26 M58.71 78.79 C37.84 63.44, 18.01 45.25, -0.16 27.62 M58.71 78.79 C45.93 66.8, 31.73 56.23, -0.16 27.62 M65.11 79.05 C43.94 60.77, 26.47 44.37, 0.2 22.63 M65.11 79.05 C42.97 61.12, 21.29 42.15, 0.2 22.63 M69.24 77.35 C49.4 62.76, 33.63 44.92, 1.32 18.3 M69.24 77.35 C50.98 61.55, 34.01 45.73, 1.32 18.3 M74.13 76.3 C57.3 61.08, 43.09 50.77, 1.68 13.31 M74.13 76.3 C51.28 55.83, 28.77 34.76, 1.68 13.31 M78.26 74.59 C57.05 58.39, 37.11 38.58, 2.79 8.98 M78.26 74.59 C55.21 56.2, 34.71 36.9, 2.79 8.98 M80.89 71.57 C57.62 48.94, 35.14 31.27, 5.41 5.96 M80.89 71.57 C63.78 56.25, 44.84 39.94, 5.41 5.96 M82.76 67.9 C63.55 51.98, 43.8 32.32, 8.04 2.95 M82.76 67.9 C66.13 53.81, 46.93 37.37, 8.04 2.95 M83.87 63.56 C61.63 47.37, 41.87 26.51, 12.93 1.9 M83.87 63.56 C66.25 48.53, 48.82 34.21, 12.93 1.9 M84.23 58.58 C64.35 40.43, 45.17 23.76, 17.82 0.84 M84.23 58.58 C67.55 45.24, 51.96 29.5, 17.82 0.84 M83.84 52.93 C72.48 42.43, 60.2 31.46, 21.19 -1.52 M83.84 52.93 C66.83 37.31, 49.38 23.46, 21.19 -1.52 M84.2 47.95 C69.73 34.76, 52.27 20.51, 27.59 -1.26 M84.2 47.95 C62.2 30.03, 41.89 12.77, 27.59 -1.26 M84.56 42.96 C70.44 31.31, 60.93 22.16, 33.24 -1.65 M84.56 42.96 C72.43 32.89, 62.25 21.36, 33.24 -1.65 M84.16 37.32 C69.07 23.96, 50.59 9.38, 39.63 -1.39 M84.16 37.32 C68.96 24.13, 55.47 11.08, 39.63 -1.39 M84.52 32.33 C76.36 26.81, 67.98 19.35, 46.03 -1.13 M84.52 32.33 C69.81 18.93, 54.81 7.24, 46.03 -1.13 M84.13 26.69 C77.31 20.21, 69.85 11.87, 51.67 -1.52 M84.13 26.69 C73.37 17.74, 63.31 9.59, 51.67 -1.52 M84.49 21.7 C77.94 14.44, 70.41 9.34, 58.07 -1.26 M84.49 21.7 C78.4 17.21, 73.2 12.07, 58.07 -1.26 M85.6 17.37 C80.18 13.21, 74.91 7.21, 64.47 -1 M85.6 17.37 C76.75 9.59, 70.68 3.4, 64.47 -1 M84.45 11.07 C82.44 7.53, 78.17 5.49, 70.11 -1.39 M84.45 11.07 C79.24 7.82, 75.39 3.03, 70.11 -1.39" stroke="#b2f2bb" stroke-width="0.5" fill="none"></path><path d="M19.93 0 C28.61 1.7, 39.06 -1.38, 63.92 0 M19.93 0 C34.56 0.26, 49.83 -0.99, 63.92 0 M63.92 0 C77.51 -1.28, 84.08 7.56, 83.85 19.93 M63.92 0 C78.7 1.18, 82.18 6.64, 83.85 19.93 M83.85 19.93 C83.19 34.34, 85.46 47.83, 83.85 59.8 M83.85 19.93 C83.75 33.58, 83.16 47.37, 83.85 59.8 M83.85 59.8 C85.46 73.6, 75.85 81.02, 63.92 79.73 M83.85 59.8 C85.54 73.93, 77.42 79.06, 63.92 79.73 M63.92 79.73 C49.57 80.08, 36.31 79.72, 19.93 79.73 M63.92 79.73 C50.34 78.83, 34.52 80.31, 19.93 79.73 M19.93 79.73 C4.78 80.59, 0.6 74.36, 0 59.8 M19.93 79.73 C7.43 81.46, 1.67 75.22, 0 59.8 M0 59.8 C0.36 48.38, -0.59 41.31, 0 19.93 M0 59.8 C0.64 50.51, 0.42 43.47, 0 19.93 M0 19.93 C-1.74 7.26, 7.34 0.7, 19.93 0 M0 19.93 C0.46 6.06, 5.8 1.33, 19.93 0" stroke="#1e1e1e" stroke-width="1" fill="none"></path></g><g stroke-linecap="round" transform="translate(326.9967673951912 251.93873976382906) rotate(0 43.98886177524173 35.74095019238382)"><path d="M2.26 7.27 C2.26 7.27, 2.26 7.27, 2.26 7.27 M2.26 7.27 C2.26 7.27, 2.26 7.27, 2.26 7.27 M0.69 15.17 C1.81 12.57, 6.5 9.7, 12.5 1.59 M0.69 15.17 C4.12 11.02, 9.28 6.43, 12.5 1.59 M0.43 21.57 C7.88 14.84, 12.49 9.29, 18.8 0.44 M0.43 21.57 C3.33 18.09, 8.04 12.77, 18.8 0.44 M0.82 27.22 C8.51 15.7, 17.09 9.39, 23.79 0.8 M0.82 27.22 C9.35 16.9, 19.13 6.76, 23.79 0.8 M0.56 33.61 C11.76 21.7, 21.77 8.95, 29.43 0.41 M0.56 33.61 C9.08 25.2, 16.26 15.05, 29.43 0.41 M0.3 40.01 C10.43 25.15, 26.01 13.04, 34.42 0.77 M0.3 40.01 C10.68 28.56, 20.09 16.08, 34.42 0.77 M0.69 45.65 C11 32.68, 21.72 20.59, 39.4 1.13 M0.69 45.65 C10.99 34.02, 20.15 22.74, 39.4 1.13 M0.43 52.05 C15.96 35.08, 30.11 17.64, 45.05 0.73 M0.43 52.05 C12.94 39.05, 25.98 24.04, 45.05 0.73 M0.83 57.7 C17.62 37.57, 33.19 18.83, 50.03 1.09 M0.83 57.7 C13.28 45.07, 24.13 30.11, 50.03 1.09 M2.53 61.83 C15.85 48.88, 28.24 35.08, 55.68 0.7 M2.53 61.83 C21.28 40.7, 39.1 19.65, 55.68 0.7 M4.24 65.96 C21.09 45.95, 39.66 24.58, 60.66 1.06 M4.24 65.96 C26.6 40.33, 48.67 14.22, 60.66 1.06 M7.26 68.59 C26.61 47.14, 47.41 24.44, 66.31 0.66 M7.26 68.59 C25 48.37, 41.16 29.32, 66.31 0.66 M10.94 70.46 C26.85 52.97, 46.45 32.11, 71.29 1.02 M10.94 70.46 C33.21 44.25, 57.15 19.5, 71.29 1.02 M15.27 71.57 C30.97 53.06, 43.52 38.53, 76.28 1.38 M15.27 71.57 C32.8 50.33, 49.39 31.79, 76.28 1.38 M20.91 71.18 C37.65 51.79, 54.11 31.78, 79.95 3.25 M20.91 71.18 C39.15 49.85, 57.88 28.15, 79.95 3.25 M25.9 71.54 C39.5 55.77, 52.41 42.41, 83.63 5.12 M25.9 71.54 C40.62 54.41, 55.81 37.6, 83.63 5.12 M30.88 71.9 C53.89 48.31, 73.86 21.83, 85.99 8.5 M30.88 71.9 C51.25 47.65, 74.81 21.87, 85.99 8.5 M36.53 71.5 C46.49 59.21, 60.92 43.37, 87.7 12.63 M36.53 71.5 C53.49 51.43, 69.13 33.07, 87.7 12.63 M41.51 71.86 C60.7 49.5, 77.33 32, 88.09 18.28 M41.51 71.86 C56.88 54.27, 71.77 37.83, 88.09 18.28 M47.16 71.47 C61.18 57.52, 71.82 45.5, 88.49 23.92 M47.16 71.47 C54.53 62.55, 64.77 51.57, 88.49 23.92 M52.14 71.83 C60.57 63.34, 66.45 53.91, 88.23 30.32 M52.14 71.83 C62.22 60.9, 70.11 50.64, 88.23 30.32 M57.79 71.43 C65.9 61.48, 74.57 52.65, 87.97 36.72 M57.79 71.43 C68.68 59.94, 79.51 46.51, 87.97 36.72 M62.77 71.79 C68.05 65.09, 76.25 55.74, 88.36 42.36 M62.77 71.79 C69.13 65.22, 74.45 59.23, 88.36 42.36 M68.42 71.4 C74.11 65.86, 82.02 54.74, 88.1 48.76 M68.42 71.4 C73.48 67.14, 77.39 62.02, 88.1 48.76 M73.4 71.76 C77.89 66.89, 82.88 61.36, 87.84 55.16 M73.4 71.76 C78.67 66.01, 84.06 60.35, 87.84 55.16 M81.01 69.1 C81.81 67.6, 83.19 66.67, 84.95 64.57 M81.01 69.1 C82.21 67.94, 83.23 66.82, 84.95 64.57 M4.21 66.79 C4.21 66.79, 4.21 66.79, 4.21 66.79 M4.21 66.79 C4.21 66.79, 4.21 66.79, 4.21 66.79 M15.14 70.99 C13.66 66.93, 8.98 65.13, 0.8 58.53 M15.14 70.99 C12.13 67.58, 8.74 65.63, 0.8 58.53 M21.54 71.25 C13.44 65.33, 7.33 61.9, 1.16 53.54 M21.54 71.25 C16.33 66.71, 9.44 61.08, 1.16 53.54 M27.18 70.86 C20.15 64.36, 16.65 59.85, 0.77 47.9 M27.18 70.86 C21.56 65.33, 15.52 62.09, 0.77 47.9 M33.58 71.12 C24.5 62.5, 17.43 56.24, 1.13 42.91 M33.58 71.12 C21.51 59.58, 8.47 49.7, 1.13 42.91 M39.98 71.38 C31.88 61.63, 21.3 54.29, 0.73 37.27 M39.98 71.38 C30.85 62.7, 22.95 56.34, 0.73 37.27 M45.62 70.99 C36.65 63.63, 25.66 54.36, 1.09 32.28 M45.62 70.99 C34.86 61.36, 24.77 53.29, 1.09 32.28 M52.02 71.25 C35.57 54.94, 15.33 39.19, 0.7 26.64 M52.02 71.25 C35.77 57.62, 19.61 41.8, 0.7 26.64 M58.41 71.51 C35.07 52.97, 13.16 32.08, 1.06 21.65 M58.41 71.51 C39.55 56, 22.28 40.26, 1.06 21.65 M64.06 71.11 C50.78 58.14, 36.85 45.23, 0.66 16.01 M64.06 71.11 C38.76 49.79, 14.2 28.29, 0.66 16.01 M70.46 71.38 C57.44 59.33, 40.58 47.99, 1.02 11.02 M70.46 71.38 C51.77 53.58, 31.07 37.8, 1.02 11.02 M75.34 70.33 C57.72 55.64, 42.64 40.36, 2.89 7.34 M75.34 70.33 C60.81 56.54, 44.44 43.64, 2.89 7.34 M80.23 69.27 C62.86 54.98, 48.56 41.9, 5.52 4.32 M80.23 69.27 C54.91 46.92, 27.34 22.48, 5.52 4.32 M83.61 66.91 C67.12 52.4, 45.66 35.16, 8.89 1.96 M83.61 66.91 C66.81 53.4, 51.44 39.61, 8.89 1.96 M85.48 63.24 C66.11 45.68, 45.91 31.16, 13.78 0.91 M85.48 63.24 C58.2 40.39, 33.44 19.06, 13.78 0.91 M87.35 59.56 C61.49 36.3, 31.36 14.07, 17.92 -0.8 M87.35 59.56 C65.43 40.79, 44.74 23.11, 17.92 -0.8 M87.71 54.57 C74.38 42.06, 58.92 30.58, 24.31 -0.53 M87.71 54.57 C71.97 40.51, 55.03 26.72, 24.31 -0.53 M88.07 49.59 C72.48 35.9, 52.65 19.77, 30.71 -0.27 M88.07 49.59 C70.89 34.6, 55.02 20.7, 30.71 -0.27 M88.43 44.6 C71.13 29.93, 58.74 18.12, 36.36 -0.67 M88.43 44.6 C68.55 27.89, 48.27 10.09, 36.36 -0.67 M88.04 38.96 C78.35 29.99, 63.96 18.79, 42.75 -0.41 M88.04 38.96 C79.95 30.28, 70.51 22.69, 42.75 -0.41 M88.4 33.97 C74.47 23.48, 64.38 13.77, 49.15 -0.14 M88.4 33.97 C78.8 24.11, 66.33 14.79, 49.15 -0.14 M88 28.33 C80.08 23.58, 74.98 16.93, 54.79 -0.54 M88 28.33 C75.52 17.59, 61.72 6.4, 54.79 -0.54 M88.36 23.34 C83.11 16.61, 74.99 10.62, 61.19 -0.28 M88.36 23.34 C82.29 19.39, 77.44 13.28, 61.19 -0.28 M87.97 17.7 C83.45 13.87, 75.33 7.71, 67.59 -0.02 M87.97 17.7 C82.84 13.63, 78.08 10.49, 67.59 -0.02 M86.82 11.4 C83.16 7.39, 80.84 5.94, 73.23 -0.41 M86.82 11.4 C84.47 8.3, 79.76 5.78, 73.23 -0.41" stroke="#b2f2bb" stroke-width="0.5" fill="none"></path><path d="M17.87 0 C30.62 -2.07, 42.04 -0.04, 70.11 0 M17.87 0 C37.19 -0.97, 57.35 -0.95, 70.11 0 M70.11 0 C82.25 0.92, 89.27 6.98, 87.98 17.87 M70.11 0 C80.35 -0.01, 88.84 7.23, 87.98 17.87 M87.98 17.87 C89.2 28.29, 88.77 36.52, 87.98 53.61 M87.98 17.87 C87.3 31.41, 88.76 45.75, 87.98 53.61 M87.98 53.61 C86.62 66.81, 83.48 72.21, 70.11 71.48 M87.98 53.61 C88.19 64.86, 82.35 72.2, 70.11 71.48 M70.11 71.48 C55.91 71.71, 42.14 73.58, 17.87 71.48 M70.11 71.48 C58.21 72.18, 47.07 71.65, 17.87 71.48 M17.87 71.48 C6.56 72.76, 0.68 67.03, 0 53.61 M17.87 71.48 C7.63 73.62, -1.2 67.51, 0 53.61 M0 53.61 C-0.38 45.8, -1.85 35.66, 0 17.87 M0 53.61 C0.22 44.89, -1.11 35.08, 0 17.87 M0 17.87 C0.69 6.66, 6.35 -0.5, 17.87 0 M0 17.87 C-0.84 7.29, 8.03 1.52, 17.87 0" stroke="#1e1e1e" stroke-width="1" fill="none"></path></g><g stroke-linecap="round" transform="translate(317.37420388185706 371.53345771526733) rotate(0 44.67618774047992 35.05362422714575)"><path d="M4.67 4.06 C4.67 4.06, 4.67 4.06, 4.67 4.06 M4.67 4.06 C4.67 4.06, 4.67 4.06, 4.67 4.06 M0.47 14.98 C5.36 10.71, 10.68 3.75, 12.93 0.64 M0.47 14.98 C3.57 12.51, 6.35 8.95, 12.93 0.64 M0.21 21.38 C7.82 14.3, 12.03 5.34, 17.92 1 M0.21 21.38 C3.85 17.04, 8.24 12.28, 17.92 1 M0.6 27.02 C7.67 20, 18.37 8.97, 23.56 0.61 M0.6 27.02 C8.77 18.42, 17.31 8.8, 23.56 0.61 M0.34 33.42 C10.29 21.73, 19.8 10.86, 28.55 0.97 M0.34 33.42 C9.19 22.45, 19.29 11.16, 28.55 0.97 M0.08 39.82 C13.25 27.73, 22.48 16.42, 34.19 0.57 M0.08 39.82 C11.63 25.53, 22.76 12.89, 34.19 0.57 M0.47 45.46 C12.88 30.53, 23.21 17.05, 39.18 0.93 M0.47 45.46 C14.85 28.3, 31.3 10.56, 39.18 0.93 M0.21 51.86 C11.7 38.17, 26.12 20.45, 44.82 0.54 M0.21 51.86 C10.83 40.06, 20.13 29.54, 44.82 0.54 M0.61 57.5 C11.29 43.76, 22.83 29.67, 49.81 0.9 M0.61 57.5 C9.74 44.93, 19.55 34.41, 49.81 0.9 M2.97 60.88 C14.33 49.58, 26.05 33.83, 55.45 0.5 M2.97 60.88 C15.83 45.46, 30.13 29.52, 55.45 0.5 M4.67 65.01 C16.8 50.13, 32.11 34.35, 60.44 0.86 M4.67 65.01 C23.94 42.07, 44.81 20.06, 60.44 0.86 M7.69 67.64 C20.98 54.1, 31.57 41.68, 66.08 0.47 M7.69 67.64 C19.13 54.1, 32 38.24, 66.08 0.47 M11.37 69.51 C24.69 55.61, 37.79 41.44, 71.07 0.83 M11.37 69.51 C25.74 55.42, 37.5 40.04, 71.07 0.83 M16.36 69.87 C38.09 45.12, 60.32 20.69, 76.06 1.19 M16.36 69.87 C35.29 48.52, 55.04 25.87, 76.06 1.19 M20.69 70.98 C42.51 45.4, 67.66 17.43, 81.04 1.55 M20.69 70.98 C42.84 45.39, 62.89 20.78, 81.04 1.55 M26.33 70.59 C49.57 45.31, 71.13 17.05, 84.06 4.17 M26.33 70.59 C44.53 50.16, 63.85 28.19, 84.06 4.17 M31.32 70.95 C44.41 53.9, 61.51 39.41, 86.43 7.55 M31.32 70.95 C48.52 52.44, 63.01 34.54, 86.43 7.55 M36.96 70.55 C54.6 50.81, 70.5 34.65, 88.79 10.93 M36.96 70.55 C54.68 49.93, 75.08 27.92, 88.79 10.93 M41.95 70.91 C60.29 51.7, 77.53 32.2, 89.18 16.58 M41.95 70.91 C57.16 54.44, 71.77 35.09, 89.18 16.58 M47.59 70.52 C62.33 55.19, 73.97 38.36, 89.58 22.22 M47.59 70.52 C63.63 52.94, 76.48 35.64, 89.58 22.22 M52.58 70.88 C64.11 55.83, 78.77 38.36, 89.32 28.62 M52.58 70.88 C64.12 56.73, 77.13 42.43, 89.32 28.62 M58.22 70.49 C67.9 60.05, 76.44 50.85, 89.71 34.26 M58.22 70.49 C65.57 61.6, 71.63 54.41, 89.71 34.26 M63.21 70.85 C71.5 60.93, 79.59 52.15, 89.45 40.66 M63.21 70.85 C68.79 65.11, 74.56 56.92, 89.45 40.66 M68.85 70.45 C74.89 62.14, 78.43 58.45, 89.19 47.05 M68.85 70.45 C72.92 66.29, 76.49 60.05, 89.19 47.05 M73.84 70.81 C79.32 64.74, 82.74 60.92, 89.58 52.7 M73.84 70.81 C79.92 64.62, 85.95 56.94, 89.58 52.7 M80.14 69.66 C81.66 68.11, 83.84 65.96, 88.01 60.6 M80.14 69.66 C82.02 67.96, 83.09 65.53, 88.01 60.6 M4.06 65.45 C4.06 65.45, 4.06 65.45, 4.06 65.45 M4.06 65.45 C4.06 65.45, 4.06 65.45, 4.06 65.45 M11.97 67.02 C8.9 63.95, 5.21 60.38, 0.65 57.18 M11.97 67.02 C8.57 64.26, 4.42 60.78, 0.65 57.18 M19.12 67.94 C12.78 65.22, 9.68 58.55, 2.52 53.5 M19.12 67.94 C13.46 63.59, 7.39 57.85, 2.52 53.5 M25.52 68.2 C18.62 60.09, 8.51 53.99, 2.88 48.52 M25.52 68.2 C19.17 64.08, 13.74 57.6, 2.88 48.52 M31.16 67.8 C21.41 58.12, 12.54 50.01, 2.48 42.87 M31.16 67.8 C21.5 59.62, 10.46 50.31, 2.48 42.87 M37.56 68.06 C30.46 61.38, 19.33 54.28, 2.84 37.89 M37.56 68.06 C28.82 59.88, 17.69 50.91, 2.84 37.89 M43.96 68.33 C31.87 59.14, 16.24 44.54, 2.45 32.24 M43.96 68.33 C31.35 57.68, 18.79 45.14, 2.45 32.24 M49.6 67.93 C35 55.49, 21.57 41.81, 2.81 27.26 M49.6 67.93 C34.15 53.59, 18.83 39.92, 2.81 27.26 M56 68.19 C35.6 50.08, 18.08 35.02, 3.17 22.27 M56 68.19 C43.25 57.45, 29.4 44.92, 3.17 22.27 M61.64 67.8 C47.16 53.61, 33.31 40.06, 2.77 16.63 M61.64 67.8 C42.26 51.42, 22.22 33.47, 2.77 16.63 M68.04 68.06 C40.7 46.88, 14.91 22.26, 2.38 10.98 M68.04 68.06 C49.26 52.42, 31.99 36.03, 2.38 10.98 M73.68 67.67 C60.19 55.49, 43.74 43.53, 4.25 7.31 M73.68 67.67 C50.22 47.03, 27.15 26.99, 4.25 7.31 M80.08 67.93 C51.99 42.65, 24.67 16.23, 5.36 2.98 M80.08 67.93 C53.39 44.93, 26.39 22.87, 5.36 2.98 M84.21 66.22 C64.68 52.11, 46.63 37.63, 8.74 0.61 M84.21 66.22 C56.73 41.46, 29.23 18.02, 8.74 0.61 M86.84 63.2 C58.31 39.66, 33.59 17.13, 12.12 -1.75 M86.84 63.2 C61.11 39.86, 35.61 16.46, 12.12 -1.75 M88.71 59.53 C59.12 36.77, 32.57 10.53, 18.52 -1.49 M88.71 59.53 C70.58 44.37, 51.33 27.48, 18.52 -1.49 M89.82 55.2 C71.08 40.11, 53.83 23.7, 24.92 -1.23 M89.82 55.2 C63.08 31.64, 38.2 10.45, 24.92 -1.23 M90.18 50.21 C68.86 32.91, 49.04 14.98, 30.56 -1.62 M90.18 50.21 C77.99 39.58, 65.99 29.05, 30.56 -1.62 M90.54 45.22 C76.41 31.49, 60.78 15.35, 36.96 -1.36 M90.54 45.22 C75.01 32.88, 60.02 18.65, 36.96 -1.36 M90.15 39.58 C75.67 28.67, 62.51 16.65, 43.35 -1.1 M90.15 39.58 C73.95 24.29, 57 10.94, 43.35 -1.1 M90.51 34.59 C77.69 23.65, 62.8 10.19, 49 -1.49 M90.51 34.59 C77.9 23.9, 66.67 14.49, 49 -1.49 M90.11 28.95 C78.4 18.6, 64.74 6.52, 55.4 -1.23 M90.11 28.95 C81.45 22.79, 73.55 15.95, 55.4 -1.23 M90.47 23.96 C80.87 14.37, 69.07 5.48, 61.04 -1.62 M90.47 23.96 C81.26 15.58, 71.76 8.52, 61.04 -1.62 M90.08 18.32 C81.97 12.44, 76.41 6.3, 67.44 -1.36 M90.08 18.32 C81.97 12.6, 74.46 4.94, 67.44 -1.36 M91.95 14.64 C87.28 10.16, 78.51 2.1, 73.08 -1.76 M91.95 14.64 C86.94 11.17, 83.57 8.12, 73.08 -1.76" stroke="#b2f2bb" stroke-width="0.5" fill="none"></path><path d="M17.53 0 C38.38 0.78, 59.01 -0.51, 71.83 0 M17.53 0 C37.19 -0.28, 56.66 0.82, 71.83 0 M71.83 0 C84.8 1.03, 87.9 5.83, 89.35 17.53 M71.83 0 C84.37 1.27, 88.52 4.83, 89.35 17.53 M89.35 17.53 C90.55 29.53, 91.32 41.8, 89.35 52.58 M89.35 17.53 C89.93 27.56, 88.45 37.72, 89.35 52.58 M89.35 52.58 C90.81 65, 83.7 69.53, 71.83 70.11 M89.35 52.58 C89.68 64.99, 82.88 69.5, 71.83 70.11 M71.83 70.11 C54.76 72.11, 34.93 71.54, 17.53 70.11 M71.83 70.11 C57.37 71.06, 45.08 71.27, 17.53 70.11 M17.53 70.11 C6.52 71.62, 1.45 66.12, 0 52.58 M17.53 70.11 C4.65 72.09, -1.04 65.08, 0 52.58 M0 52.58 C-1.68 45.01, -0.69 38.31, 0 17.53 M0 52.58 C-1.03 45.07, 0.18 37.29, 0 17.53 M0 17.53 C0.4 5.34, 5.11 1.16, 17.53 0 M0 17.53 C2.07 7.36, 5.8 0.24, 17.53 0" stroke="#1e1e1e" stroke-width="1" fill="none"></path></g><g transform="translate(16.32543110754682 135.58315707678025) rotate(0 40.41666793823242 20)"><text x="0" y="14.016" font-family="Virgil, Segoe UI Emoji" font-size="16px" fill="#1e1e1e" text-anchor="start" style="white-space: pre;" direction="ltr" dominant-baseline="alphabetic">Repository</text><text x="0" y="34.016" font-family="Virgil, Segoe UI Emoji" font-size="16px" fill="#1e1e1e" text-anchor="start" style="white-space: pre;" direction="ltr" dominant-baseline="alphabetic">Server</text></g><g stroke-linecap="round" transform="translate(207.40204944375296 117.22285057715135) rotate(0 40.55223194905079 41.239557914289094)"><path d="M6.81 35.07 C6.81 35.07, 6.81 35.07, 6.81 35.07 M6.81 35.07 C6.81 35.07, 6.81 35.07, 6.81 35.07 M4.58 43.73 C13.38 35.53, 19.96 28.89, 39.35 3.73 M4.58 43.73 C18.84 26.79, 32.14 10.82, 39.35 3.73 M6.95 47.11 C14 39.83, 20.28 30.55, 44.34 4.09 M6.95 47.11 C17.54 37.52, 25.87 26.28, 44.34 4.09 M9.31 50.49 C19.52 41.3, 27.69 30.53, 47.36 6.72 M9.31 50.49 C21.78 35.73, 34.73 21.72, 47.36 6.72 M11.67 53.87 C25.09 39.07, 37.76 22.71, 50.38 9.34 M11.67 53.87 C19.93 44.52, 28.42 36.07, 50.38 9.34 M14.69 56.5 C27.57 38.95, 43.7 23.04, 53.4 11.97 M14.69 56.5 C25.98 42.36, 37.84 30.12, 53.4 11.97 M17.71 59.12 C29.76 47.29, 40.6 32.99, 55.76 15.35 M17.71 59.12 C29.43 46.43, 39.24 33.12, 55.76 15.35 M20.73 61.74 C31.62 48.79, 44.76 33.28, 58.78 17.97 M20.73 61.74 C32.61 47.65, 44.21 33.59, 58.78 17.97 M23.09 65.12 C33.82 49.26, 48.43 33.95, 61.14 21.35 M23.09 65.12 C36.37 51.02, 47.52 35.62, 61.14 21.35 M26.11 67.75 C37.54 55.31, 48.01 40.37, 64.16 23.97 M26.11 67.75 C34.54 58.87, 42.55 48.45, 64.16 23.97 M29.13 70.37 C38.19 60.62, 48.87 47.38, 67.18 26.6 M29.13 70.37 C40.96 56.58, 53.38 42.26, 67.18 26.6 M32.15 73 C47.81 56.34, 59.28 38.17, 69.54 29.98 M32.15 73 C39.74 64.82, 47.31 54.44, 69.54 29.98 M35.17 75.62 C47.05 62.58, 56.77 53.92, 72.56 32.6 M35.17 75.62 C50.36 58.74, 65.61 42.39, 72.56 32.6 M37.53 79 C53.19 62.95, 66.96 48.63, 74.92 35.98 M37.53 79 C48.3 67.61, 57.97 56.32, 74.92 35.98 M41.86 80.11 C51.85 64.94, 63.85 55.09, 77.94 38.6 M41.86 80.11 C53.94 66.35, 64.49 53.64, 77.94 38.6 M36.91 77.95 C36.91 77.95, 36.91 77.95, 36.91 77.95 M36.91 77.95 C36.91 77.95, 36.91 77.95, 36.91 77.95 M43.31 78.21 C26.93 66.59, 13.76 50.99, 4.82 44.75 M43.31 78.21 C29.12 66.5, 15.1 53.66, 4.82 44.75 M46.69 75.85 C36.81 67.22, 25.12 57.86, 4.43 39.11 M46.69 75.85 C37.96 69.29, 29.12 61.42, 4.43 39.11 M50.07 73.49 C36.63 60.82, 24.87 53.27, 6.3 35.44 M50.07 73.49 C36.47 63.33, 25.45 51.21, 6.3 35.44 M52.69 70.47 C33.39 53.64, 18.99 40.27, 8.92 32.42 M52.69 70.47 C37.45 56.82, 23.12 44.78, 8.92 32.42 M55.32 67.45 C42.47 57.72, 30.31 46.38, 12.3 30.06 M55.32 67.45 C44.69 57.86, 32.44 48.65, 12.3 30.06 M58.7 65.09 C43.03 51.47, 29.16 36.81, 14.92 27.04 M58.7 65.09 C41.63 51.64, 24.97 37.18, 14.92 27.04 M61.32 62.07 C48.8 49.17, 34.57 38.74, 17.55 24.02 M61.32 62.07 C43.34 47.13, 25.92 32.54, 17.55 24.02 M63.94 59.05 C47.43 43.89, 31.26 32.46, 20.93 21.65 M63.94 59.05 C52.55 47.96, 41.02 38.27, 20.93 21.65 M66.57 56.03 C52.19 43.58, 36.49 29.47, 23.55 18.64 M66.57 56.03 C54.19 46.54, 41.38 35.79, 23.55 18.64 M69.95 53.67 C56.25 40.79, 44.63 32.38, 26.17 15.62 M69.95 53.67 C52.63 38.25, 36.18 24.35, 26.17 15.62 M72.57 50.65 C59.72 37.38, 46.89 26.66, 28.8 12.6 M72.57 50.65 C55.73 35.47, 38.23 21.72, 28.8 12.6 M74.44 46.97 C61.7 34.78, 46.78 21.9, 32.18 10.24 M74.44 46.97 C66.42 38.88, 56.31 31.49, 32.18 10.24 M77.07 43.96 C61.63 28.56, 43.85 17.43, 34.8 7.22 M77.07 43.96 C67.33 35, 58.2 27.24, 34.8 7.22 M78.18 39.63 C68.79 28.48, 54.2 20.48, 37.43 4.2 M78.18 39.63 C67.72 31.56, 57.67 21.99, 37.43 4.2 M57.41 16.27 C53.14 10.48, 46.22 5.12, 42.31 3.15 M57.41 16.27 C51.74 10.41, 45.75 5.69, 42.31 3.15" stroke="#ffec99" stroke-width="0.5" fill="none"></path><path d="M51.25 10.5 C55.03 16.27, 62.43 22.91, 70.85 31.5 M51.25 10.5 C58.36 18.43, 64.51 24.82, 70.85 31.5 M70.85 31.5 C82.06 43.38, 82.1 42.95, 70.85 52.5 M70.85 31.5 C80.88 43.99, 80.96 41.51, 70.85 52.5 M70.85 52.5 C66.71 55.87, 62.88 63.27, 51.25 71.98 M70.85 52.5 C64.42 59.31, 57.4 65.29, 51.25 71.98 M51.25 71.98 C41.47 82.51, 41.11 82.97, 30.75 71.98 M51.25 71.98 C43.27 80.45, 42.61 81.31, 30.75 71.98 M30.75 71.98 C26.99 68.18, 22.98 64.05, 10.25 52.5 M30.75 71.98 C22.39 65.72, 14.76 57.9, 10.25 52.5 M10.25 52.5 C-1.53 41.75, 1.29 40.27, 10.25 31.5 M10.25 52.5 C0.29 41.16, 1.59 40.23, 10.25 31.5 M10.25 31.5 C17.82 25.09, 25.02 17.51, 30.75 10.5 M10.25 31.5 C16.86 26.27, 21.57 19.95, 30.75 10.5 M30.75 10.5 C39.07 -0.25, 42.65 0.72, 51.25 10.5 M30.75 10.5 C39.09 -0.17, 39.56 -1.16, 51.25 10.5" stroke="#1e1e1e" stroke-width="1" fill="none"></path></g><g stroke-linecap="round" transform="translate(452.6932455670501 241.59164711574886) rotate(0 40.55223194905079 41.239557914289094)"><path d="M6.81 35.07 C6.81 35.07, 6.81 35.07, 6.81 35.07 M6.81 35.07 C6.81 35.07, 6.81 35.07, 6.81 35.07 M4.58 43.73 C16.35 32.95, 27.99 18.51, 39.35 3.73 M4.58 43.73 C16.34 29.25, 27.45 17.21, 39.35 3.73 M6.95 47.11 C16.23 35.33, 27.46 20.49, 44.34 4.09 M6.95 47.11 C15.97 36.28, 24.95 25.16, 44.34 4.09 M9.31 50.49 C20.96 37.88, 33.07 23.77, 47.36 6.72 M9.31 50.49 C21.11 37.62, 32.95 24.98, 47.36 6.72 M11.67 53.87 C21.05 42.11, 30.66 28.46, 50.38 9.34 M11.67 53.87 C27.44 37.16, 42.16 19.77, 50.38 9.34 M14.69 56.5 C27.32 42.59, 39.73 27.12, 53.4 11.97 M14.69 56.5 C27.13 42.82, 40.7 27.33, 53.4 11.97 M17.71 59.12 C26.08 49.11, 34.3 40.56, 55.76 15.35 M17.71 59.12 C25.01 49.1, 33.58 41.31, 55.76 15.35 M20.73 61.74 C36.59 43.34, 50.69 26.44, 58.78 17.97 M20.73 61.74 C29.82 50.04, 40.25 40.51, 58.78 17.97 M23.09 65.12 C32.64 52.86, 42.84 44.96, 61.14 21.35 M23.09 65.12 C34.3 50.54, 46.97 36.84, 61.14 21.35 M26.11 67.75 C34.26 55.8, 42.7 47.21, 64.16 23.97 M26.11 67.75 C35.09 56.67, 45.2 45.26, 64.16 23.97 M29.13 70.37 C38.72 58.82, 45.9 51.75, 67.18 26.6 M29.13 70.37 C43.91 53.46, 57.82 37.67, 67.18 26.6 M32.15 73 C39.35 60.42, 48.62 53.33, 69.54 29.98 M32.15 73 C44.44 57.84, 56.2 43.98, 69.54 29.98 M35.17 75.62 C50.76 60.71, 65.55 41.09, 72.56 32.6 M35.17 75.62 C47.1 63.21, 57.92 49.25, 72.56 32.6 M37.53 79 C48.93 68.53, 57.95 56, 74.92 35.98 M37.53 79 C45.51 70.24, 53.56 60.3, 74.92 35.98 M41.86 80.11 C54.46 66.8, 69.57 48.88, 77.94 38.6 M41.86 80.11 C52.85 66.94, 64.53 53.46, 77.94 38.6 M36.91 77.95 C36.91 77.95, 36.91 77.95, 36.91 77.95 M36.91 77.95 C36.91 77.95, 36.91 77.95, 36.91 77.95 M43.31 78.21 C31.44 66.11, 20.28 57.91, 4.82 44.75 M43.31 78.21 C33.66 70.23, 22.62 60.07, 4.82 44.75 M46.69 75.85 C31.39 63.66, 11.45 48.38, 4.43 39.11 M46.69 75.85 C32.38 64.37, 17.69 51.55, 4.43 39.11 M50.07 73.49 C33.61 59.86, 15.09 43.69, 6.3 35.44 M50.07 73.49 C35.26 59.23, 20.08 47.45, 6.3 35.44 M52.69 70.47 C42.71 60.1, 30.63 47.87, 8.92 32.42 M52.69 70.47 C38.63 58.03, 23.42 43.91, 8.92 32.42 M55.32 67.45 C40.83 55.74, 26.3 44.21, 12.3 30.06 M55.32 67.45 C42.8 57.79, 32.53 48.04, 12.3 30.06 M58.7 65.09 C49.99 54.96, 41.39 47.83, 14.92 27.04 M58.7 65.09 C44.2 54.07, 31.11 41.41, 14.92 27.04 M61.32 62.07 C44.17 46.39, 30.21 33.56, 17.55 24.02 M61.32 62.07 C51.5 55.02, 44.04 46.55, 17.55 24.02 M63.94 59.05 C47.2 45.49, 31.99 32.95, 20.93 21.65 M63.94 59.05 C55.24 50.69, 45.57 42.79, 20.93 21.65 M66.57 56.03 C49.53 40.48, 33.84 26.92, 23.55 18.64 M66.57 56.03 C50.01 43.4, 35.26 29.69, 23.55 18.64 M69.95 53.67 C56.95 42.35, 43.66 30.79, 26.17 15.62 M69.95 53.67 C59.88 44.51, 50.56 35.77, 26.17 15.62 M72.57 50.65 C58.3 36.21, 43.79 22.38, 28.8 12.6 M72.57 50.65 C58.73 39.46, 47.15 27.44, 28.8 12.6 M74.44 46.97 C60.14 33.68, 42.39 20.45, 32.18 10.24 M74.44 46.97 C64.61 39.36, 56.85 31.91, 32.18 10.24 M77.07 43.96 C63.36 33.96, 51.48 21.1, 34.8 7.22 M77.07 43.96 C62.95 30.92, 49.12 18.62, 34.8 7.22 M78.18 39.63 C67.29 32.45, 58.12 21.53, 37.43 4.2 M78.18 39.63 C65.28 29.07, 52.75 16.57, 37.43 4.2 M57.41 16.27 C52.13 10.26, 48.51 6.05, 42.31 3.15 M57.41 16.27 C52.09 11.06, 46.03 5.54, 42.31 3.15" stroke="#ffec99" stroke-width="0.5" fill="none"></path><path d="M51.25 10.5 C58.21 18.39, 64.49 22.25, 70.85 31.5 M51.25 10.5 C56.84 16.24, 63.56 23.67, 70.85 31.5 M70.85 31.5 C82.1 42.95, 80.91 43.73, 70.85 52.5 M70.85 31.5 C80.96 41.51, 79.61 41.37, 70.85 52.5 M70.85 52.5 C64.74 61.23, 56.73 67.36, 51.25 71.98 M70.85 52.5 C65.29 57.58, 60.49 63.14, 51.25 71.98 M51.25 71.98 C41.11 82.97, 42.97 80.71, 30.75 71.98 M51.25 71.98 C42.61 81.31, 39.07 84.7, 30.75 71.98 M30.75 71.98 C27.7 68.69, 23.69 65.43, 10.25 52.5 M30.75 71.98 C22.34 64.85, 13.97 56.72, 10.25 52.5 M10.25 52.5 C1.29 40.27, 0.25 41.27, 10.25 31.5 M10.25 52.5 C1.59 40.23, 1.08 43.61, 10.25 31.5 M10.25 31.5 C15.26 27.35, 18.42 21.74, 30.75 10.5 M10.25 31.5 C17.38 23.95, 23.77 16.2, 30.75 10.5 M30.75 10.5 C42.65 0.72, 39.34 -0.15, 51.25 10.5 M30.75 10.5 C39.56 -1.16, 42.52 -2.11, 51.25 10.5" stroke="#1e1e1e" stroke-width="1" fill="none"></path></g><g stroke-linecap="round" transform="translate(205.34007154803817 352.2883306885992) rotate(0 40.55223194905079 41.239557914289094)"><path d="M6.81 35.07 C6.81 35.07, 6.81 35.07, 6.81 35.07 M6.81 35.07 C6.81 35.07, 6.81 35.07, 6.81 35.07 M4.58 43.73 C16.96 31.06, 26.6 19.72, 39.35 3.73 M4.58 43.73 C10.95 36.45, 19.1 27.17, 39.35 3.73 M6.95 47.11 C20.09 29.39, 34.02 16.94, 44.34 4.09 M6.95 47.11 C21.21 30.15, 36.71 13.42, 44.34 4.09 M9.31 50.49 C23.86 34.65, 37.25 18.02, 47.36 6.72 M9.31 50.49 C20.36 39.11, 30.1 26.02, 47.36 6.72 M11.67 53.87 C23.43 37.16, 40.61 23.2, 50.38 9.34 M11.67 53.87 C23.35 40.85, 34.1 26.83, 50.38 9.34 M14.69 56.5 C24.82 43.72, 35.37 31.83, 52.74 12.72 M14.69 56.5 C24.81 45.06, 33.8 33.98, 52.74 12.72 M17.71 59.12 C30.93 44.81, 42.76 30.02, 55.76 15.35 M17.71 59.12 C28.39 48.14, 39.63 35.19, 55.76 15.35 M20.07 62.5 C33.34 46.43, 45.32 31.82, 58.78 17.97 M20.07 62.5 C29.95 52.66, 38.29 40.59, 58.78 17.97 M23.09 65.12 C32.8 56.16, 41.61 46.49, 61.14 21.35 M23.09 65.12 C36.51 49.95, 49.09 34.92, 61.14 21.35 M26.11 67.75 C37 54.34, 49.71 39.7, 64.16 23.97 M26.11 67.75 C41.01 50.58, 55.81 32.83, 64.16 23.97 M29.13 70.37 C41.45 57, 55.05 42.57, 66.52 27.35 M29.13 70.37 C40.67 57.36, 50.41 45.69, 66.52 27.35 M32.15 73 C41.29 62.8, 54.36 49.44, 69.54 29.98 M32.15 73 C45.82 56.55, 61.11 41.75, 69.54 29.98 M35.17 75.62 C45.48 63.71, 52.46 55.61, 72.56 32.6 M35.17 75.62 C46.2 62.24, 56.02 51.49, 72.56 32.6 M38.18 78.24 C48.4 66.71, 58.21 54.36, 74.92 35.98 M38.18 78.24 C49.62 64.95, 61.47 51.16, 74.92 35.98 M41.86 80.11 C50.36 70.25, 58.32 62.59, 77.29 39.36 M41.86 80.11 C50.68 69.65, 60.11 59.47, 77.29 39.36 M36.91 77.95 C36.91 77.95, 36.91 77.95, 36.91 77.95 M36.91 77.95 C36.91 77.95, 36.91 77.95, 36.91 77.95 M42.56 77.56 C32.91 68.65, 19.68 58.71, 11.61 50.66 M42.56 77.56 C30.12 66.46, 19.23 57.55, 11.61 50.66 M46.69 75.85 C29.45 64.19, 16.99 50.49, 4.43 39.11 M46.69 75.85 C30.05 62.18, 14.55 47.26, 4.43 39.11 M49.31 72.83 C40.06 66.39, 32.71 56, 7.05 36.09 M49.31 72.83 C35.59 60.87, 19.78 46.47, 7.05 36.09 M52.69 70.47 C43.74 60.14, 33.87 52.89, 8.92 32.42 M52.69 70.47 C41.9 60.77, 31.79 52.07, 8.92 32.42 M55.32 67.45 C39.34 55.46, 24.46 42.19, 11.54 29.4 M55.32 67.45 C42.72 56.6, 28.13 44.2, 11.54 29.4 M57.94 64.43 C46.93 52.49, 33.32 41.03, 14.92 27.04 M57.94 64.43 C41.77 50.58, 26.08 36.4, 14.92 27.04 M61.32 62.07 C54.31 54.51, 41.66 44.78, 17.55 24.02 M61.32 62.07 C47.55 49.66, 32.74 36.28, 17.55 24.02 M63.94 59.05 C54.31 52.77, 43.88 44.27, 20.17 21 M63.94 59.05 C53.3 49.78, 42.93 40.49, 20.17 21 M66.57 56.03 C53.64 43.65, 42.53 32.8, 23.55 18.64 M66.57 56.03 C50.47 42.64, 34.25 27.49, 23.55 18.64 M69.95 53.67 C61.87 47.47, 49.36 36.54, 26.17 15.62 M69.95 53.67 C60.29 44.44, 50.8 36.54, 26.17 15.62 M72.57 50.65 C64.86 41.01, 53.9 33.87, 28.8 12.6 M72.57 50.65 C62.61 41.03, 52.01 32.86, 28.8 12.6 M75.2 47.63 C60.12 35.7, 47.13 26.28, 32.18 10.24 M75.2 47.63 C63.41 37.34, 49.85 25.9, 32.18 10.24 M77.07 43.96 C66.75 34.56, 59.85 27.09, 34.8 7.22 M77.07 43.96 C68.18 35.46, 58.83 29.35, 34.8 7.22 M79.69 40.94 C68.12 30.17, 58.52 21.71, 37.43 4.2 M79.69 40.94 C63.74 26.08, 46.82 12.83, 37.43 4.2 M79.3 35.29 C71.39 25.72, 61 18.54, 40.81 1.84 M79.3 35.29 C70.34 26.76, 62.61 20.55, 40.81 1.84" stroke="#ffec99" stroke-width="0.5" fill="none"></path><path d="M51.25 10.5 C58.48 15.46, 63.55 24.2, 70.85 31.5 M51.25 10.5 C58.62 18.74, 65.6 25.98, 70.85 31.5 M70.85 31.5 C80.91 43.73, 80.98 41.58, 70.85 52.5 M70.85 31.5 C79.61 41.37, 82.95 42.59, 70.85 52.5 M70.85 52.5 C67.16 57.35, 61.3 61.97, 51.25 71.98 M70.85 52.5 C64.54 58.92, 57.86 65.6, 51.25 71.98 M51.25 71.98 C42.97 80.71, 42.4 81.46, 30.75 71.98 M51.25 71.98 C39.07 84.7, 38.86 83.47, 30.75 71.98 M30.75 71.98 C25.37 67.07, 18.96 58.15, 10.25 52.5 M30.75 71.98 C22.15 64.4, 15.65 56.14, 10.25 52.5 M10.25 52.5 C0.25 41.27, 1.38 40.46, 10.25 31.5 M10.25 52.5 C1.08 43.61, -2 42.7, 10.25 31.5 M10.25 31.5 C16.53 23.7, 25.06 19.21, 30.75 10.5 M10.25 31.5 C16.79 23.66, 26.09 16.46, 30.75 10.5 M30.75 10.5 C39.34 -0.15, 39.75 -1.01, 51.25 10.5 M30.75 10.5 C42.52 -2.11, 42.44 0.88, 51.25 10.5" stroke="#1e1e1e" stroke-width="1" fill="none"></path></g><g stroke-linecap="round"><g transform="translate(184.03296662565594 155.71310463048803) rotate(0 13.470052660027363 0.05064373865843663)"><path d="M0.21 0.3 C4.82 0.26, 22.7 -0.25, 27.29 -0.24 M-0.35 -0.02 C4.21 0.02, 22.11 0.41, 26.76 0.33" stroke="#1e1e1e" stroke-width="1" fill="none"></path></g><g transform="translate(184.03296662565594 155.71310463048803) rotate(0 13.470052660027363 0.05064373865843663)"><path d="M13.82 4.97 C17.14 3.64, 19.4 3.17, 26.76 0.33 M13.82 4.97 C18.55 3.53, 23.34 1.44, 26.76 0.33" stroke="#1e1e1e" stroke-width="1" fill="none"></path></g><g transform="translate(184.03296662565594 155.71310463048803) rotate(0 13.470052660027363 0.05064373865843663)"><path d="M13.86 -4.43 C17.17 -3.62, 19.42 -1.96, 26.76 0.33 M13.86 -4.43 C18.6 -2.41, 23.37 -1.02, 26.76 0.33" stroke="#1e1e1e" stroke-width="1" fill="none"></path></g></g><mask></mask><g stroke-linecap="round"><g transform="translate(188.03550846947905 390.8545930668008) rotate(0 13.751976533302809 -0.08482175334711428)"><path d="M0.26 0.38 C4.93 0.46, 23.24 0.25, 27.77 0.26 M-0.26 0.1 C4.37 0.04, 22.92 -0.49, 27.48 -0.57" stroke="#1e1e1e" stroke-width="1" fill="none"></path></g><g transform="translate(188.03550846947905 390.8545930668008) rotate(0 13.751976533302809 -0.08482175334711428)"><path d="M14.67 4.43 C18.54 3.43, 21.76 1.7, 27.48 -0.57 M14.67 4.43 C19.4 2.42, 24.85 0.67, 27.48 -0.57" stroke="#1e1e1e" stroke-width="1" fill="none"></path></g><g transform="translate(188.03550846947905 390.8545930668008) rotate(0 13.751976533302809 -0.08482175334711428)"><path d="M14.45 -4.97 C18.35 -3.5, 21.64 -2.75, 27.48 -0.57 M14.45 -4.97 C19.26 -3.35, 24.79 -1.47, 27.48 -0.57" stroke="#1e1e1e" stroke-width="1" fill="none"></path></g></g><mask></mask><g stroke-linecap="round"><g transform="translate(267.8867343847103 394.9025405333646) rotate(0 28.840504233054503 2.549081181659858)"><path d="M-0.08 -0.25 C9.44 0.43, 47.16 4.16, 56.95 5.17 M-1.57 -1.43 C8.33 -0.05, 49.25 5.08, 59.26 6.53" stroke="#1e1e1e" stroke-width="1" fill="none"></path></g><g transform="translate(267.8867343847103 394.9025405333646) rotate(0 28.840504233054503 2.549081181659858)"><path d="M34.84 11.89 C41.45 9.05, 48.4 10.4, 59.26 6.53 M34.84 11.89 C43.56 10.35, 50.88 7.95, 59.26 6.53" stroke="#1e1e1e" stroke-width="1" fill="none"></path></g><g transform="translate(267.8867343847103 394.9025405333646) rotate(0 28.840504233054503 2.549081181659858)"><path d="M37.11 -5.06 C43.21 -2.99, 49.5 3.28, 59.26 6.53 M37.11 -5.06 C44.98 -1.06, 51.55 2.06, 59.26 6.53" stroke="#1e1e1e" stroke-width="1" fill="none"></path></g></g><mask></mask><g stroke-linecap="round" transform="translate(69.93685639612318 103.4763312723885) rotate(0 195.8879000928731 51.54944739286134)"><path d="M25.77 0 C125.32 2.54, 225.95 0.57, 366 0 M25.77 0 C149.78 -1.02, 273.75 -0.62, 366 0 M366 0 C382.63 -0.53, 392.24 8.63, 391.78 25.77 M366 0 C383.31 0.57, 394.05 6.56, 391.78 25.77 M391.78 25.77 C393.44 42.99, 392.38 64.53, 391.78 77.32 M391.78 25.77 C392.68 45.46, 391.43 64.15, 391.78 77.32 M391.78 77.32 C390.87 95.21, 381.65 102.85, 366 103.1 M391.78 77.32 C393.26 92.52, 383.47 102.26, 366 103.1 M366 103.1 C241.36 103, 115.26 104.62, 25.77 103.1 M366 103.1 C251.77 102.91, 138.62 102.97, 25.77 103.1 M25.77 103.1 C8.56 103.31, -1.93 94.26, 0 77.32 M25.77 103.1 C10.49 103.92, -1.91 94.34, 0 77.32 M0 77.32 C-1.57 66.34, 1.03 52.16, 0 25.77 M0 77.32 C-0.62 65.69, 0.46 53.88, 0 25.77 M0 25.77 C1.12 7.74, 7.15 -1.85, 25.77 0 M0 25.77 C1.51 8.91, 10.72 0.16, 25.77 0" stroke="#1e1e1e" stroke-width="1" fill="none"></path></g><g stroke-linecap="round" transform="translate(319.16390817961155 221.70420729548346) rotate(0 195.8879000928731 56.360729149528424)"><path d="M28.18 0 C107.32 -2.73, 186.62 -0.83, 363.6 0 M28.18 0 C141.19 0.87, 253.83 0.48, 363.6 0 M363.6 0 C382.85 0.04, 391.88 9.89, 391.78 28.18 M363.6 0 C384.65 -2.03, 393.39 8.22, 391.78 28.18 M391.78 28.18 C393.18 40.96, 393.6 53.22, 391.78 84.54 M391.78 28.18 C391.67 50.2, 391.73 70.85, 391.78 84.54 M391.78 84.54 C390.24 103.08, 383.67 110.99, 363.6 112.72 M391.78 84.54 C392.07 102.49, 383.97 110.95, 363.6 112.72 M363.6 112.72 C247.7 111.23, 131.45 111.03, 28.18 112.72 M363.6 112.72 C272.05 114.48, 179.27 114.1, 28.18 112.72 M28.18 112.72 C7.46 112.47, 1.65 104.04, 0 84.54 M28.18 112.72 C7.48 112.55, -1.44 102.17, 0 84.54 M0 84.54 C1.29 63.2, -0.84 41.97, 0 28.18 M0 84.54 C0.67 64.65, 1.09 43.32, 0 28.18 M0 28.18 C-1.44 7.54, 10.71 0.28, 28.18 0 M0 28.18 C2.13 9.56, 10.79 2.07, 28.18 0" stroke="#1e1e1e" stroke-width="1" fill="none"></path></g><g stroke-linecap="round" transform="translate(67.87487850040793 334.41785559240725) rotate(0 195.8879000928731 63.92131476714815)"><path d="M31.96 0 C157.49 2.53, 281.75 1.66, 359.82 0 M31.96 0 C120.63 -0.89, 209.84 -0.69, 359.82 0 M359.82 0 C381.23 0.49, 393.75 8.89, 391.78 31.96 M359.82 0 C382.73 -1.17, 389.85 12.87, 391.78 31.96 M391.78 31.96 C393.33 45.87, 393.56 59.87, 391.78 95.88 M391.78 31.96 C390.99 57.43, 390.68 82.08, 391.78 95.88 M391.78 95.88 C393.07 115.46, 381.37 127.11, 359.82 127.84 M391.78 95.88 C393.37 115.42, 382.2 129.46, 359.82 127.84 M359.82 127.84 C290.4 128.9, 219.67 128.12, 31.96 127.84 M359.82 127.84 C242.44 129.4, 124.43 129.25, 31.96 127.84 M31.96 127.84 C12.3 128.56, -1.66 117.04, 0 95.88 M31.96 127.84 C9.21 126.68, 1.52 115.08, 0 95.88 M0 95.88 C-1.6 71.42, 0.99 47.63, 0 31.96 M0 95.88 C0.48 74.06, -0.8 52.16, 0 31.96 M0 31.96 C1.31 10.93, 12.5 0.14, 31.96 0 M0 31.96 C1.4 12.73, 12.89 -0.09, 31.96 0" stroke="#1e1e1e" stroke-width="1" fill="none"></path></g><g stroke-linecap="round" transform="translate(305.0023365075733 10) rotate(0 72.02752405737488 259.12188889478307)"><path d="M32 0 C51.31 -0.4, 68.58 -0.3, 112.06 0 M112.06 0 C134.02 -0.55, 143.53 11.14, 144.06 32 M144.06 32 C145.11 168.24, 144.84 305.68, 144.06 486.24 M144.06 486.24 C142.38 509.51, 131.53 519.11, 112.06 518.24 M112.06 518.24 C87.15 519.97, 61.08 517.48, 32 518.24 M32 518.24 C12.39 517.34, 0.7 506.04, 0 486.24 M0 486.24 C-1.28 355.29, -0.74 224.29, 0 32 M0 32 C0.94 12.07, 8.93 0.61, 32 0" stroke="#1e1e1e" stroke-width="1.5" fill="none" stroke-dasharray="1.5 7"></path></g><g transform="translate(350.97096720892273 31.722824878341044) rotate(0 18.816667556762695 10)"><text x="0" y="14.016" font-family="Virgil, Segoe UI Emoji" font-size="16px" fill="#1e1e1e" text-anchor="start" style="white-space: pre;" direction="ltr" dominant-baseline="alphabetic">Mesh</text></g><g transform="translate(43.818469717078415 117.22285057715135) rotate(0 18.433332443237305 10)"><text x="0" y="14.016" font-family="Virgil, Segoe UI Emoji" font-size="16px" fill="#1e1e1e" text-anchor="start" style="white-space: pre;" direction="ltr" dominant-baseline="alphabetic">Farm</text></g><g transform="translate(729.4119735566944 263.54740153825014) rotate(0 17.96666717529297 10)"><text x="0" y="14.016" font-family="Virgil, Segoe UI Emoji" font-size="16px" fill="#1e1e1e" text-anchor="start" style="white-space: pre;" direction="ltr" dominant-baseline="alphabetic">Coop</text></g><g transform="translate(39.59832184654874 364.2827615762201) rotate(0 12.516666412353516 10)"><text x="0" y="14.016" font-family="Virgil, Segoe UI Emoji" font-size="16px" fill="#1e1e1e" text-anchor="start" style="white-space: pre;" direction="ltr" dominant-baseline="alphabetic">Hen</text></g><g stroke-linecap="round"><g transform="translate(290.20303076592313 158.27092421097132) rotate(0 16.700124647285406 -0.1679184374884244)"><path d="M-0.51 -0.11 C5.13 -0.04, 28.21 0.27, 33.91 0.32 M0.23 -0.65 C5.81 -0.72, 28.11 -0.47, 33.63 -0.48" stroke="#1e1e1e" stroke-width="1" fill="none"></path></g><g transform="translate(290.20303076592313 158.27092421097132) rotate(0 16.700124647285406 -0.1679184374884244)"><path d="M17.8 5.19 C22.67 3.9, 28.37 1.72, 33.63 -0.48 M17.8 5.19 C23.21 3.43, 28.35 1.57, 33.63 -0.48" stroke="#1e1e1e" stroke-width="1" fill="none"></path></g><g transform="translate(290.20303076592313 158.27092421097132) rotate(0 16.700124647285406 -0.1679184374884244)"><path d="M17.86 -6.31 C22.7 -3.94, 28.38 -2.46, 33.63 -0.48 M17.86 -6.31 C23.25 -4.13, 28.38 -2.04, 33.63 -0.48" stroke="#1e1e1e" stroke-width="1" fill="none"></path></g></g><mask></mask><g stroke-linecap="round"><g transform="translate(576.8848815267047 287.454721158731) rotate(0 -21.918790650310825 0.13305450221594128)"><path d="M-0.43 -0.02 C-7.69 -0.09, -36.55 0.01, -43.62 0.04 M0.35 -0.5 C-7 -0.25, -36.97 0.82, -44.19 0.77" stroke="#1e1e1e" stroke-width="1" fill="none"></path></g><g transform="translate(576.8848815267047 287.454721158731) rotate(0 -21.918790650310825 0.13305450221594128)"><path d="M-23.95 -7.01 C-29.81 -5.32, -35.56 -1.66, -44.19 0.77 M-23.95 -7.01 C-30.98 -4.06, -37.41 -1.87, -44.19 0.77" stroke="#1e1e1e" stroke-width="1" fill="none"></path></g><g transform="translate(576.8848815267047 287.454721158731) rotate(0 -21.918790650310825 0.13305450221594128)"><path d="M-23.69 7.82 C-29.69 5.21, -35.52 4.58, -44.19 0.77 M-23.69 7.82 C-30.73 5.85, -37.25 3.12, -44.19 0.77" stroke="#1e1e1e" stroke-width="1" fill="none"></path></g></g><mask></mask><g stroke-linecap="round"><g transform="translate(450.35554616006334 283.91543905057324) rotate(0 -14.756430703727915 -0.4606874464154771)"><path d="M0.42 -0.03 C-4.57 -0.14, -24.53 -0.71, -29.7 -0.89 M-0.02 -0.52 C-5.08 -0.52, -25.02 -0.18, -29.94 -0.2" stroke="#1e1e1e" stroke-width="1" fill="none"></path></g><g transform="translate(450.35554616006334 283.91543905057324) rotate(0 -14.756430703727915 -0.4606874464154771)"><path d="M-15.84 -5.46 C-20.81 -3.04, -25.7 -2.41, -29.94 -0.2 M-15.84 -5.46 C-19.53 -4.19, -22.9 -2.5, -29.94 -0.2" stroke="#1e1e1e" stroke-width="1" fill="none"></path></g><g transform="translate(450.35554616006334 283.91543905057324) rotate(0 -14.756430703727915 -0.4606874464154771)"><path d="M-15.76 4.84 C-20.74 3.66, -25.66 0.69, -29.94 -0.2 M-15.76 4.84 C-19.52 3.48, -22.91 2.53, -29.94 -0.2" stroke="#1e1e1e" stroke-width="1" fill="none"></path></g></g><mask></mask><g transform="translate(10 393.0992359983318) rotate(0 40.41666793823242 20)"><text x="0" y="14.016" font-family="Virgil, Segoe UI Emoji" font-size="16px" fill="#1e1e1e" text-anchor="start" style="white-space: pre;" direction="ltr" dominant-baseline="alphabetic">Repository</text><text x="0" y="34.016" font-family="Virgil, Segoe UI Emoji" font-size="16px" fill="#1e1e1e" text-anchor="start" style="white-space: pre;" direction="ltr" dominant-baseline="alphabetic">Server</text></g><g transform="translate(717.8564216315592 292.2296959158348) rotate(0 40.41666793823242 20)"><text x="0" y="14.016" font-family="Virgil, Segoe UI Emoji" font-size="16px" fill="#1e1e1e" text-anchor="start" style="white-space: pre;" direction="ltr" dominant-baseline="alphabetic">Repository</text><text x="0" y="34.016" font-family="Virgil, Segoe UI Emoji" font-size="16px" fill="#1e1e1e" text-anchor="start" style="white-space: pre;" direction="ltr" dominant-baseline="alphabetic">Server</text></g></svg>