<svg version="1.1" xmlns="http://www.w3.org/2000/svg" viewBox="0 0 490.1858907782548 123.09889478572268" width="980.3717815565096" height="246.19778957144536">
  <!-- svg-source:excalidraw -->
  
  <defs>
    <style class="style-fonts">
      @font-face {
        font-family: "Virgil";
        src: url("https://excalidraw.com/Virgil.woff2");
      }
      @font-face {
        font-family: "Cascadia";
        src: url("https://excalidraw.com/Cascadia.woff2");
      }
      @font-face {
        font-family: "Assistant";
        src: url("https://app.excalidraw.com//dist/excalidraw-assets/Assistant-Regular.woff2");
      }
    </style>
    
  </defs>
  <rect x="0" y="0" width="490.1858907782548" height="123.09889478572268" fill="#ffffff"></rect><g stroke-linecap="round" transform="translate(120.02708499346318 19.62256351333417) rotate(0 37.80292808809827 43.30153581000354)"><path d="M9.33 14.74 C9.33 14.74, 9.33 14.74, 9.33 14.74 M9.33 14.74 C9.33 14.74, 9.33 14.74, 9.33 14.74 M4.48 26.42 C9.58 20.71, 18.09 11.34, 26.78 0.76 M4.48 26.42 C11.31 19.67, 16.74 13.09, 26.78 0.76 M0.28 37.34 C11.39 23.55, 22.84 11.78, 31.77 1.12 M0.28 37.34 C9.63 27.05, 20.01 15.82, 31.77 1.12 M1.33 42.23 C10.46 31.38, 21.95 17.31, 36.76 1.48 M1.33 42.23 C12.46 29.87, 24.2 16.42, 36.76 1.48 M2.38 47.12 C12.98 35.56, 23.32 22.05, 41.75 1.84 M2.38 47.12 C11.56 36.06, 20 27.04, 41.75 1.84 M2.78 52.76 C16.43 33.98, 31.25 20.04, 46.73 2.2 M2.78 52.76 C16.14 37.74, 28.68 21.71, 46.73 2.2 M3.83 57.65 C22.51 37.31, 36.88 19.12, 51.06 3.31 M3.83 57.65 C15.73 42.82, 29.71 29.06, 51.06 3.31 M5.53 61.79 C18.03 48.31, 31.78 33.58, 54.08 5.94 M5.53 61.79 C23.92 39.61, 42.76 19.12, 54.08 5.94 M7.9 65.17 C23.48 45, 42.21 26.93, 57.1 8.56 M7.9 65.17 C25.68 45.83, 41.19 26.2, 57.1 8.56 M9.6 69.3 C19.29 59.5, 28.99 45.35, 60.12 11.19 M9.6 69.3 C28.03 47.11, 48.88 24.91, 60.12 11.19 M11.97 72.68 C24.99 59.78, 36.01 43.09, 63.8 13.06 M11.97 72.68 C29.89 51.7, 48.38 29.91, 63.8 13.06 M14.33 76.06 C31.28 57.35, 50.96 34.98, 66.16 16.43 M14.33 76.06 C26.27 62.71, 36.71 50.18, 66.16 16.43 M16.69 79.44 C29.66 64.79, 41.8 52.88, 68.52 19.81 M16.69 79.44 C34.56 59.2, 51.56 38.37, 68.52 19.81 M19.71 82.06 C39.69 62.21, 54.14 39.13, 70.23 23.95 M19.71 82.06 C31.82 67.58, 44.03 54.43, 70.23 23.95 M24.04 83.17 C41.62 62.39, 55.66 43.36, 71.93 28.08 M24.04 83.17 C41.69 62.45, 59.26 42.7, 71.93 28.08 M28.37 84.29 C36.87 72.61, 46.79 61.28, 73.64 32.21 M28.37 84.29 C41.96 67.31, 56.29 52.09, 73.64 32.21 M32.7 85.4 C45.04 67.33, 61.75 51.46, 75.35 36.35 M32.7 85.4 C41.86 75.1, 50.64 62.9, 75.35 36.35 M36.38 87.27 C48.77 73.54, 59.94 58.66, 75.74 41.99 M36.38 87.27 C49.6 70.05, 64.79 55.19, 75.74 41.99 M42.68 86.12 C52.01 74.51, 63.14 60.71, 74.82 49.14 M42.68 86.12 C51.15 74.83, 60.72 65.07, 74.82 49.14 M50.95 82.71 C59.46 72.54, 69.28 62.47, 73.25 57.05 M50.95 82.71 C58.55 74.42, 66.65 65.3, 73.25 57.05 M17.37 80.62 C17.37 80.62, 17.37 80.62, 17.37 80.62 M17.37 80.62 C17.37 80.62, 17.37 80.62, 17.37 80.62 M26.78 83.51 C21.36 80.47, 18.32 76.54, 9.43 68.42 M26.78 83.51 C22.36 79.1, 19.35 75.93, 9.43 68.42 M36.2 86.39 C27.09 80.69, 18.21 70.08, 4.5 58.84 M36.2 86.39 C24.37 76.62, 11.65 65.51, 4.5 58.84 M41.84 86 C28.25 75.98, 19.62 65.75, 3.35 52.54 M41.84 86 C28.39 75.28, 15.63 64.16, 3.35 52.54 M45.98 84.29 C34.02 75.72, 22.75 65.1, 2.2 46.24 M45.98 84.29 C35.19 73.72, 22.6 64.24, 2.2 46.24 M50.11 82.59 C34.02 67.6, 13.26 50.86, 1.81 40.6 M50.11 82.59 C38.19 73.58, 28.54 63.05, 1.81 40.6 M54.24 80.88 C33.5 66.55, 15.37 49.28, 1.41 34.96 M54.24 80.88 C33.6 62.99, 13.43 44.19, 1.41 34.96 M58.38 79.17 C45.49 69.22, 34.45 55.42, 2.53 30.62 M58.38 79.17 C40.37 64.86, 23.88 49.44, 2.53 30.62 M61 76.15 C41.74 61.01, 25.21 46.42, 4.4 26.95 M61 76.15 C50.75 66.68, 39.41 57.21, 4.4 26.95 M62.87 72.48 C50.2 60.14, 38.73 51.46, 6.27 23.27 M62.87 72.48 C46.34 58.88, 31.19 43.33, 6.27 23.27 M65.5 69.46 C50.79 56.89, 40.79 47.76, 7.38 18.94 M65.5 69.46 C47.97 55.14, 30.68 40.09, 7.38 18.94 M68.12 66.44 C52.61 53.48, 34.56 38.42, 9.25 15.27 M68.12 66.44 C49.64 49.26, 29.41 33.5, 9.25 15.27 M69.99 62.77 C57.97 53.38, 45.04 43.68, 11.88 12.25 M69.99 62.77 C54.66 50.96, 41.11 38.1, 11.88 12.25 M72.61 59.75 C56.18 44.03, 41.62 32.92, 15.26 9.89 M72.61 59.75 C55.56 45.82, 38.2 30.98, 15.26 9.89 M72.97 54.76 C59.37 42.36, 46 30.51, 18.63 7.52 M72.97 54.76 C59.94 42.91, 47.45 32.03, 18.63 7.52 M74.09 50.43 C57.86 38.25, 43.74 23.28, 21.26 4.51 M74.09 50.43 C58.49 35.9, 43.27 23.67, 21.26 4.51 M74.45 45.44 C63.78 36.27, 52.5 24.44, 24.64 2.14 M74.45 45.44 C65.08 35.94, 54.83 27.61, 24.64 2.14 M75.56 41.11 C59.67 27.45, 41.89 14.54, 29.53 1.09 M75.56 41.11 C59.87 27.01, 44.16 13.37, 29.53 1.09 M75.17 35.47 C63.94 26.25, 51.15 15.77, 35.92 1.35 M75.17 35.47 C65.85 26.07, 55.11 18.73, 35.92 1.35 M71 26.54 C62.82 18.6, 58.14 15.74, 42.32 1.61 M71 26.54 C62.57 17.44, 53.03 10.82, 42.32 1.61 M67.59 18.28 C60.24 13.11, 56.98 7.31, 48.72 1.88 M67.59 18.28 C62.46 12.48, 55.36 7.69, 48.72 1.88" stroke="#a5d8ff" stroke-width="0.5" fill="none"></path><path d="M48.94 1.76 C55.25 3.26, 61.42 9.12, 65.95 15.11 C70.48 21.1, 75.11 30.08, 76.13 37.67 C77.15 45.26, 75.06 53.66, 72.07 60.64 C69.07 67.62, 63.71 75.11, 58.15 79.55 C52.6 84, 45.57 87.14, 38.75 87.29 C31.93 87.45, 22.96 84.91, 17.23 80.5 C11.49 76.09, 7.1 68.11, 4.31 60.85 C1.53 53.59, -0.28 44.58, 0.52 36.93 C1.32 29.29, 4.83 20.97, 9.13 14.98 C13.42 8.98, 19.46 3.2, 26.3 0.97 C33.15 -1.26, 45.96 1.18, 50.17 1.58 C54.38 1.99, 51.65 2.69, 51.57 3.4 M46.8 1.76 C53.12 2.64, 60.05 6.14, 64.82 11.46 C69.6 16.78, 74.17 25.64, 75.44 33.69 C76.71 41.73, 74.77 52.26, 72.44 59.73 C70.11 67.19, 66.92 74.17, 61.45 78.48 C55.99 82.78, 46.67 85.32, 39.65 85.57 C32.63 85.83, 24.98 83.84, 19.33 80.03 C13.67 76.23, 9.15 69.48, 5.73 62.76 C2.3 56.03, -1.5 47.19, -1.22 39.69 C-0.94 32.18, 3.39 23.84, 7.43 17.72 C11.47 11.61, 16.78 5.58, 23.02 2.99 C29.26 0.4, 41.05 2.35, 44.86 2.18 C48.67 2.01, 45.64 1.24, 45.89 1.95" stroke="#1e1e1e" stroke-width="1" fill="none"></path></g><g stroke-linecap="round" transform="translate(345.4700015915769 23.746519304762842) rotate(0 41.92688387952717 39.86490598381272)"><path d="M7.79 2.8 C7.79 2.8, 7.79 2.8, 7.79 2.8 M7.79 2.8 C7.79 2.8, 7.79 2.8, 7.79 2.8 M0.97 16.74 C3.72 12.27, 6.93 6.46, 14.09 1.65 M0.97 16.74 C3.23 13.75, 6.92 10.38, 14.09 1.65 M0.71 23.14 C6.79 15.43, 12.79 7.95, 20.39 0.5 M0.71 23.14 C6.15 15.12, 12.92 8.58, 20.39 0.5 M0.45 29.54 C9.23 20.81, 17.3 11.88, 26.03 0.1 M0.45 29.54 C7.68 22.68, 13.43 14.59, 26.03 0.1 M0.18 35.94 C8.9 26.68, 17.63 14.94, 31.02 0.46 M0.18 35.94 C11.74 23.45, 21.39 11.87, 31.02 0.46 M0.58 41.58 C9.1 32.49, 16.5 25.06, 36.01 0.82 M0.58 41.58 C11.66 30.15, 21.58 16.88, 36.01 0.82 M0.32 47.98 C12.62 36.46, 20.93 24.41, 41.65 0.43 M0.32 47.98 C9.54 38.64, 16.77 29.04, 41.65 0.43 M0.71 53.62 C17.04 33.85, 31.65 17.35, 46.64 0.79 M0.71 53.62 C12.13 40.81, 25.18 25.38, 46.64 0.79 M0.45 60.02 C12.6 45.82, 20.99 34.18, 52.28 0.4 M0.45 60.02 C16.06 41.34, 33.21 22.22, 52.28 0.4 M1.5 64.91 C13.77 49.7, 31.12 33.43, 57.27 0.76 M1.5 64.91 C16.97 44.98, 33.09 26.41, 57.27 0.76 M2.55 69.79 C24.12 43.26, 46.37 18.1, 62.91 0.36 M2.55 69.79 C22.63 48.36, 40.66 25.86, 62.91 0.36 M4.26 73.93 C22.67 54.06, 41.64 29.89, 67.9 0.72 M4.26 73.93 C28.34 44.96, 54.77 16.3, 67.9 0.72 M7.28 76.55 C28.71 54.14, 50.01 30.22, 72.23 1.84 M7.28 76.55 C30.75 50.7, 55.17 22.9, 72.23 1.84 M10.95 78.42 C32.97 51.01, 56.14 28.89, 76.56 2.95 M10.95 78.42 C28.52 57.76, 47.15 36.35, 76.56 2.95 M15.28 79.54 C31.02 64.07, 46.2 45.68, 79.58 5.57 M15.28 79.54 C29.41 62.33, 44.81 46.42, 79.58 5.57 M20.93 79.14 C37.29 58.52, 56.23 36.63, 81.94 8.95 M20.93 79.14 C38.49 59.36, 57.08 38.95, 81.94 8.95 M25.91 79.5 C41.05 63.48, 53.75 45.14, 82.99 13.84 M25.91 79.5 C37.53 65.87, 50.12 51.92, 82.99 13.84 M30.9 79.86 C43.57 69.05, 52.78 54.7, 84.04 18.73 M30.9 79.86 C46.22 62.26, 62.8 43.48, 84.04 18.73 M36.54 79.47 C51.46 61.94, 65.43 47.29, 83.78 25.13 M36.54 79.47 C48.15 66.4, 59.11 52.25, 83.78 25.13 M41.53 79.83 C55.72 61.26, 70.44 47.32, 84.17 30.77 M41.53 79.83 C58.2 61.85, 72.97 42.12, 84.17 30.77 M47.17 79.43 C60.46 65.66, 70.17 52.8, 83.91 37.17 M47.17 79.43 C61.06 62.66, 75.69 47.47, 83.91 37.17 M52.16 79.79 C59.46 68.58, 70.43 60.01, 83.65 43.57 M52.16 79.79 C63.61 68.2, 73.28 55.54, 83.65 43.57 M57.8 79.4 C66.28 70.21, 75.36 59.92, 84.05 49.21 M57.8 79.4 C64.83 71.92, 71.1 63.84, 84.05 49.21 M62.79 79.76 C67.24 73.04, 75.31 67.39, 83.78 55.61 M62.79 79.76 C70.41 69.62, 78.46 61.56, 83.78 55.61 M69.09 78.61 C73.78 73.16, 77.6 71.49, 83.52 62.01 M69.09 78.61 C72.85 73.63, 79.01 68.15, 83.52 62.01 M75.39 77.46 C77.43 75.59, 77.52 74.3, 81.95 69.91 M75.39 77.46 C77.81 74.59, 79.57 73.13, 81.95 69.91 M7.53 76.7 C7.53 76.7, 7.53 76.7, 7.53 76.7 M7.53 76.7 C7.53 76.7, 7.53 76.7, 7.53 76.7 M16.19 78.93 C11.87 72.78, 6.28 68.95, 1.85 66.47 M16.19 78.93 C12.29 75.04, 6.93 70.92, 1.85 66.47 M21.83 78.54 C14.91 72.17, 9.24 70.53, -0.06 59.51 M21.83 78.54 C17.66 74.61, 13.65 70.84, -0.06 59.51 M28.23 78.8 C20.28 71.22, 11.16 65.56, 0.3 54.52 M28.23 78.8 C18.9 70.92, 8.88 63.25, 0.3 54.52 M34.63 79.06 C23.01 65.49, 9.62 56.28, -0.09 48.88 M34.63 79.06 C24.32 69.01, 13.32 60.08, -0.09 48.88 M40.27 78.66 C31.53 69.89, 21.91 61.07, 0.27 43.89 M40.27 78.66 C29.02 68.35, 16.25 58.72, 0.27 43.89 M46.67 78.93 C33.3 65.95, 20.75 57.29, -0.12 38.25 M46.67 78.93 C31.87 65.89, 17.34 54.25, -0.12 38.25 M53.07 79.19 C38.93 66.86, 25.11 53.89, 0.24 33.26 M53.07 79.19 C39.01 67.4, 24.89 55.2, 0.24 33.26 M58.71 78.79 C43.97 63.39, 25.45 50.05, -0.16 27.62 M58.71 78.79 C37.97 60.65, 17.06 44.27, -0.16 27.62 M65.11 79.05 C43.36 61.38, 23.52 43.76, 0.2 22.63 M65.11 79.05 C45.77 61.78, 26.74 44.44, 0.2 22.63 M69.99 78 C45.26 57.31, 21.28 34.17, 0.56 17.65 M69.99 78 C46.65 57.03, 22.6 36.6, 0.56 17.65 M74.88 76.95 C48.4 51.07, 16.37 26.12, 0.92 12.66 M74.88 76.95 C59.48 62.99, 41.57 47.98, 0.92 12.66 M78.26 74.59 C51.72 49.97, 23.84 24.31, 2.79 8.98 M78.26 74.59 C62.42 61.42, 48.55 47.68, 2.79 8.98 M80.89 71.57 C52.96 48.55, 25.46 21.94, 5.41 5.96 M80.89 71.57 C57.51 52.83, 36.52 31.86, 5.41 5.96 M82.76 67.9 C61.54 47.94, 39.73 31.09, 8.04 2.95 M82.76 67.9 C66.96 53.15, 51.7 41.83, 8.04 2.95 M83.87 63.56 C58.89 41.65, 33.77 19.69, 12.93 1.9 M83.87 63.56 C67.34 47.69, 49.37 34.6, 12.93 1.9 M84.23 58.58 C66.52 43.62, 48.33 29.13, 17.82 0.84 M84.23 58.58 C69.85 46.64, 56.25 35.98, 17.82 0.84 M83.84 52.93 C72.03 40.53, 57.2 29.17, 21.95 -0.86 M83.84 52.93 C66.26 36.02, 48.19 19.76, 21.95 -0.86 M84.2 47.95 C71.67 35.87, 59.01 25.32, 28.35 -0.6 M84.2 47.95 C69.58 35.95, 57.14 24.28, 28.35 -0.6 M84.56 42.96 C66.25 27.75, 47.19 8.58, 34.75 -0.34 M84.56 42.96 C65.67 27.59, 48.36 12.28, 34.75 -0.34 M84.16 37.32 C70.13 28.15, 60.3 16.12, 40.39 -0.73 M84.16 37.32 C70.34 25.78, 55.58 13.61, 40.39 -0.73 M84.52 32.33 C73.4 20.55, 62.77 12.62, 46.79 -0.47 M84.52 32.33 C76.83 26.41, 70.06 18.28, 46.79 -0.47 M84.13 26.69 C75.55 16.73, 64.94 12.21, 53.18 -0.21 M84.13 26.69 C76.84 19.9, 70 13.56, 53.18 -0.21 M84.49 21.7 C74.59 14.4, 65.91 6.77, 58.83 -0.61 M84.49 21.7 C77.37 14.85, 69.38 9.36, 58.83 -0.61 M82.58 14.75 C77.69 10.35, 70.14 2.84, 65.22 -0.34 M82.58 14.75 C75.46 8.84, 70.5 3.3, 65.22 -0.34 M81.43 8.45 C79.74 6.89, 77.9 5.33, 73.89 1.89 M81.43 8.45 C79.26 6.13, 76.16 4.16, 73.89 1.89" stroke="#b2f2bb" stroke-width="0.5" fill="none"></path><path d="M19.93 0 C36.39 0, 54.01 -0.11, 63.92 0 M19.93 0 C32.65 -0.62, 43.39 -0.68, 63.92 0 M63.92 0 C77.12 1.48, 85.24 6.01, 83.85 19.93 M63.92 0 C78.68 1.86, 82.33 7.03, 83.85 19.93 M83.85 19.93 C82.57 28.4, 84.28 38.85, 83.85 59.8 M83.85 19.93 C83.1 33.09, 84.44 44.97, 83.85 59.8 M83.85 59.8 C85.35 74.16, 77.74 78.27, 63.92 79.73 M83.85 59.8 C84.98 72.73, 75.93 81.97, 63.92 79.73 M63.92 79.73 C46.97 78.77, 30.62 80.8, 19.93 79.73 M63.92 79.73 C54.98 79.67, 45.11 79.65, 19.93 79.73 M19.93 79.73 C5.54 81.37, 0.49 73.29, 0 59.8 M19.93 79.73 C8.89 81.73, 0.54 71.76, 0 59.8 M0 59.8 C1.73 48.01, -1.18 34.83, 0 19.93 M0 59.8 C-1.32 49.09, -0.07 36.47, 0 19.93 M0 19.93 C-0.22 4.9, 4.87 1.96, 19.93 0 M0 19.93 C-0.12 7.18, 5.72 -0.64, 19.93 0" stroke="#1e1e1e" stroke-width="1" fill="none"></path></g><g transform="translate(10 36.202381684407555) rotate(0 40.41666793823242 20)"><text x="0" y="14.016" font-family="Virgil, Segoe UI Emoji" font-size="16px" fill="#1e1e1e" text-anchor="start" style="white-space: pre;" direction="ltr" dominant-baseline="alphabetic">Repository</text><text x="0" y="34.016" font-family="Virgil, Segoe UI Emoji" font-size="16px" fill="#1e1e1e" text-anchor="start" style="white-space: pre;" direction="ltr" dominant-baseline="alphabetic">Server</text></g><g stroke-linecap="round" transform="translate(225.8752836401386 23.746519304762842) rotate(0 40.55223194905079 41.239557914289094)"><path d="M6.81 35.07 C6.81 35.07, 6.81 35.07, 6.81 35.07 M6.81 35.07 C6.81 35.07, 6.81 35.07, 6.81 35.07 M4.58 43.73 C13.51 33.1, 24.81 19.26, 39.35 3.73 M4.58 43.73 C15.51 31.61, 27.04 18.4, 39.35 3.73 M6.95 47.11 C17.04 36.13, 26.86 23.21, 44.34 4.09 M6.95 47.11 C15.67 36.56, 23.68 28.04, 44.34 4.09 M9.31 50.49 C20.97 34.04, 33.8 22.39, 47.36 6.72 M9.31 50.49 C20.89 37.51, 31.61 23.56, 47.36 6.72 M11.67 53.87 C27.16 37.14, 38.42 22.54, 50.38 9.34 M11.67 53.87 C21.25 41.7, 32.96 30.56, 50.38 9.34 M14.69 56.5 C24.47 46.25, 35.43 34.74, 52.74 12.72 M14.69 56.5 C29.03 38.98, 43.79 23.17, 52.74 12.72 M17.71 59.12 C29.34 43.47, 44.21 29.84, 55.76 15.35 M17.71 59.12 C31.56 44.28, 43.23 29.06, 55.76 15.35 M20.07 62.5 C27.33 55.43, 34.63 44.04, 58.78 17.97 M20.07 62.5 C33.99 45.54, 50.24 28.62, 58.78 17.97 M23.09 65.12 C32.78 55.91, 40.58 42.92, 61.14 21.35 M23.09 65.12 C36.12 49.77, 49.8 33.51, 61.14 21.35 M26.11 67.75 C38.5 54.5, 53.47 37.53, 64.16 23.97 M26.11 67.75 C35.05 57.71, 42.52 48.6, 64.16 23.97 M29.13 70.37 C38.57 59.63, 47.26 51.68, 66.52 27.35 M29.13 70.37 C42.01 55.83, 54.03 40.71, 66.52 27.35 M32.15 73 C47.43 58.45, 57.19 40.77, 69.54 29.98 M32.15 73 C41.15 62.13, 50.18 52.63, 69.54 29.98 M35.17 75.62 C49.16 59.1, 59.52 44.31, 72.56 32.6 M35.17 75.62 C49.02 59.3, 62.75 43.97, 72.56 32.6 M38.18 78.24 C44.99 68.61, 53.17 59.28, 74.92 35.98 M38.18 78.24 C49.07 64.31, 60.71 52.17, 74.92 35.98 M41.86 80.11 C51.84 64.79, 66.12 51.71, 77.29 39.36 M41.86 80.11 C49.47 71.62, 56.65 61.26, 77.29 39.36 M36.91 77.95 C36.91 77.95, 36.91 77.95, 36.91 77.95 M36.91 77.95 C36.91 77.95, 36.91 77.95, 36.91 77.95 M43.31 78.21 C34.92 68.35, 24.33 61.61, 4.82 44.75 M43.31 78.21 C30.83 66.71, 19.89 57.85, 4.82 44.75 M46.69 75.85 C35.48 67.38, 24.4 57.8, 4.43 39.11 M46.69 75.85 C30.86 62.04, 14.14 47.02, 4.43 39.11 M50.07 73.49 C37.66 63, 25.06 51.84, 6.3 35.44 M50.07 73.49 C38.85 62.4, 25.59 51.5, 6.3 35.44 M52.69 70.47 C39.86 61.34, 29.59 51.12, 8.92 32.42 M52.69 70.47 C42.12 60.6, 32.78 51.92, 8.92 32.42 M55.32 67.45 C43.01 59.04, 30.92 45.65, 12.3 30.06 M55.32 67.45 C39.24 54, 22.3 39.22, 12.3 30.06 M58.7 65.09 C43.43 53.66, 33.16 41.99, 14.92 27.04 M58.7 65.09 C43.48 52.84, 28.94 40.17, 14.92 27.04 M61.32 62.07 C49.37 53.5, 38.1 42.88, 17.55 24.02 M61.32 62.07 C50.53 51.5, 37.94 42.01, 17.55 24.02 M63.94 59.05 C49.83 45.72, 31.02 30.67, 20.93 21.65 M63.94 59.05 C53.25 51.1, 44.78 41.59, 20.93 21.65 M66.57 56.03 C49.31 44.68, 34.61 30.38, 23.55 18.64 M66.57 56.03 C49.76 41.57, 33.45 26.12, 23.55 18.64 M69.95 53.67 C59.81 46.07, 51.5 34.65, 26.17 15.62 M69.95 53.67 C55.77 42.62, 43.02 30.44, 26.17 15.62 M72.57 50.65 C57.39 39.05, 44.92 27.99, 28.8 12.6 M72.57 50.65 C64.84 43.37, 56.08 36.15, 28.8 12.6 M74.44 46.97 C65.04 37.45, 56.77 31.55, 32.18 10.24 M74.44 46.97 C62.01 37.04, 51.01 25.09, 32.18 10.24 M77.07 43.96 C65.88 34.34, 59.44 28.3, 34.8 7.22 M77.07 43.96 C64.29 33.65, 51.64 22.63, 34.8 7.22 M78.18 39.63 C67.65 30.95, 54.63 20.28, 37.43 4.2 M78.18 39.63 C65.66 27.58, 51.49 17.09, 37.43 4.2 M57.41 16.27 C54.45 14.33, 50.24 12.21, 42.31 3.15 M57.41 16.27 C53.04 13.86, 50.29 10.4, 42.31 3.15" stroke="#ffec99" stroke-width="0.5" fill="none"></path><path d="M51.25 10.5 C56.95 17.74, 65.53 25.15, 70.85 31.5 M51.25 10.5 C56.58 17.15, 62.79 21.95, 70.85 31.5 M70.85 31.5 C82.39 43.62, 79.78 42.33, 70.85 52.5 M70.85 31.5 C80.08 42.07, 80.76 40.51, 70.85 52.5 M70.85 52.5 C67.08 55.7, 64.34 59.54, 51.25 71.98 M70.85 52.5 C65.04 59.62, 57.86 65.01, 51.25 71.98 M51.25 71.98 C41.98 82.17, 39.89 84.43, 30.75 71.98 M51.25 71.98 C42.33 83.43, 39.46 81.09, 30.75 71.98 M30.75 71.98 C23.51 65.18, 19.04 61.7, 10.25 52.5 M30.75 71.98 C23.92 66.69, 18.26 59.83, 10.25 52.5 M10.25 52.5 C1.95 43.74, 0.47 40.85, 10.25 31.5 M10.25 52.5 C0.49 41.84, -1.68 43.96, 10.25 31.5 M10.25 31.5 C17.44 25.95, 25.67 14.81, 30.75 10.5 M10.25 31.5 C18.26 22.23, 25.66 15.71, 30.75 10.5 M30.75 10.5 C40.9 0.46, 40.19 -0.55, 51.25 10.5 M30.75 10.5 C38.84 2.23, 40.32 1.38, 51.25 10.5" stroke="#1e1e1e" stroke-width="1" fill="none"></path></g><g stroke-linecap="round"><g transform="translate(202.5062008220416 62.236773358099526) rotate(0 13.770753742706802 0.2040587001096128)"><path d="M0.19 0.52 C4.84 0.52, 23.41 -0.01, 27.92 -0.12 M-0.37 0.31 C4.23 0.41, 23.18 0.51, 27.7 0.52" stroke="#1e1e1e" stroke-width="1" fill="none"></path></g><g transform="translate(202.5062008220416 62.236773358099526) rotate(0 13.770753742706802 0.2040587001096128)"><path d="M14.76 5.17 C19.39 4.25, 22.57 2, 27.7 0.52 M14.76 5.17 C18.54 3.74, 22.06 2.86, 27.7 0.52" stroke="#1e1e1e" stroke-width="1" fill="none"></path></g><g transform="translate(202.5062008220416 62.236773358099526) rotate(0 13.770753742706802 0.2040587001096128)"><path d="M14.81 -4.24 C19.4 -2.27, 22.57 -1.63, 27.7 0.52 M14.81 -4.24 C18.57 -3.09, 22.08 -1.4, 27.7 0.52" stroke="#1e1e1e" stroke-width="1" fill="none"></path></g></g><mask></mask><g stroke-linecap="round" transform="translate(88.41009059250882 10) rotate(0 195.887900092873 51.54944739286134)"><path d="M25.77 0 C139.37 -2.32, 253.17 -1.8, 366 0 M25.77 0 C153.42 1.26, 279.76 0.83, 366 0 M366 0 C382.29 0.06, 391.47 7.3, 391.78 25.77 M366 0 C381.22 0.47, 390.12 9.04, 391.78 25.77 M391.78 25.77 C393.09 40.6, 391.38 53.89, 391.78 77.32 M391.78 25.77 C392.4 43.86, 391.36 63.24, 391.78 77.32 M391.78 77.32 C392.94 95.33, 381.84 101.89, 366 103.1 M391.78 77.32 C391.02 92.42, 384.76 100.87, 366 103.1 M366 103.1 C293.74 101.82, 221.26 102.35, 25.77 103.1 M366 103.1 C236.74 103.92, 106.33 102.95, 25.77 103.1 M25.77 103.1 C9.01 102.96, -1.46 96.21, 0 77.32 M25.77 103.1 C9.76 101.71, 0.73 94.36, 0 77.32 M0 77.32 C1.75 57.62, -0.1 36.47, 0 25.77 M0 77.32 C0.4 66.59, 0.05 55.11, 0 25.77 M0 25.77 C-1.87 10.53, 8 1.2, 25.77 0 M0 25.77 C-0.47 10.41, 6.52 -0.68, 25.77 0" stroke="#1e1e1e" stroke-width="1" fill="none"></path></g><g stroke-linecap="round"><g transform="translate(308.6762649623088 64.79459293858235) rotate(0 16.651699654334152 0.1382089213798281)"><path d="M-0.02 0.41 C5.68 0.4, 28.34 -0.18, 34 -0.17 M-0.7 0.14 C4.99 0.23, 28.02 0.52, 33.77 0.43" stroke="#1e1e1e" stroke-width="1" fill="none"></path></g><g transform="translate(308.6762649623088 64.79459293858235) rotate(0 16.651699654334152 0.1382089213798281)"><path d="M17.96 6.17 C22.65 5.28, 25.82 3.77, 33.77 0.43 M17.96 6.17 C23.82 3.98, 29.96 1.52, 33.77 0.43" stroke="#1e1e1e" stroke-width="1" fill="none"></path></g><g transform="translate(308.6762649623088 64.79459293858235) rotate(0 16.651699654334152 0.1382089213798281)"><path d="M17.98 -5.33 C22.65 -3.26, 25.81 -1.83, 33.77 0.43 M17.98 -5.33 C23.79 -3.13, 29.93 -1.22, 33.77 0.43" stroke="#1e1e1e" stroke-width="1" fill="none"></path></g></g><mask></mask></svg>