<svg version="1.1" xmlns="http://www.w3.org/2000/svg" viewBox="0 0 328 485.75" width="656" height="971.5">
    <!-- svg-source:excalidraw -->

    <defs>
        <style class="style-fonts">
            @font-face {
            font-family: "Virgil";
            src: url("https://excalidraw.com/Virgil.woff2");
            }
            @font-face {
            font-family: "Cascadia";
            src: url("https://excalidraw.com/Cascadia.woff2");
            }
        </style>

    </defs>
    <rect x="0" y="0" width="328" height="485.75" fill="#ffffff"></rect>
    <g stroke-linecap="round" transform="translate(10 244.75000000000003) rotate(0 154 115.5)">
        <path d="M32 0 M32 0 C110.7 -0.97, 190.38 -0.78, 276 0 M32 0 C116.65 0.26, 201.73 0.67, 276 0 M276 0 C297.9 -0.09, 306.69 12.06, 308 32 M276 0 C295.74 -1.97, 307.95 11.54, 308 32 M308 32 C310.16 77.04, 309.78 119.86, 308 199 M308 32 C309.8 92.37, 309.41 151.57, 308 199 M308 199 C306.64 221.98, 297.54 229.48, 276 231 M308 199 C307.18 222.28, 295.38 231.96, 276 231 M276 231 C213.18 229.47, 147.81 228.85, 32 231 M276 231 C184.63 229.42, 93.4 230.59, 32 231 M32 231 C8.81 232.12, -1.2 221.82, 0 199 M32 231 C10.4 228.88, -0.97 221.73, 0 199 M0 199 C-1.91 139, -0.3 77.75, 0 32 M0 199 C0.28 161.21, -0.66 124.36, 0 32 M0 32 C1.77 11.68, 9.99 -0.43, 32 0 M0 32 C0.84 10.34, 11.4 1.33, 32 0"
              stroke="#000000" stroke-width="1" fill="none"></path>
    </g>
    <g transform="translate(130.25 347.75) rotate(0 33.75 12.5)">
        <text x="33.75" y="0" font-family="Virgil, Segoe UI Emoji" font-size="20px" fill="#000000" text-anchor="middle"
              style="white-space: pre;" direction="ltr" dominant-baseline="text-before-edge">Service
        </text>
    </g>
    <g stroke-linecap="round" transform="translate(105 10) rotate(0 53.5 40.125000000000014)">
        <path d="M20.06 0 M20.06 0 C40.3 0.98, 59.78 -0.75, 86.94 0 M20.06 0 C44.97 0.74, 71.17 0.69, 86.94 0 M86.94 0 C100.62 1.25, 107.69 5.01, 107 20.06 M86.94 0 C98.89 1.32, 108.1 5.01, 107 20.06 M107 20.06 C105.27 31.01, 107.5 39.31, 107 60.19 M107 20.06 C106.45 32.17, 107.05 45.49, 107 60.19 M107 60.19 C107.05 75.15, 98.53 81.26, 86.94 80.25 M107 60.19 C108.11 74.67, 101.14 79.17, 86.94 80.25 M86.94 80.25 C70.27 81.32, 54.69 80, 20.06 80.25 M86.94 80.25 C68.32 80.99, 51.2 79.48, 20.06 80.25 M20.06 80.25 C7.59 82, 0.5 72.4, 0 60.19 M20.06 80.25 C6 80.63, 1.37 75.31, 0 60.19 M0 60.19 C0.27 45.62, 0.91 29.22, 0 20.06 M0 60.19 C-0.18 49.9, -0.31 41.34, 0 20.06 M0 20.06 C-0.14 5.65, 7.35 1.24, 20.06 0 M0 20.06 C-0.34 4.98, 7.65 0.73, 20.06 0"
              stroke="#000000" stroke-width="1" fill="none"></path>
    </g>
    <g transform="translate(142.0666675567627 37.62500000000003) rotate(0 16.433332443237305 12.5)">
        <text x="16.433332443237305" y="0" font-family="Virgil, Segoe UI Emoji" font-size="20px" fill="#000000"
              text-anchor="middle" style="white-space: pre;" direction="ltr" dominant-baseline="text-before-edge">App
        </text>
    </g>
    <g stroke-linecap="round">
        <g transform="translate(133.6020883249364 94.75000000000003) rotate(0 -0.435972597423131 72.43832582458853)">
            <path d="M-0.63 -1.16 C-0.64 23.03, -1.06 121.62, -0.89 146.04 M1.24 0.84 C1.1 24.64, -1.92 120.74, -2.11 144.46"
                  stroke="#000000" stroke-width="1" fill="none"></path>
        </g>
        <g transform="translate(133.6020883249364 94.75000000000003) rotate(0 -0.435972597423131 72.43832582458853)">
            <path d="M-13.71 115.19 C-7.59 123.98, -6.51 127.51, -3.73 144.07 M-12.34 116.74 C-9.7 122.49, -6.59 129.19, -1.27 143.49"
                  stroke="#000000" stroke-width="1" fill="none"></path>
        </g>
        <g transform="translate(133.6020883249364 94.75000000000003) rotate(0 -0.435972597423131 72.43832582458853)">
            <path d="M6.81 115.63 C8.17 124.21, 4.5 127.64, -3.73 144.07 M8.17 117.18 C6.09 122.84, 4.47 129.44, -1.27 143.49"
                  stroke="#000000" stroke-width="1" fill="none"></path>
        </g>
    </g>
    <mask></mask>
    <g stroke-linecap="round">
        <g transform="translate(193.7743066499669 240.75000000000003) rotate(0 0.5787838900732822 -71.69891164526344)">
            <path d="M0.79 -0.49 C0.99 -24.17, 1.25 -119.34, 1.41 -142.91 M-0.25 -1.79 C-0.27 -25.28, -0.01 -118.72, 0.18 -141.85"
                  stroke="#000000" stroke-width="1" fill="none"></path>
        </g>
        <g transform="translate(193.7743066499669 240.75000000000003) rotate(0 0.5787838900732822 -71.69891164526344)">
            <path d="M9.48 -114.5 C5.75 -122.83, 4.17 -133.04, 0.98 -141.84 M10.1 -114.13 C7.23 -122.24, 3.78 -132.98, 0.17 -142.39"
                  stroke="#000000" stroke-width="1" fill="none"></path>
        </g>
        <g transform="translate(193.7743066499669 240.75000000000003) rotate(0 0.5787838900732822 -71.69891164526344)">
            <path d="M-11.04 -114.61 C-8.25 -123.03, -3.31 -133.21, 0.98 -141.84 M-10.42 -114.23 C-6.52 -122.41, -3.19 -133.12, 0.17 -142.39"
                  stroke="#000000" stroke-width="1" fill="none"></path>
        </g>
    </g>
    <mask></mask>
    <g stroke-linecap="round" transform="translate(41 144.75000000000003) rotate(0 41 15)">
        <path d="M7.5 0 M7.5 0 C27.38 -0.14, 48.03 0.47, 74.5 0 M7.5 0 C20.31 -0.18, 35.06 0.25, 74.5 0 M74.5 0 C79.75 0.24, 80.6 4.03, 82 7.5 M74.5 0 C80.23 1.23, 83.98 4.71, 82 7.5 M82 7.5 C80.92 11.59, 83.22 13.45, 82 22.5 M82 7.5 C81.42 12.22, 82.05 17.98, 82 22.5 M82 22.5 C81.59 27.86, 78.49 31.81, 74.5 30 M82 22.5 C82.04 28.77, 80.8 30.52, 74.5 30 M74.5 30 C51 29.27, 26.16 29.84, 7.5 30 M74.5 30 C48.43 29.55, 21.66 29.05, 7.5 30 M7.5 30 C1.07 30.66, 1.05 27.16, 0 22.5 M7.5 30 C3.64 30.37, 0.82 28.77, 0 22.5 M0 22.5 C1.11 17.1, 0.7 12.87, 0 7.5 M0 22.5 C-0.17 17.16, 0.32 12.29, 0 7.5 M0 7.5 C1.65 4.39, 4.22 0.07, 7.5 0 M0 7.5 C-1.7 2.86, 1.55 -1.75, 7.5 0"
              stroke="#000000" stroke-width="1" fill="none"></path>
    </g>
    <g transform="translate(50.03333282470703 149.75000000000003) rotate(0 31.96666717529297 10)">
        <text x="31.96666717529297" y="0" font-family="Virgil, Segoe UI Emoji" font-size="16px" fill="#000000"
              text-anchor="middle" style="white-space: pre;" direction="ltr" dominant-baseline="text-before-edge">
            Request
        </text>
    </g>
    <g stroke-linecap="round" transform="translate(210.5 142.25000000000003) rotate(0 52 18)">
        <path d="M9 0 M9 0 C42.23 0.88, 72.03 -1.71, 95 0 M9 0 C41.58 0.2, 75.33 0.03, 95 0 M95 0 C101.02 0.32, 105.51 2.62, 104 9 M95 0 C101.3 1.49, 104.43 4.62, 104 9 M104 9 C105.45 15.34, 104.42 20.07, 104 27 M104 9 C103.62 14, 103.35 18.78, 104 27 M104 27 C102.5 32.94, 102.21 34.13, 95 36 M104 27 C102.53 35.25, 100.61 37.31, 95 36 M95 36 C64.67 35.23, 32.99 33.52, 9 36 M95 36 C70.53 35.81, 45.04 37.03, 9 36 M9 36 C1.78 36.21, -1.39 33.57, 0 27 M9 36 C4.29 37.78, 0.42 32.59, 0 27 M0 27 C-0.62 20.95, 1.91 14.38, 0 9 M0 27 C0.18 20.63, -0.66 13.79, 0 9 M0 9 C1.28 2.19, 3.08 -0.26, 9 0 M0 9 C1.63 2.98, 4.89 0.36, 9 0"
              stroke="#000000" stroke-width="1" fill="none"></path>
    </g>
    <g transform="translate(227.5 150.25000000000003) rotate(0 35 10)">
        <text x="35" y="0" font-family="Virgil, Segoe UI Emoji" font-size="16px" fill="#000000" text-anchor="middle"
              style="white-space: pre;" direction="ltr" dominant-baseline="text-before-edge">Response
        </text>
    </g>
</svg>