<svg version="1.1" xmlns="http://www.w3.org/2000/svg" viewBox="0 0 495.6295679448003 405.27997702003074" width="991.2591358896007" height="810.5599540400615">
  <!-- svg-source:excalidraw -->
  
  <defs>
    <style class="style-fonts">
      @font-face {
        font-family: "Virgil";
        src: url("https://excalidraw.com/Virgil.woff2");
      }
      @font-face {
        font-family: "Cascadia";
        src: url("https://excalidraw.com/Cascadia.woff2");
      }
      @font-face {
        font-family: "Assistant";
        src: url("https://app.excalidraw.com//dist/excalidraw-assets/Assistant-Regular.woff2");
      }
    </style>
    
  </defs>
  <rect x="0" y="0" width="495.6295679448003" height="405.27997702003074" fill="#ffffff"></rect><g stroke-linecap="round" transform="translate(10 62.61420984476547) rotate(0 158.08497200477473 163.58357972668)"><path d="M204.06 6 C219.1 7.85, 233.51 18.85, 246.25 28.01 C258.99 37.17, 270.92 48.46, 280.51 60.96 C290.1 73.46, 297.77 88.36, 303.78 103.03 C309.79 117.69, 315.27 132.97, 316.57 148.98 C317.88 164.99, 314.98 183.25, 311.61 199.1 C308.24 214.96, 303.73 230.28, 296.36 244.11 C288.99 257.94, 278.67 271.21, 267.41 282.11 C256.15 293, 242.99 302.2, 228.8 309.49 C214.6 316.78, 197.83 323.31, 182.24 325.85 C166.64 328.38, 150.4 326.98, 135.21 324.7 C120.01 322.43, 105.09 319.05, 91.07 312.22 C77.06 305.4, 62.53 294.75, 51.13 283.77 C39.73 272.79, 30.34 260.15, 22.69 246.35 C15.03 232.55, 8.9 216.55, 5.2 200.98 C1.5 185.41, -0.48 168.78, 0.49 152.94 C1.45 137.11, 5.37 121.05, 10.99 105.97 C16.61 90.89, 24.84 75.18, 34.22 62.46 C43.6 49.74, 54.74 38.75, 67.26 29.63 C79.79 20.52, 94.46 12.63, 109.37 7.78 C124.28 2.93, 140.37 0.39, 156.73 0.54 C173.08 0.7, 198.64 6.66, 207.51 8.74 C216.37 10.82, 210.89 10.53, 209.93 13.03 M199.69 7.12 C214.61 8.58, 231.92 17.05, 245.34 25.4 C258.76 33.75, 270.57 44.81, 280.2 57.22 C289.84 69.63, 297.15 84.94, 303.15 99.88 C309.16 114.81, 314.48 131.03, 316.24 146.83 C318 162.63, 316.76 178.95, 313.73 194.66 C310.7 210.38, 305.57 226.87, 298.05 241.12 C290.53 255.38, 279.7 268.86, 268.6 280.17 C257.51 291.48, 245.4 301.36, 231.48 308.98 C217.56 316.6, 200.55 323.18, 185.08 325.92 C169.62 328.65, 154.22 327.44, 138.68 325.4 C123.15 323.37, 106.15 320.35, 91.89 313.72 C77.63 307.09, 64.76 296.43, 53.14 285.65 C41.51 274.87, 30.09 262.61, 22.15 249.04 C14.21 235.47, 9.32 219.67, 5.49 204.25 C1.67 188.83, -1.63 172.68, -0.82 156.51 C0 140.34, 5.04 122.26, 10.36 107.22 C15.69 92.17, 21.78 78.91, 31.13 66.23 C40.47 53.54, 53.6 40.73, 66.43 31.11 C79.26 21.49, 93.51 13.77, 108.11 8.48 C122.7 3.2, 138.67 -0.16, 154 -0.6 C169.34 -1.05, 192.28 4.33, 200.12 5.81 C207.96 7.29, 201.79 5.81, 201.04 8.27" stroke="#1e1e1e" stroke-width="1" fill="none"></path></g><g stroke-linecap="round" transform="translate(169.45962393525133 68.11281756667074) rotate(0 158.08497200477473 163.58357972668)"><path d="M156.13 -0.2 C170.99 -2.98, 189.12 1.68, 203.97 6.18 C218.83 10.67, 232.46 17.55, 245.27 26.76 C258.07 35.96, 270.79 48.85, 280.82 61.4 C290.85 73.95, 299.78 87.38, 305.43 102.06 C311.09 116.74, 313.65 133.5, 314.73 149.49 C315.81 165.49, 314.96 182.21, 311.9 198.02 C308.84 213.83, 303.97 230.28, 296.38 244.34 C288.79 258.39, 277.89 271.41, 266.36 282.34 C254.83 293.28, 240.97 302.7, 227.22 309.93 C213.47 317.17, 199.24 323.1, 183.87 325.75 C168.5 328.39, 150.43 328.08, 135.01 325.8 C119.59 323.53, 105.22 318.89, 91.33 312.09 C77.44 305.28, 63.35 295.72, 51.69 284.96 C40.03 274.2, 29.27 261.37, 21.36 247.51 C13.45 233.64, 7.59 217.54, 4.23 201.76 C0.87 185.98, 0.14 168.95, 1.18 152.81 C2.22 136.68, 4.95 119.81, 10.46 104.94 C15.98 90.08, 24.79 76.18, 34.27 63.62 C43.75 51.07, 54.77 39.04, 67.36 29.61 C79.94 20.17, 93.03 11.97, 109.79 7.03 C126.55 2.09, 156.28 0.31, 167.93 -0.06 C179.59 -0.42, 179.83 1.95, 179.71 4.85 M128.31 2.47 C142.22 -3.46, 158.77 -2.53, 174.09 -0.54 C189.4 1.44, 205.88 7.83, 220.21 14.39 C234.55 20.94, 248.33 28.7, 260.08 38.78 C271.84 48.86, 282.28 61.06, 290.75 74.86 C299.22 88.66, 306.73 105.76, 310.9 121.58 C315.06 137.4, 316.41 154.14, 315.74 169.76 C315.06 185.39, 311.65 200.2, 306.82 215.31 C301.99 230.41, 295.59 247.33, 286.74 260.4 C277.89 273.47, 266.33 284.02, 253.72 293.75 C241.12 303.48, 225.94 313.11, 211.1 318.76 C196.27 324.41, 180.36 327.37, 164.72 327.66 C149.08 327.96, 132.29 324.6, 117.26 320.53 C102.22 316.45, 87.44 311.6, 74.53 303.19 C61.61 294.78, 49.86 282.46, 39.76 270.06 C29.65 257.66, 20.19 243.32, 13.9 228.79 C7.61 214.27, 4.05 198.49, 2.02 182.91 C-0.01 167.33, -1.07 151.01, 1.72 135.31 C4.51 119.61, 11.27 103.08, 18.74 88.73 C26.22 74.37, 36 60.56, 46.6 49.2 C57.2 37.83, 68.87 28.43, 82.36 20.55 C95.84 12.68, 119.99 4.4, 127.52 1.94 C135.05 -0.52, 127.05 2.86, 127.53 5.81" stroke="#1e1e1e" stroke-width="1" fill="none"></path></g><g transform="translate(47.115602122859855 11.75208841714226) rotate(0 48.5 10)"><text x="0" y="14.016" font-family="Virgil, Segoe UI Emoji" font-size="16px" fill="#1e1e1e" text-anchor="start" style="white-space: pre;" direction="ltr" dominant-baseline="alphabetic">JSONSchema</text></g><g transform="translate(309.2869384105047 10) rotate(0 61.03333282470703 10)"><text x="0" y="14.016" font-family="Virgil, Segoe UI Emoji" font-size="16px" fill="#1e1e1e" text-anchor="start" style="white-space: pre;" direction="ltr" dominant-baseline="alphabetic">GraphQLSchema</text></g><g transform="translate(229.9443088762082 168.46240849144073) rotate(0 18.516666412353516 10)"><text x="0" y="14.016" font-family="Virgil, Segoe UI Emoji" font-size="16px" fill="#1e1e1e" text-anchor="start" style="white-space: pre;" direction="ltr" dominant-baseline="alphabetic">name</text></g><g transform="translate(212.80229439433106 213.4484857104929) rotate(0 41.61666488647461 10.000000000000028)"><text x="0" y="14.016" font-family="Virgil, Segoe UI Emoji" font-size="16px" fill="#1e1e1e" text-anchor="start" style="white-space: pre;" direction="ltr" dominant-baseline="alphabetic">field types</text></g><g transform="translate(375.3271917009006 158.46240849144073) rotate(0 27.21666717529297 10)"><text x="0" y="14.016" font-family="Virgil, Segoe UI Emoji" font-size="16px" fill="#1e1e1e" text-anchor="start" style="white-space: pre;" direction="ltr" dominant-baseline="alphabetic">queries</text></g><g transform="translate(42.614539359246464 195.57801061430075) rotate(0 43 10)"><text x="0" y="14.016" font-family="Virgil, Segoe UI Emoji" font-size="16px" fill="#1e1e1e" text-anchor="start" style="white-space: pre;" direction="ltr" dominant-baseline="alphabetic">foreignKeys</text></g><g transform="translate(295.5418113838364 331.66855173145495) rotate(0 71.6500015258789 10)"><text x="0" y="14.016" font-family="Virgil, Segoe UI Emoji" font-size="16px" fill="#1e1e1e" text-anchor="start" style="white-space: pre;" direction="ltr" dominant-baseline="alphabetic">linksToOtherTypes</text></g></svg>