<svg version="1.1" xmlns="http://www.w3.org/2000/svg" viewBox="0 0 328 483.92671934119744" width="656" height="967.8534386823949">
  <!-- svg-source:excalidraw -->
  
  <defs>
    <style class="style-fonts">
      @font-face {
        font-family: "Virgil";
        src: url("https://excalidraw.com/Virgil.woff2");
      }
      @font-face {
        font-family: "Cascadia";
        src: url("https://excalidraw.com/Cascadia.woff2");
      }
    </style>
    
  </defs>
  <g stroke-linecap="round" transform="translate(10 242.92671934119747) rotate(0 154 115.5)"><path d="M32.55 -0.24 L275.91 -1.42 L288.72 0.34 L298.95 8.93 L306.34 17.02 L308.26 30.24 L309.59 198.25 L306.56 212.91 L298.69 224.39 L288.61 227.29 L275.95 231.76 L31.24 231.65 L19.73 230.62 L9.32 224.23 L2.43 214.14 L1.83 200.18 L1.05 25.96 L1.77 18.58 L6.64 9.65 L18.21 0.48 L31.29 1.69" stroke="none" stroke-width="0" fill="#a5d8ff"></path><path d="M32 0 M32 0 C83.31 0.2, 137.52 0.04, 276 0 M32 0 C81.31 -1.92, 131.21 -2.17, 276 0 M276 0 C299.31 1.31, 306.15 11.79, 308 32 M276 0 C295.95 1.71, 307.73 8.55, 308 32 M308 32 C310.17 75.11, 308.08 118.02, 308 199 M308 32 C306.82 86.73, 307.02 143.35, 308 199 M308 199 C306.31 222.33, 299.1 232.01, 276 231 M308 199 C307.22 219.84, 298.18 230.67, 276 231 M276 231 C194.5 227.91, 113.93 229.69, 32 231 M276 231 C198.99 230.95, 121.96 231.49, 32 231 M32 231 C9.24 230.09, 1.74 220.33, 0 199 M32 231 C8.48 228.74, 0.24 218.78, 0 199 M0 199 C0.43 146.32, -1.49 98.14, 0 32 M0 199 C0.33 141.52, 0.53 83.03, 0 32 M0 32 C0.86 8.92, 11.17 -1.89, 32 0 M0 32 C-0.56 10.28, 8.52 0.98, 32 0" stroke="#000000" stroke-width="1" fill="none"></path></g><g transform="translate(130.25 345.92671934119744) rotate(0 33.75 12.5)"><text x="33.75" y="0" font-family="Virgil, Segoe UI Emoji" font-size="20px" fill="#000000" text-anchor="middle" style="white-space: pre;" direction="ltr" dominant-baseline="text-before-edge">Service</text></g><g stroke-linecap="round" transform="translate(103.17671934119744 10) rotate(0 53.5 40.125000000000014)"><path d="M20.21 -0.15 L86.45 -0.34 L96.53 -0.17 L101.07 6.76 L105.74 9.39 L105.04 20.27 L105.33 65 L102.29 76.49 L96.4 77.32 L85.7 81.4 L21.02 78.79 L10.52 77.22 L6.26 73.86 L0.76 65.75 L-1.43 15.86 L3.13 4.53 L10.95 -0.61 L20.91 -1.29" stroke="none" stroke-width="0" fill="#b2f2bb"></path><path d="M20.06 0 M20.06 0 C41.31 1.56, 61.51 1.31, 86.94 0 M20.06 0 C36.88 0.31, 54.48 0.64, 86.94 0 M86.94 0 C100.13 -0.71, 105.17 7.33, 107 20.06 M86.94 0 C98.13 1.21, 106.1 4.43, 107 20.06 M107 20.06 C106.19 33.32, 107.68 48.95, 107 60.19 M107 20.06 C107.03 35.47, 107.83 50.88, 107 60.19 M107 60.19 C107.07 72.35, 99.38 80.11, 86.94 80.25 M107 60.19 C106.15 72.02, 99.18 81.12, 86.94 80.25 M86.94 80.25 C68.57 80.18, 46.25 81.31, 20.06 80.25 M86.94 80.25 C65.4 80.47, 42.19 79.72, 20.06 80.25 M20.06 80.25 C7.37 80.02, 1.23 75.06, 0 60.19 M20.06 80.25 C5.16 80.81, -0.86 72.66, 0 60.19 M0 60.19 C-0.52 50.13, -1.52 37.27, 0 20.06 M0 60.19 C0.98 46.59, 1.21 34.19, 0 20.06 M0 20.06 C-1.93 6.36, 6.61 0.46, 20.06 0 M0 20.06 C-1.34 7.28, 4.47 0.11, 20.06 0" stroke="#000000" stroke-width="1" fill="none"></path></g><g transform="translate(140.24338689796014 37.62500000000003) rotate(0 16.433332443237305 12.5)"><text x="16.433332443237305" y="0" font-family="Virgil, Segoe UI Emoji" font-size="20px" fill="#000000" text-anchor="middle" style="white-space: pre;" direction="ltr" dominant-baseline="text-before-edge">App</text></g><g stroke-linecap="round"><g transform="translate(131.68338380845262 94.75000000000003) rotate(0 0.07366583651429437 71.52668549518725)"><path d="M-0.63 -1.16 C-0.47 22.72, -0.22 120.1, 0.13 144.22 M1.24 0.84 C1.27 24.33, -1.07 119.22, -1.1 142.64" stroke="#000000" stroke-width="1" fill="none"></path></g><g transform="translate(131.68338380845262 94.75000000000003) rotate(0 0.07366583651429437 71.52668549518725)"><path d="M-12.89 113.43 C-6.72 122.21, -5.6 125.73, -2.71 142.25 M-11.52 114.99 C-8.83 120.71, -5.68 127.41, -0.25 141.67" stroke="#000000" stroke-width="1" fill="none"></path></g><g transform="translate(131.68338380845262 94.75000000000003) rotate(0 0.07366583651429437 71.52668549518725)"><path d="M7.63 113.73 C9.04 122.33, 5.41 125.78, -2.71 142.25 M9 115.28 C6.96 120.96, 5.38 127.58, -0.25 141.67" stroke="#000000" stroke-width="1" fill="none"></path></g></g><mask></mask><g stroke-linecap="round"><g transform="translate(192.4184449493871 238.92671934119747) rotate(0 0.3369296570159577 -70.78727131586214)"><path d="M0.79 -0.49 C0.93 -23.87, 0.9 -117.82, 1 -141.09 M-0.25 -1.79 C-0.34 -24.98, -0.36 -117.2, -0.24 -140.03" stroke="#000000" stroke-width="1" fill="none"></path></g><g transform="translate(192.4184449493871 238.92671934119747) rotate(0 0.3369296570159577 -70.78727131586214)"><path d="M9.15 -112.71 C5.4 -121.02, 3.79 -131.23, 0.57 -140.01 M9.77 -112.33 C6.87 -120.44, 3.4 -131.17, -0.24 -140.56" stroke="#000000" stroke-width="1" fill="none"></path></g><g transform="translate(192.4184449493871 238.92671934119747) rotate(0 0.3369296570159577 -70.78727131586214)"><path d="M-11.37 -112.75 C-8.6 -121.19, -3.7 -131.38, 0.57 -140.01 M-10.75 -112.38 C-6.87 -120.57, -3.57 -131.28, -0.24 -140.56" stroke="#000000" stroke-width="1" fill="none"></path></g></g><mask></mask><g stroke-linecap="round" transform="translate(39.17671934119744 144.75000000000003) rotate(0 41 15)"><path d="M7.83 -0.27 L77.74 -0.84 L81.38 2.37 L81.99 23.9 L80.86 28.8 L72.54 30.1 L4.19 30.49 L0.72 26.02 L-1.4 9.03 L2.51 2.95 L9.22 1.92" stroke="none" stroke-width="0" fill="#ffec99"></path><path d="M7.5 0 M7.5 0 C22.31 1.1, 41.64 -1.28, 74.5 0 M7.5 0 C29.35 -0.87, 52.98 0.01, 74.5 0 M74.5 0 C79.09 0.36, 80.99 4.31, 82 7.5 M74.5 0 C79.54 1.27, 83.3 3.02, 82 7.5 M82 7.5 C81.69 12.6, 80.5 18.23, 82 22.5 M82 7.5 C81.8 13.1, 81.21 18.53, 82 22.5 M82 22.5 C80.57 28.16, 80.55 29.66, 74.5 30 M82 22.5 C83.14 27.87, 80.32 31.27, 74.5 30 M74.5 30 C51.15 29.9, 25.77 31.67, 7.5 30 M74.5 30 C52.43 28.83, 31.26 28.85, 7.5 30 M7.5 30 C4.15 31.89, 1.72 27.57, 0 22.5 M7.5 30 C0.8 30.36, -0.95 25.75, 0 22.5 M0 22.5 C0.99 18.69, 1.25 13.54, 0 7.5 M0 22.5 C0.13 19.03, 0.68 13.7, 0 7.5 M0 7.5 C-0.37 2.55, 0.6 -0.59, 7.5 0 M0 7.5 C1.93 0.42, 1.53 -1.4, 7.5 0" stroke="#000000" stroke-width="1" fill="none"></path></g><g transform="translate(48.21005216590447 149.75000000000003) rotate(0 31.96666717529297 10)"><text x="31.96666717529297" y="0" font-family="Virgil, Segoe UI Emoji" font-size="16px" fill="#000000" text-anchor="middle" style="white-space: pre;" direction="ltr" dominant-baseline="text-before-edge">Request</text></g><g stroke-linecap="round" transform="translate(208.67671934119744 142.25000000000003) rotate(0 52 18)"><path d="M10.39 -1.06 L98.67 2.03 L104.2 4.58 L101.61 32.54 L102.41 35.58 L94.8 37.98 L7 37.07 L0.58 31.26 L1.51 8.62 L2.51 3.54 L9.37 1.41" stroke="none" stroke-width="0" fill="#ffec99"></path><path d="M9 0 M9 0 C36.62 1.17, 61.53 0.38, 95 0 M9 0 C32.76 0.57, 56.5 0.29, 95 0 M95 0 C99.5 -0.06, 105.21 1.13, 104 9 M95 0 C99.53 2.25, 103.61 4.31, 104 9 M104 9 C105.58 15.75, 105.83 20.9, 104 27 M104 9 C104.27 13.55, 103.59 19.84, 104 27 M104 27 C102.78 33.21, 99.61 36.57, 95 36 M104 27 C105.29 34.78, 101.42 35.59, 95 36 M95 36 C60.65 36.25, 29.94 36.74, 9 36 M95 36 C65.49 36.59, 34.73 35.93, 9 36 M9 36 C4.28 35.19, 0.08 32.74, 0 27 M9 36 C4.63 35.98, 1.89 33.36, 0 27 M0 27 C1.52 22.84, 0.68 15.99, 0 9 M0 27 C0.09 21.15, -0.42 16.55, 0 9 M0 9 C1.24 4.66, 3.69 -0.72, 9 0 M0 9 C0.15 3.16, 1.95 1.88, 9 0" stroke="#000000" stroke-width="1" fill="none"></path></g><g transform="translate(225.67671934119744 150.25000000000003) rotate(0 35 10)"><text x="35" y="0" font-family="Virgil, Segoe UI Emoji" font-size="16px" fill="#000000" text-anchor="middle" style="white-space: pre;" direction="ltr" dominant-baseline="text-before-edge">Response</text></g></svg>