<svg version="1.1" xmlns="http://www.w3.org/2000/svg" viewBox="0 0 505.2521314581345 311.42620926097607" width="1010.504262916269" height="622.8524185219521">
  <!-- svg-source:excalidraw -->
  
  <defs>
    <style class="style-fonts">
      @font-face {
        font-family: "Virgil";
        src: url("https://excalidraw.com/Virgil.woff2");
      }
      @font-face {
        font-family: "Cascadia";
        src: url("https://excalidraw.com/Cascadia.woff2");
      }
      @font-face {
        font-family: "Assistant";
        src: url("https://app.excalidraw.com//dist/excalidraw-assets/Assistant-Regular.woff2");
      }
    </style>
    
  </defs>
  <rect x="0" y="0" width="505.2521314581345" height="311.42620926097607" fill="#ffffff"></rect><g stroke-linecap="round" transform="translate(127.53274005572484 10) rotate(0 145.02577866524985 119.59471795143833)"><path d="M7.86 8.16 C7.86 8.16, 7.86 8.16, 7.86 8.16 M7.86 8.16 C7.86 8.16, 7.86 8.16, 7.86 8.16 M2.35 20.59 C7.68 13.51, 11.66 8.29, 18.1 2.48 M2.35 20.59 C8.07 15.2, 13.37 9.03, 18.1 2.48 M1.43 27.75 C4.48 22.41, 9.92 17.42, 24.4 1.33 M1.43 27.75 C8.32 20.29, 13.98 14.1, 24.4 1.33 M1.17 34.14 C10.69 24.62, 19.96 12.83, 30.7 0.18 M1.17 34.14 C10.52 22.8, 20.26 12.57, 30.7 0.18 M0.91 40.54 C12.26 25.28, 26.26 13.27, 36.34 -0.21 M0.91 40.54 C14.9 24.82, 28.09 9.86, 36.34 -0.21 M1.31 46.19 C8.23 36.16, 18.75 25.84, 41.33 0.15 M1.31 46.19 C14.55 32.49, 28.13 17.21, 41.33 0.15 M1.04 52.58 C16.65 33.69, 33.83 13.46, 46.97 -0.25 M1.04 52.58 C11.99 39.65, 25.06 26.43, 46.97 -0.25 M0.78 58.98 C14.68 41.88, 30.08 23.23, 51.96 0.11 M0.78 58.98 C14.12 42.37, 27.83 28.84, 51.96 0.11 M1.18 64.62 C14.76 48.68, 32.61 28.37, 57.6 -0.28 M1.18 64.62 C16.69 45.28, 34.2 25.99, 57.6 -0.28 M0.92 71.02 C23.45 42.4, 47.97 17.39, 62.59 0.08 M0.92 71.02 C19.47 50.63, 38.16 28.25, 62.59 0.08 M1.31 76.67 C19.75 56.91, 36.6 37.59, 67.57 0.44 M1.31 76.67 C19.08 56.09, 37.32 34.93, 67.57 0.44 M1.05 83.06 C19.33 63.43, 34.74 42.22, 73.22 0.04 M1.05 83.06 C20.17 60.12, 38.53 37.89, 73.22 0.04 M0.79 89.46 C23.7 62.89, 41.92 37.63, 78.2 0.41 M0.79 89.46 C28.68 58.02, 57.34 24.37, 78.2 0.41 M1.18 95.1 C23.99 70.69, 42.13 45.35, 83.85 0.01 M1.18 95.1 C24.8 66.21, 48.56 39.16, 83.85 0.01 M0.92 101.5 C25.59 71.63, 50.87 41.98, 88.83 0.37 M0.92 101.5 C26.31 74.01, 49.95 45.75, 88.83 0.37 M0.66 107.9 C32.9 69.66, 69.46 28, 94.48 -0.02 M0.66 107.9 C37.57 67.31, 72.49 26.37, 94.48 -0.02 M1.05 113.54 C34.08 77.25, 68.32 39.36, 99.46 0.34 M1.05 113.54 C36.1 73.02, 69.64 34.05, 99.46 0.34 M0.79 119.94 C30.54 89.3, 56.06 55.92, 105.11 -0.06 M0.79 119.94 C41.7 71.55, 83.17 23.99, 105.11 -0.06 M0.53 126.34 C38.17 84.92, 73.64 45.11, 110.09 0.3 M0.53 126.34 C28.63 92.82, 57.73 60.82, 110.09 0.3 M0.93 131.98 C32.78 97.05, 64.69 61.2, 115.74 -0.09 M0.93 131.98 C36.17 91.69, 70.65 51.01, 115.74 -0.09 M0.66 138.38 C33.11 99.99, 71.1 59.46, 120.72 0.27 M0.66 138.38 C32.58 100.43, 66.29 61.97, 120.72 0.27 M1.06 144.02 C28.48 113.32, 51.16 83.12, 126.37 -0.13 M1.06 144.02 C44.69 96.57, 87.45 45.82, 126.37 -0.13 M0.8 150.42 C34.59 109.96, 69.15 71.53, 131.35 0.23 M0.8 150.42 C31.84 113.41, 64.51 74.42, 131.35 0.23 M0.54 156.82 C41.96 107.99, 85.21 60.96, 137 -0.16 M0.54 156.82 C29.61 122.65, 58.85 89.43, 137 -0.16 M0.93 162.46 C54.82 98.22, 111.39 33.73, 141.98 0.2 M0.93 162.46 C29.97 127.91, 60.67 93.4, 141.98 0.2 M0.67 168.86 C58.77 105.29, 111.13 40.95, 147.63 -0.2 M0.67 168.86 C47.64 115.97, 92.38 62.08, 147.63 -0.2 M0.41 175.26 C44.89 124.26, 88.79 73.56, 152.61 0.16 M0.41 175.26 C54.13 110.68, 108.45 48.94, 152.61 0.16 M0.8 180.9 C61.45 112.67, 120.57 43.31, 158.26 -0.23 M0.8 180.9 C46.65 127.82, 94.45 72.36, 158.26 -0.23 M0.54 187.3 C40.02 143.97, 80.65 96.55, 163.24 0.13 M0.54 187.3 C44.32 136.21, 89.44 83.8, 163.24 0.13 M0.94 192.94 C43.2 142.23, 86.69 91.06, 168.89 -0.27 M0.94 192.94 C54.68 128.53, 110.05 63.78, 168.89 -0.27 M0.67 199.34 C68.06 121.91, 134.38 43.14, 173.87 0.09 M0.67 199.34 C56.16 134.51, 112.41 70.07, 173.87 0.09 M0.41 205.74 C61.1 137.31, 119.26 69.91, 178.86 0.45 M0.41 205.74 C39.77 158.74, 80.44 111.83, 178.86 0.45 M0.81 211.38 C65.31 133.53, 132.92 57.33, 184.5 0.06 M0.81 211.38 C43.98 161.5, 88.12 112.31, 184.5 0.06 M1.86 216.27 C55.88 155.36, 107.35 93.62, 189.49 0.42 M1.86 216.27 C55.13 153.42, 107.41 92.04, 189.49 0.42 M2.25 221.91 C52.61 164.94, 101.84 108.78, 195.13 0.03 M2.25 221.91 C67.41 147.01, 131.21 72.45, 195.13 0.03 M4.62 225.29 C76.94 143.02, 147.83 59.99, 200.12 0.39 M4.62 225.29 C60.62 159.65, 116.91 94.49, 200.12 0.39 M6.98 228.67 C56.1 172.17, 101.75 117.22, 205.76 -0.01 M6.98 228.67 C68.18 158.43, 129.59 86.6, 205.76 -0.01 M9.34 232.05 C50.8 183.9, 96.84 133.29, 210.75 0.35 M9.34 232.05 C72.36 160.36, 133.11 89.65, 210.75 0.35 M13.02 233.92 C85.18 150.43, 159.49 67.1, 216.39 -0.04 M13.02 233.92 C61.4 176.99, 111.12 119.83, 216.39 -0.04 M16.03 236.54 C62.3 183.99, 110.08 127.76, 221.38 0.32 M16.03 236.54 C68.61 174.17, 121.34 112.7, 221.38 0.32 M20.37 237.66 C86.14 161.45, 151.33 86.97, 227.02 -0.08 M20.37 237.66 C97.18 147.85, 173.43 59.35, 227.02 -0.08 M25.35 238.02 C106.22 145.69, 186 53.87, 232.01 0.28 M25.35 238.02 C102.87 148.61, 179.71 60.12, 232.01 0.28 M29.68 239.13 C94.44 167.14, 156.45 92.11, 237.65 -0.11 M29.68 239.13 C99.65 159.42, 168.45 78.86, 237.65 -0.11 M34.67 239.49 C83.22 185.24, 129.28 131.83, 242.64 0.25 M34.67 239.49 C103.22 159.68, 172.46 79.89, 242.64 0.25 M40.31 239.1 C120.23 149.36, 199.46 58.97, 248.28 -0.15 M40.31 239.1 C111.96 156.41, 182.37 75.18, 248.28 -0.15 M45.3 239.46 C102.3 174.18, 157.28 108.44, 253.27 0.21 M45.3 239.46 C110.52 163.46, 177.41 87.5, 253.27 0.21 M50.94 239.06 C105.73 173.64, 161.69 110.84, 258.26 0.57 M50.94 239.06 C126.26 152.75, 201.37 64.6, 258.26 0.57 M55.93 239.42 C97.52 190.88, 140.09 140.99, 263.25 0.93 M55.93 239.42 C132.41 149.42, 209.87 60.53, 263.25 0.93 M61.57 239.03 C136.12 151.06, 213.74 63.35, 267.58 2.05 M61.57 239.03 C139.92 147.74, 216.93 59.26, 267.58 2.05 M66.56 239.39 C126.94 171.82, 188.8 101.65, 272.56 2.41 M66.56 239.39 C115.83 184.75, 162.5 130.5, 272.56 2.41 M72.2 238.99 C143.94 156.29, 215.53 73.64, 276.24 4.28 M72.2 238.99 C137.87 165.99, 203.13 90.95, 276.24 4.28 M77.19 239.35 C151.41 157.84, 223.29 74.36, 279.26 6.9 M77.19 239.35 C133.49 172.63, 191.3 104.95, 279.26 6.9 M82.83 238.96 C153.91 153.59, 226.26 72.5, 282.93 8.77 M82.83 238.96 C143.13 167.57, 204.75 95.92, 282.93 8.77 M87.82 239.32 C133.95 191.6, 175.71 140.83, 284.64 12.91 M87.82 239.32 C134.41 188.28, 180.18 137.01, 284.64 12.91 M92.81 239.68 C135.61 190.44, 177.49 141.83, 287 16.28 M92.81 239.68 C140.21 185, 188.44 130.68, 287 16.28 M98.45 239.28 C146.58 186.27, 191.08 132.48, 288.71 20.42 M98.45 239.28 C139.53 191.76, 181.39 143.39, 288.71 20.42 M103.44 239.64 C140.44 194.64, 180.3 152.6, 289.1 26.06 M103.44 239.64 C139.97 196.07, 177.86 153.78, 289.1 26.06 M109.08 239.25 C177.2 158.62, 248.98 76.13, 290.15 30.95 M109.08 239.25 C163.89 176.24, 218.1 112.77, 290.15 30.95 M114.07 239.61 C160.93 183.48, 212.55 125.87, 290.55 36.59 M114.07 239.61 C154.42 191.86, 195.76 144.17, 290.55 36.59 M119.71 239.21 C180.39 167.4, 240.94 97.88, 290.29 42.99 M119.71 239.21 C186.35 161.71, 252.77 85.84, 290.29 42.99 M124.7 239.57 C171.28 184.47, 219.89 131.13, 290.03 49.39 M124.7 239.57 C185.84 166.44, 247.5 95.69, 290.03 49.39 M130.34 239.18 C174.51 191, 216.86 140.98, 290.42 55.03 M130.34 239.18 C175.55 186.25, 220.75 132.71, 290.42 55.03 M135.33 239.54 C181.51 186.87, 229.34 134.26, 290.16 61.43 M135.33 239.54 C171.07 198.65, 206.4 155.58, 290.16 61.43 M140.97 239.15 C194.73 177.76, 247.7 117.85, 290.55 67.07 M140.97 239.15 C177.73 194.67, 215.51 150.56, 290.55 67.07 M145.96 239.51 C192.1 185.31, 239.63 131.84, 290.29 73.47 M145.96 239.51 C203.69 172.17, 261.85 106.21, 290.29 73.47 M151.6 239.11 C191.37 195.42, 228.95 152.54, 290.03 79.87 M151.6 239.11 C186.94 198.98, 221.01 158.07, 290.03 79.87 M156.59 239.47 C206.66 179.54, 262.08 117.97, 290.42 85.51 M156.59 239.47 C188.24 201.26, 220.13 166.14, 290.42 85.51 M162.23 239.08 C190.55 205.99, 219.76 171.95, 290.16 91.91 M162.23 239.08 C202.88 193.73, 241.86 148.02, 290.16 91.91 M167.22 239.44 C194.05 207.14, 221.69 175.59, 290.56 97.55 M167.22 239.44 C203.14 196.65, 239.28 156.8, 290.56 97.55 M172.86 239.04 C219.78 185.72, 265.97 134.55, 290.3 103.95 M172.86 239.04 C214.53 191.87, 253.67 145.45, 290.3 103.95 M177.85 239.4 C203.31 210.44, 227.47 182.37, 290.03 110.35 M177.85 239.4 C211.32 202.54, 243.46 166.76, 290.03 110.35 M183.49 239.01 C216.67 199.96, 250.95 159.72, 290.43 115.99 M183.49 239.01 C217.17 198.25, 253.14 159.89, 290.43 115.99 M188.48 239.37 C209.75 213.51, 235.8 183.82, 290.17 122.39 M188.48 239.37 C222.9 201.4, 255.88 163.93, 290.17 122.39 M194.12 238.97 C228.42 200.87, 262.94 160.29, 290.56 128.03 M194.12 238.97 C227.06 202.38, 259.21 165.25, 290.56 128.03 M199.11 239.33 C235.99 199.56, 270.3 159.96, 290.3 134.43 M199.11 239.33 C223.9 210.16, 249.56 180.37, 290.3 134.43 M204.1 239.69 C234.5 204.44, 266.06 168.85, 290.04 140.83 M204.1 239.69 C229.9 209.29, 256.03 181.2, 290.04 140.83 M209.74 239.3 C234.98 210.9, 258.79 183.17, 290.43 146.47 M209.74 239.3 C226.81 219.69, 244.61 200.5, 290.43 146.47 M214.73 239.66 C232.74 222.1, 247.09 204.82, 290.17 152.87 M214.73 239.66 C233.56 217.12, 251.24 195.95, 290.17 152.87 M220.37 239.26 C240.77 218.26, 255.93 195.05, 290.57 158.51 M220.37 239.26 C246.51 210.75, 270.72 181.98, 290.57 158.51 M225.36 239.62 C247.65 213.45, 272.21 188.65, 290.31 164.91 M225.36 239.62 C244.39 217.85, 262.14 195.75, 290.31 164.91 M231 239.23 C242.13 225.6, 257.66 208.52, 290.04 171.31 M231 239.23 C250.55 216.23, 269.92 195.9, 290.04 171.31 M235.99 239.59 C249.13 226.37, 260.55 212.66, 290.44 176.95 M235.99 239.59 C258.29 215.11, 277.75 191.92, 290.44 176.95 M241.63 239.2 C261.13 218.69, 279.02 198.13, 290.18 183.35 M241.63 239.2 C257.61 221.97, 271.8 203.2, 290.18 183.35 M246.62 239.56 C261.99 223.46, 276.44 206.21, 290.57 188.99 M246.62 239.56 C255.33 230.35, 265.11 219.78, 290.57 188.99 M252.26 239.16 C259.23 230.58, 266.93 218.88, 290.31 195.39 M252.26 239.16 C263.43 225.78, 274.67 213.61, 290.31 195.39 M257.25 239.52 C267.31 226.96, 279.37 216.2, 290.05 201.79 M257.25 239.52 C266.08 228.83, 274.38 219.24, 290.05 201.79 M262.89 239.13 C273.68 229.61, 281.07 216.44, 290.44 207.43 M262.89 239.13 C273.89 226.51, 284.45 213.56, 290.44 207.43 M269.19 237.98 C272.92 230.69, 277.57 226.37, 289.53 214.58 M269.19 237.98 C276.17 228.41, 284.48 219.03, 289.53 214.58 M278.11 233.81 C281.71 228.21, 285.2 226.25, 288.61 221.73 M278.11 233.81 C282.48 229.79, 285.92 225.39, 288.61 221.73 M8.22 231.38 C8.22 231.38, 8.22 231.38, 8.22 231.38 M8.22 231.38 C8.22 231.38, 8.22 231.38, 8.22 231.38 M20.65 236.89 C15.02 234.05, 10.7 228.69, 2.54 221.14 M20.65 236.89 C13.38 229.93, 6.91 225.77, 2.54 221.14 M27.81 237.81 C19.41 231.75, 14.82 224.23, 1.39 214.84 M27.81 237.81 C18.36 229.23, 8.3 219.53, 1.39 214.84 M34.96 238.72 C25.8 228.76, 13.3 221.04, 0.24 208.54 M34.96 238.72 C23.46 227.6, 12.37 218.34, 0.24 208.54 M41.36 238.99 C31.67 231.87, 21.39 220.43, -0.15 202.9 M41.36 238.99 C25.59 225.02, 10.56 212.37, -0.15 202.9 M47.75 239.25 C36.55 227.52, 25.18 220.45, 0.21 197.91 M47.75 239.25 C37.09 228.72, 24.92 220.41, 0.21 197.91 M53.4 238.85 C35.56 223.22, 18.51 208.28, -0.19 192.27 M53.4 238.85 C39.36 226.16, 26.12 216.43, -0.19 192.27 M59.79 239.11 C44.67 225.88, 30.43 214.33, 0.17 187.28 M59.79 239.11 C40.68 223.26, 21.63 206.59, 0.17 187.28 M65.44 238.72 C44.04 218.29, 18.31 197.08, 0.53 182.3 M65.44 238.72 C44.89 221.66, 25.27 203.17, 0.53 182.3 M71.84 238.98 C51.26 217.96, 26.44 201.72, 0.14 176.65 M71.84 238.98 C52.78 221.57, 32.35 204.93, 0.14 176.65 M78.23 239.24 C51.91 214.27, 22.75 193.59, 0.5 171.67 M78.23 239.24 C61.87 225.19, 44.74 210.14, 0.5 171.67 M83.88 238.85 C61.58 219.23, 35.31 198.23, 0.1 166.02 M83.88 238.85 C59.56 218.07, 34.66 196.86, 0.1 166.02 M90.27 239.11 C63.71 213.68, 36.67 190.64, 0.46 161.04 M90.27 239.11 C71.82 223.1, 52.33 207.2, 0.46 161.04 M95.92 238.71 C66.07 210.66, 33.79 185.11, 0.07 155.39 M95.92 238.71 C75.87 219.99, 54.79 203.64, 0.07 155.39 M102.31 238.98 C65.5 207.64, 29.73 175.41, 0.43 150.41 M102.31 238.98 C73.9 213.59, 43.42 188.56, 0.43 150.41 M108.71 239.24 C75.19 214.08, 43.76 186.03, 0.03 144.76 M108.71 239.24 C70.82 205.97, 32.46 172.85, 0.03 144.76 M114.36 238.84 C82.08 211.05, 48.66 183.9, 0.39 139.78 M114.36 238.84 C87.27 215.49, 60.22 192.56, 0.39 139.78 M120.75 239.1 C90.02 211.66, 59.25 185.73, 0 134.13 M120.75 239.1 C84.91 206.18, 48.56 173.91, 0 134.13 M126.4 238.71 C78.92 196.52, 30.31 155.21, 0.36 129.15 M126.4 238.71 C101.05 215.85, 73.7 191.24, 0.36 129.15 M132.79 238.97 C101.94 215.96, 72.7 190.17, -0.03 123.5 M132.79 238.97 C89.78 201.02, 46.25 162.71, -0.03 123.5 M139.19 239.23 C88.82 194.19, 34.88 148.84, 0.33 118.52 M139.19 239.23 C92.47 199, 46.23 159.74, 0.33 118.52 M144.84 238.84 C105.27 208.89, 71.28 175.69, 0.69 113.53 M144.84 238.84 C92.48 192.28, 38.44 146.22, 0.69 113.53 M151.23 239.1 C99.64 195.79, 50.14 151.86, 0.29 107.89 M151.23 239.1 C107.27 199, 62.89 161.24, 0.29 107.89 M156.88 238.7 C111.64 198.52, 65.05 160.16, 0.65 102.9 M156.88 238.7 C124.14 208.5, 89.43 178.56, 0.65 102.9 M163.27 238.97 C112.84 196.57, 62.54 151.87, 0.26 97.26 M163.27 238.97 C104.53 188.08, 45.96 137.64, 0.26 97.26 M169.67 239.23 C110.17 187.04, 48.94 133.43, 0.62 92.27 M169.67 239.23 C107.33 184.55, 44.78 129.72, 0.62 92.27 M175.31 238.83 C117.64 188.6, 57.32 136.18, 0.22 86.63 M175.31 238.83 C110.66 183.41, 46.28 126.75, 0.22 86.63 M181.71 239.09 C115.41 183.12, 51.32 127.16, 0.58 81.64 M181.71 239.09 C118 182.01, 53.2 126.51, 0.58 81.64 M187.36 238.7 C142.92 198.91, 97.13 159.89, 0.19 76 M187.36 238.7 C121.92 183.68, 57.69 127.6, 0.19 76 M193.75 238.96 C145.65 194.39, 95.65 153.37, 0.55 71.01 M193.75 238.96 C153.54 206.45, 113.92 171.37, 0.55 71.01 M200.15 239.22 C121.06 169.63, 43.13 102.33, 0.15 65.37 M200.15 239.22 C147.98 195.8, 98.17 152.46, 0.15 65.37 M205.79 238.83 C141.09 183.26, 76.41 125.87, 0.51 60.38 M205.79 238.83 C161.88 200.53, 117.58 162.14, 0.51 60.38 M212.19 239.09 C132.44 168.18, 49.39 95.84, 0.87 55.39 M212.19 239.09 C158.24 192.67, 103.35 145.4, 0.87 55.39 M217.84 238.69 C161.77 188.54, 101.04 137.1, 0.48 49.75 M217.84 238.69 C140.97 172.49, 64.54 106.18, 0.48 49.75 M224.23 238.96 C146.64 168.96, 66.46 101.19, 0.84 44.76 M224.23 238.96 C160.38 183.62, 96.63 129.27, 0.84 44.76 M230.63 239.22 C155.4 172.56, 78.39 107.32, 0.44 39.12 M230.63 239.22 C173.84 188.44, 116.14 139.36, 0.44 39.12 M236.27 238.82 C180.99 190.02, 127.79 143.07, 0.8 34.13 M236.27 238.82 C180.18 190.9, 126.46 144, 0.8 34.13 M242.67 239.08 C148.83 158.79, 53.98 76.24, 0.41 28.49 M242.67 239.08 C188.53 194.04, 136.71 148.13, 0.41 28.49 M248.31 238.69 C172.45 171.68, 95.12 106.36, 0.77 23.5 M248.31 238.69 C158.59 158.38, 67.13 79, 0.77 23.5 M254.71 238.95 C203.06 192.89, 150.92 149.78, 1.88 19.17 M254.71 238.95 C195.15 186.2, 135.61 134.26, 1.88 19.17 M260.36 238.56 C189.38 177.39, 116.28 114.49, 3.75 15.5 M260.36 238.56 C175.43 161.53, 87.86 87.11, 3.75 15.5 M265.24 237.51 C205.69 184.15, 143.1 132.58, 5.62 11.82 M265.24 237.51 C171.47 156.58, 77.89 74.59, 5.62 11.82 M270.13 236.46 C164.62 143.44, 60.35 53.14, 7.49 8.15 M270.13 236.46 C177.24 155.5, 84.67 73.99, 7.49 8.15 M275.02 235.4 C223.99 190.05, 168.77 144.54, 10.87 5.78 M275.02 235.4 C192.37 162.5, 109.29 89.55, 10.87 5.78 M278.4 233.04 C197.67 164.27, 117.41 93.77, 15.01 4.08 M278.4 233.04 C226.27 188.82, 173.3 143.01, 15.01 4.08 M282.53 231.34 C203.15 160.06, 121.8 91.03, 18.38 1.71 M282.53 231.34 C205.12 163.79, 125.18 95.06, 18.38 1.71 M284.4 227.66 C227.47 177.97, 168.25 128.05, 23.27 0.66 M284.4 227.66 C220.35 172.76, 159.17 118.46, 23.27 0.66 M286.27 223.99 C227.03 175.88, 170.94 125.16, 28.92 0.27 M286.27 223.99 C190.23 141.67, 93.89 57.35, 28.92 0.27 M288.9 220.97 C203.61 147.7, 118.07 75.12, 33.8 -0.78 M288.9 220.97 C188.03 134.77, 87.63 46.72, 33.8 -0.78 M289.26 215.98 C212.11 148.19, 131.57 77.02, 40.2 -0.52 M289.26 215.98 C216.14 152.49, 144.37 88.86, 40.2 -0.52 M289.62 210.99 C236.52 162.58, 184.32 118.22, 46.6 -0.26 M289.62 210.99 C197.87 131.42, 106.67 51.87, 46.6 -0.26 M290.73 206.66 C238.93 158.74, 184.14 111.38, 52.24 -0.65 M290.73 206.66 C229.28 154.17, 169.03 100.93, 52.24 -0.65 M290.34 201.02 C237.8 153.54, 185.72 108.89, 58.64 -0.39 M290.34 201.02 C232.5 150.88, 176.12 102.06, 58.64 -0.39 M290.7 196.03 C231.76 144.98, 171.04 94.36, 64.28 -0.79 M290.7 196.03 C212.5 127.93, 133.22 58.5, 64.28 -0.79 M290.3 190.39 C230.01 137.73, 167.17 82.87, 70.68 -0.52 M290.3 190.39 C232.88 139.81, 175.73 91.13, 70.68 -0.52 M290.66 185.4 C244.46 143.89, 197.76 105.55, 77.08 -0.26 M290.66 185.4 C220.78 122.91, 148.59 61.69, 77.08 -0.26 M290.27 179.76 C227.55 126.02, 164.91 71.97, 82.72 -0.66 M290.27 179.76 C242.19 137.93, 196.77 97.73, 82.72 -0.66 M290.63 174.77 C218.07 112.95, 146.07 47.68, 89.12 -0.4 M290.63 174.77 C243.6 132.18, 194.93 90.87, 89.12 -0.4 M290.23 169.13 C221.12 107.94, 150.82 44.96, 94.76 -0.79 M290.23 169.13 C224.27 111.09, 157.07 53.87, 94.76 -0.79 M290.59 164.14 C243.7 121.66, 193.15 80.37, 101.16 -0.53 M290.59 164.14 C221.21 104.5, 154.38 46.08, 101.16 -0.53 M290.95 159.15 C230.66 107.35, 169.07 54.8, 107.56 -0.27 M290.95 159.15 C224.59 101.47, 158.46 43.19, 107.56 -0.27 M290.56 153.51 C234.78 105.29, 178.48 57.35, 113.2 -0.66 M290.56 153.51 C241.77 114.74, 194.68 72.59, 113.2 -0.66 M290.92 148.52 C247.85 111.17, 203.28 74.05, 119.6 -0.4 M290.92 148.52 C253.58 115.71, 216.59 84, 119.6 -0.4 M290.52 142.88 C249.4 108.36, 211.99 74.41, 125.24 -0.8 M290.52 142.88 C256.24 114.02, 221.86 84.96, 125.24 -0.8 M290.88 137.89 C237.52 90.61, 182.4 44.78, 131.64 -0.53 M290.88 137.89 C255.68 106.71, 219.14 75.7, 131.64 -0.53 M290.49 132.25 C256.18 100.87, 221.09 72.03, 138.04 -0.27 M290.49 132.25 C246.88 94.02, 200.8 54.77, 138.04 -0.27 M290.85 127.26 C231.75 75, 177.52 25.32, 143.68 -0.67 M290.85 127.26 C252.4 94.45, 216.53 63.44, 143.68 -0.67 M290.46 121.62 C243.4 79.46, 197.8 37.54, 150.08 -0.41 M290.46 121.62 C245.42 81.49, 199.73 40.66, 150.08 -0.41 M290.82 116.63 C239.02 71.26, 188.54 27.53, 155.72 -0.8 M290.82 116.63 C245.53 74.96, 198.41 34.82, 155.72 -0.8 M290.42 110.99 C249.96 76.35, 213.31 42.09, 162.12 -0.54 M290.42 110.99 C244.67 74.2, 200.64 34.98, 162.12 -0.54 M290.78 106 C258.86 76.69, 225.59 45.55, 168.52 -0.28 M290.78 106 C250.36 72.02, 211.07 36.78, 168.52 -0.28 M290.39 100.36 C252.35 63.87, 209.71 28.2, 174.16 -0.67 M290.39 100.36 C255.7 70.17, 222.08 40.57, 174.16 -0.67 M290.75 95.37 C248.71 56.78, 206.17 20.78, 180.56 -0.41 M290.75 95.37 C248.46 57.69, 205.55 21.5, 180.56 -0.41 M290.35 89.73 C250.09 55.46, 214.15 23.63, 186.2 -0.81 M290.35 89.73 C252.65 57.37, 215.09 23.7, 186.2 -0.81 M290.71 84.74 C266.52 63.32, 239.89 39.65, 192.6 -0.54 M290.71 84.74 C261.9 59.93, 232.5 33.36, 192.6 -0.54 M290.32 79.1 C258.46 50.97, 231.62 26.13, 199 -0.28 M290.32 79.1 C267.78 59.7, 244.49 40.56, 199 -0.28 M290.68 74.11 C260.47 49, 232.47 25.58, 204.64 -0.68 M290.68 74.11 C255.3 43.62, 221.28 13.78, 204.64 -0.68 M290.28 68.47 C268.55 46.34, 244.62 28.37, 211.04 -0.42 M290.28 68.47 C268.36 49, 245.08 31.41, 211.04 -0.42 M290.64 63.48 C267.91 44.35, 245.16 23.15, 216.68 -0.81 M290.64 63.48 C261.77 38.41, 235.43 14.42, 216.68 -0.81 M290.25 57.84 C262.57 35.29, 238.9 13.16, 223.08 -0.55 M290.25 57.84 C272.56 40.38, 252.71 24.98, 223.08 -0.55 M290.61 52.85 C278.13 39.2, 261.8 28.03, 229.48 -0.29 M290.61 52.85 C269.8 36.05, 249.96 17.97, 229.48 -0.29 M290.97 47.87 C276.94 35.44, 267.02 23.27, 235.12 -0.68 M290.97 47.87 C272.42 31.76, 251.82 14.68, 235.12 -0.68 M290.57 42.22 C274.58 28.59, 259.27 16.86, 241.52 -0.42 M290.57 42.22 C275.1 29.1, 260.61 16.85, 241.52 -0.42 M290.93 37.24 C276.67 26.9, 263.95 13.15, 247.16 -0.82 M290.93 37.24 C280.51 27.36, 269.71 20.05, 247.16 -0.82 M290.54 31.59 C276.85 20.62, 263.59 8.9, 253.56 -0.55 M290.54 31.59 C279.33 22.4, 268.41 12.55, 253.56 -0.55 M289.39 25.29 C279.1 15.44, 269.18 9.05, 259.96 -0.29 M289.39 25.29 C279.21 16.28, 267.96 6.25, 259.96 -0.29 M289 19.65 C283.39 13.44, 276.29 7.81, 267.11 0.63 M289 19.65 C281.93 13.76, 273.84 6.83, 267.11 0.63 M283.32 9.42 C282.71 8.74, 281.09 6.99, 277.28 4.17 M283.32 9.42 C281.93 8.25, 280.14 6.71, 277.28 4.17" stroke="#b2f2bb" stroke-width="0.5" fill="none"></path><path d="M32 0 C97.2 0.48, 159.42 2.1, 258.05 0 M32 0 C117.58 -1.44, 202.85 -1.33, 258.05 0 M258.05 0 C280.88 0.85, 291.78 9.6, 290.05 32 M258.05 0 C281.27 -1.44, 287.96 10.74, 290.05 32 M290.05 32 C287.39 91.34, 287.91 147.13, 290.05 207.19 M290.05 32 C290.66 102.03, 291.22 170.68, 290.05 207.19 M290.05 207.19 C289.67 229.56, 278.42 237.92, 258.05 239.19 M290.05 207.19 C291.67 229.14, 277.41 237.28, 258.05 239.19 M258.05 239.19 C200.78 239.27, 144.55 239.6, 32 239.19 M258.05 239.19 C208.03 240.6, 156.96 239.97, 32 239.19 M32 239.19 C9.18 237.45, -1.03 230.37, 0 207.19 M32 239.19 C9.94 241.26, -0.36 226.48, 0 207.19 M0 207.19 C1.26 161.35, -0.56 112.55, 0 32 M0 207.19 C-0.29 156.73, 0.5 108.49, 0 32 M0 32 C1.05 11.78, 8.82 0.33, 32 0 M0 32 C-1.75 9.98, 11.07 -1.37, 32 0" stroke="#1e1e1e" stroke-width="1" fill="none"></path></g><g stroke-linecap="round" transform="translate(10 27.870475096191967) rotate(0 74.91853021095858 43.30153581000354)"><path d="M21.65 0 C57.28 -1.79, 93.8 2.35, 128.19 0 C139.92 0.2, 147.47 9.41, 149.84 21.65 C148.91 34.69, 147.91 41.69, 149.84 64.95 C150.15 77.3, 141.15 83.55, 128.19 86.6 C98.33 86.4, 75.46 85.44, 21.65 86.6 C5.92 85.02, 0.2 82.83, 0 64.95 C0.43 48.63, -0.11 30.46, 0 21.65 C1.45 9.98, 6.04 3.25, 21.65 0" stroke="none" stroke-width="0" fill="#ffec99"></path><path d="M21.65 0 C44.69 2.37, 66.24 1.55, 128.19 0 M21.65 0 C59.19 0.55, 95.97 1.46, 128.19 0 M128.19 0 C143.85 0.98, 149.34 8.56, 149.84 21.65 M128.19 0 C143.63 -0.84, 149.01 7.56, 149.84 21.65 M149.84 21.65 C151.02 34.89, 147.92 46.31, 149.84 64.95 M149.84 21.65 C149.51 38.94, 149.55 56.24, 149.84 64.95 M149.84 64.95 C150.47 80.38, 141.81 88.53, 128.19 86.6 M149.84 64.95 C149.77 80.61, 144.84 85.63, 128.19 86.6 M128.19 86.6 C97.88 86.88, 69.93 85.48, 21.65 86.6 M128.19 86.6 C95.4 88.12, 61.81 87.24, 21.65 86.6 M21.65 86.6 C8.15 85.33, 0.95 78.77, 0 64.95 M21.65 86.6 C6.21 85.96, -0.28 80.23, 0 64.95 M0 64.95 C2.19 54.55, -0.13 46.31, 0 21.65 M0 64.95 C0.54 52, -0.92 39.24, 0 21.65 M0 21.65 C-0.33 8.53, 6.01 -1.82, 21.65 0 M0 21.65 C-1.97 8.21, 7 -2.16, 21.65 0" stroke="#1e1e1e" stroke-width="1" fill="none"></path></g><g transform="translate(23.885197386251548 61.17201090619551) rotate(0 61.03333282470703 10)"><text x="61.03333282470703" y="14.016" font-family="Virgil, Segoe UI Emoji" font-size="16px" fill="#1e1e1e" text-anchor="middle" style="white-space: pre;" direction="ltr" dominant-baseline="alphabetic">GraphQLSchema</text></g><g stroke-linecap="round" transform="translate(357.78693841050426 175.64555762239445) rotate(0 68.73259652381512 46.05083967095612)"><path d="M23.03 0 C52.87 -1.8, 83.72 -0.25, 114.44 0 C133.08 -3.21, 138.97 10.07, 137.47 23.03 C135.35 35.67, 133.84 49.29, 137.47 69.08 C140.47 84.75, 131.41 92.75, 114.44 92.1 C91.99 94.22, 73.69 89.85, 23.03 92.1 C6.25 90.31, 0.43 86.74, 0 69.08 C-2.07 57.5, -3.32 46.07, 0 23.03 C-3.26 4.43, 9.09 3.12, 23.03 0" stroke="none" stroke-width="0" fill="#ffec99"></path><path d="M23.03 0 C45.09 1.79, 68.9 -1.1, 114.44 0 M23.03 0 C48.27 0.72, 73.82 -0.31, 114.44 0 M114.44 0 C128.99 1.76, 138.66 7.61, 137.47 23.03 M114.44 0 C130.31 -0.38, 136.68 8.37, 137.47 23.03 M137.47 23.03 C138.73 40.76, 136.37 61.53, 137.47 69.08 M137.47 23.03 C138.34 35.56, 137.33 49.25, 137.47 69.08 M137.47 69.08 C137.55 85.47, 129.4 92.02, 114.44 92.1 M137.47 69.08 C138.6 83.3, 130.53 92.33, 114.44 92.1 M114.44 92.1 C81.77 94.38, 46.5 92.92, 23.03 92.1 M114.44 92.1 C79.35 91.56, 43.88 92.45, 23.03 92.1 M23.03 92.1 C9.24 90.23, -1.02 84.61, 0 69.08 M23.03 92.1 C6.15 90.62, -0.77 84, 0 69.08 M0 69.08 C1 58.95, 0.32 49.31, 0 23.03 M0 69.08 C-0.7 51.27, 0.36 34.77, 0 23.03 M0 23.03 C0.92 7.61, 5.7 0.01, 23.03 0 M0 23.03 C-1.06 6.53, 9 0.87, 23.03 0" stroke="#1e1e1e" stroke-width="1" fill="none"></path></g><g transform="translate(363.9028700478448 211.69639729335063) rotate(0 62.61666488647461 10)"><text x="62.61666488647461" y="14.016" font-family="Virgil, Segoe UI Emoji" font-size="16px" fill="#1e1e1e" text-anchor="middle" style="white-space: pre;" direction="ltr" dominant-baseline="alphabetic">MongoConnection</text></g><g stroke-linecap="round" transform="translate(56.73816563619721 212.07383378001646) rotate(0 77.66783407191087 44.676187740479804)"><path d="M22.34 0 C52.34 1.88, 89.99 -2.05, 133 0 C145.31 -3.57, 157.65 10.18, 155.34 22.34 C157.3 36.77, 157.97 53.48, 155.34 67.01 C156.45 81.12, 147.73 90.05, 133 89.35 C104.78 91.34, 73.18 92.06, 22.34 89.35 C4.36 86.17, 0.08 84.14, 0 67.01 C2.05 59, -1.14 48.96, 0 22.34 C0.28 4.19, 9.66 -0.19, 22.34 0" stroke="none" stroke-width="0" fill="#ffec99"></path><path d="M22.34 0 C66.92 -0.56, 110.19 0.25, 133 0 M22.34 0 C66.34 0.34, 110.06 -0.59, 133 0 M133 0 C148.37 -0.95, 154.15 8.04, 155.34 22.34 M133 0 C149.75 -2.11, 153.43 6.13, 155.34 22.34 M155.34 22.34 C155.87 35.45, 156.85 51.6, 155.34 67.01 M155.34 22.34 C155.36 33.68, 155.96 45.59, 155.34 67.01 M155.34 67.01 C155.06 81.34, 146.07 89.76, 133 89.35 M155.34 67.01 C156.71 80.45, 146.74 88.27, 133 89.35 M133 89.35 C99.84 90.25, 66.31 87.92, 22.34 89.35 M133 89.35 C105.08 89.93, 76.9 90.73, 22.34 89.35 M22.34 89.35 C7.27 87.4, -1.92 81.56, 0 67.01 M22.34 89.35 C9.47 87.78, 2.22 80.82, 0 67.01 M0 67.01 C-0.46 53.18, -2.04 38.51, 0 22.34 M0 67.01 C0.59 53.07, -0.18 41.18, 0 22.34 M0 22.34 C-1 9, 7.27 1.73, 22.34 0 M0 22.34 C1.21 5.84, 6 1.82, 22.34 0" stroke="#1e1e1e" stroke-width="1" fill="none"></path></g><g transform="translate(97.37266688340105 246.75002152049626) rotate(0 37.03333282470703 10)"><text x="37.03333282470703" y="14.016" font-family="Virgil, Segoe UI Emoji" font-size="16px" fill="#1e1e1e" text-anchor="middle" style="white-space: pre;" direction="ltr" dominant-baseline="alphabetic">Resolvers</text></g><g transform="translate(240.94152432002147 118.59750250762795) rotate(0 42.88333511352539 10)"><text x="0" y="14.016" font-family="Virgil, Segoe UI Emoji" font-size="16px" fill="#1e1e1e" text-anchor="start" style="white-space: pre;" direction="ltr" dominant-baseline="alphabetic">Graphlette</text></g></svg>