<svg version="1.1" xmlns="http://www.w3.org/2000/svg" viewBox="0 0 406.27719246384095 301.8036457476419" width="812.5543849276819" height="603.6072914952838">
  <!-- svg-source:excalidraw -->
  
  <defs>
    <style class="style-fonts">
      @font-face {
        font-family: "Virgil";
        src: url("https://excalidraw.com/Virgil.woff2");
      }
      @font-face {
        font-family: "Cascadia";
        src: url("https://excalidraw.com/Cascadia.woff2");
      }
      @font-face {
        font-family: "Assistant";
        src: url("https://app.excalidraw.com//dist/excalidraw-assets/Assistant-Regular.woff2");
      }
    </style>
    
  </defs>
  <rect x="0" y="0" width="406.27719246384095" height="301.8036457476419" fill="#ffffff"></rect><g stroke-linecap="round" transform="translate(81.48190038476832 9.999999999999972) rotate(0 145.71310463048803 140.90182287382098)"><path d="M49.87 34.08 C49.87 34.08, 49.87 34.08, 49.87 34.08 M49.87 34.08 C49.87 34.08, 49.87 34.08, 49.87 34.08 M24.02 69.91 C31.18 60.32, 39.82 48.36, 60.76 27.65 M24.02 69.91 C37.42 53.86, 51.2 38.64, 60.76 27.65 M18.51 82.34 C35.46 61.27, 52.68 42.3, 72.31 20.46 M18.51 82.34 C39.7 58.67, 59.86 34.66, 72.31 20.46 M13 94.78 C28.57 76.09, 48.58 55.32, 83.2 14.03 M13 94.78 C35.83 67.99, 58.99 40.72, 83.2 14.03 M5.53 109.48 C35.02 75.34, 61.81 42.64, 90.16 12.12 M5.53 109.48 C29.86 80.59, 54.7 50.82, 90.16 12.12 M5.26 115.88 C31.33 83.46, 61.47 50.82, 96.46 10.97 M5.26 115.88 C34.41 80.5, 66.34 46.23, 96.46 10.97 M5 122.28 C35.04 86.77, 63.34 55.76, 103.41 9.07 M5 122.28 C26.28 98.44, 47.56 73.44, 103.41 9.07 M4.74 128.67 C44.24 84.48, 82.86 37.38, 109.71 7.92 M4.74 128.67 C35.21 93.08, 68.7 56.17, 109.71 7.92 M4.48 135.07 C28.45 106.56, 51.32 78.64, 116.67 6.02 M4.48 135.07 C31.88 101.12, 60.35 69.96, 116.67 6.02 M4.22 141.47 C31.63 109.29, 56.46 80.59, 122.97 4.87 M4.22 141.47 C45.28 96.02, 86.72 47.39, 122.97 4.87 M3.96 147.87 C31.3 116.03, 60.6 82.54, 129.92 2.96 M3.96 147.87 C50.9 95.11, 96.68 41.55, 129.92 2.96 M3.04 155.02 C49.29 101.34, 95.6 49.57, 134.91 3.32 M3.04 155.02 C48.3 100.78, 94.67 48.62, 134.91 3.32 M4.09 159.91 C42.05 113.44, 78.76 69.18, 139.89 3.68 M4.09 159.91 C34.62 124.17, 64.97 88.12, 139.89 3.68 M5.8 164.04 C43.21 118.91, 83.17 74.05, 144.88 4.04 M5.8 164.04 C60.16 101.29, 114.13 39.78, 144.88 4.04 M6.85 168.93 C50.3 119.96, 91.23 72.57, 149.87 4.4 M6.85 168.93 C58.77 111.22, 108.42 52.69, 149.87 4.4 M7.9 173.82 C45.64 134.07, 80.75 91.99, 154.86 4.76 M7.9 173.82 C53.34 123.43, 98.12 73.11, 154.86 4.76 M8.95 178.71 C62.54 120.73, 111.22 61.9, 159.84 5.12 M8.95 178.71 C61.13 116.98, 114.03 54.84, 159.84 5.12 M10.66 182.84 C60.59 125.9, 111.45 67.67, 164.83 5.48 M10.66 182.84 C59.13 127.72, 106.88 72.27, 164.83 5.48 M11.71 187.73 C53.54 138.13, 94.13 92.24, 169.82 5.84 M11.71 187.73 C62.88 128.3, 113.46 71.2, 169.82 5.84 M12.76 192.62 C62.49 136.74, 110.55 80.63, 174.8 6.2 M12.76 192.62 C48.14 153.03, 83.55 111.68, 174.8 6.2 M14.46 196.75 C61.57 141.09, 111.61 83.37, 180.45 5.81 M14.46 196.75 C51.36 155.43, 86.99 113.57, 180.45 5.81 M16.83 200.13 C84.02 121.62, 151.12 46.29, 184.12 7.68 M16.83 200.13 C50.72 161.04, 85.33 122.19, 184.12 7.68 M18.53 204.26 C59.68 160.45, 96.42 114.6, 188.45 8.79 M18.53 204.26 C65.12 148.48, 112.46 95.31, 188.45 8.79 M20.9 207.64 C73.97 144.98, 126.89 84.49, 192.78 9.91 M20.9 207.64 C60.15 163.91, 98.77 118.85, 192.78 9.91 M23.26 211.02 C61.33 163.16, 102.5 117.27, 196.46 11.78 M23.26 211.02 C63.48 166.12, 103.06 118.57, 196.46 11.78 M25.62 214.4 C65.35 166.03, 107.39 119.62, 200.79 12.89 M25.62 214.4 C63.72 171.62, 101.32 128.21, 200.79 12.89 M27.33 218.53 C67.72 170.56, 112.04 119.99, 204.46 14.76 M27.33 218.53 C78.01 160.22, 127.98 102.2, 204.46 14.76 M29.69 221.91 C68.43 175.97, 105.74 135, 208.8 15.88 M29.69 221.91 C81.67 161.71, 133.97 102.55, 208.8 15.88 M32.05 225.29 C97.95 151.04, 165.92 75.51, 212.47 17.75 M32.05 225.29 C86.44 162.64, 141.07 100.57, 212.47 17.75 M34.42 228.67 C101.01 152.78, 166.53 75, 216.8 18.86 M34.42 228.67 C95.8 158.95, 157.34 87.83, 216.8 18.86 M36.12 232.8 C90.39 168.34, 143.26 105.62, 221.13 19.98 M36.12 232.8 C83.17 179.02, 128.76 125.61, 221.13 19.98 M39.14 235.43 C90.76 176.76, 143.27 114.06, 224.15 22.6 M39.14 235.43 C81.09 184.85, 123.88 135.05, 224.15 22.6 M42.16 238.05 C93.01 179.13, 144.01 120.37, 227.17 25.22 M42.16 238.05 C105.6 165.95, 170.52 90.47, 227.17 25.22 M45.18 240.68 C89.94 191.09, 133.78 139.13, 230.19 27.85 M45.18 240.68 C85.54 196.32, 126.09 150.05, 230.19 27.85 M48.2 243.3 C110.24 169.04, 176.68 96.77, 233.86 29.72 M48.2 243.3 C109.03 174.77, 168.41 106.14, 233.86 29.72 M51.22 245.93 C119.54 167.26, 188.35 88.05, 236.88 32.34 M51.22 245.93 C109.32 176.89, 168.88 107.88, 236.88 32.34 M54.24 248.55 C108.44 186.07, 162.58 124.04, 239.9 34.97 M54.24 248.55 C118.88 173.18, 183.38 98.27, 239.9 34.97 M57.26 251.17 C110.15 191.58, 162.79 129.4, 242.92 37.59 M57.26 251.17 C121.27 179.06, 185.58 105.3, 242.92 37.59 M60.27 253.8 C115.75 190.65, 168.1 128.35, 245.94 40.21 M60.27 253.8 C118.85 186.14, 177.89 119.9, 245.94 40.21 M63.29 256.42 C113.11 201.31, 160.43 146.31, 248.96 42.84 M63.29 256.42 C114.32 198.37, 164.79 139.81, 248.96 42.84 M66.31 259.05 C119.72 199.6, 171.94 136.63, 251.98 45.46 M66.31 259.05 C130.3 186.01, 195.13 111.61, 251.98 45.46 M69.33 261.67 C116.89 208.95, 162.12 156.77, 255 48.09 M69.33 261.67 C117.71 204.06, 166.66 148.49, 255 48.09 M72.35 264.29 C144.02 182.48, 213.17 102.47, 258.01 50.71 M72.35 264.29 C122.56 203.29, 174.83 144.66, 258.01 50.71 M76.68 265.41 C128.73 208.79, 178.81 150.38, 260.38 54.09 M76.68 265.41 C125.42 210.75, 172.07 156.49, 260.38 54.09 M80.36 267.28 C129.54 209.97, 178.43 153.28, 262.74 57.47 M80.36 267.28 C120.36 224.38, 159.35 179.21, 262.74 57.47 M84.69 268.39 C129.63 219.74, 173.79 166.16, 265.1 60.85 M84.69 268.39 C153.18 192.9, 219.11 114.4, 265.1 60.85 M88.36 270.26 C126.03 224.89, 163.74 180.85, 266.81 64.98 M88.36 270.26 C147.69 203.76, 205.87 136.26, 266.81 64.98 M92.69 271.38 C148.26 205.18, 205.95 141.61, 269.17 68.36 M92.69 271.38 C143.84 209.94, 197.47 149.54, 269.17 68.36 M96.37 273.25 C136.41 225.82, 178.94 178.88, 271.54 71.74 M96.37 273.25 C143.38 216.07, 192.68 160.48, 271.54 71.74 M100.7 274.36 C159.85 205.71, 220.19 135.97, 273.9 75.12 M100.7 274.36 C153.79 211.81, 208.13 149.06, 273.9 75.12 M104.37 276.23 C162.74 208.2, 219.43 139.72, 276.26 78.5 M104.37 276.23 C139.82 233.59, 177.15 192.51, 276.26 78.5 M108.7 277.35 C148.66 232.96, 185.79 190.16, 278.62 81.88 M108.7 277.35 C154.07 225.96, 199.22 175.37, 278.62 81.88 M113.04 278.46 C161.06 220.42, 213.33 161.04, 280.33 86.01 M113.04 278.46 C167.95 214.52, 223.86 150.03, 280.33 86.01 M118.02 278.82 C177.43 211.21, 234.07 143.39, 281.38 90.9 M118.02 278.82 C179.67 206.78, 242.91 135.48, 281.38 90.9 M123.01 279.18 C166.29 230.07, 208.23 180.83, 282.43 95.79 M123.01 279.18 C176.61 215.96, 231.53 153.31, 282.43 95.79 M127.34 280.3 C189.21 211.08, 246.91 142.22, 284.14 99.92 M127.34 280.3 C169.71 231.96, 211.6 183.52, 284.14 99.92 M132.33 280.66 C184.18 221.66, 234.26 162.33, 285.19 104.81 M132.33 280.66 C164.16 243.2, 195.39 207.86, 285.19 104.81 M137.31 281.02 C172.93 239.22, 208.66 199.01, 286.24 109.7 M137.31 281.02 C184.84 227.16, 232.42 174.58, 286.24 109.7 M142.3 281.38 C173.28 244.15, 208.78 206.09, 287.29 114.59 M142.3 281.38 C195.41 218.6, 249.58 155, 287.29 114.59 M147.29 281.74 C193.8 230.02, 238.46 177.77, 289 118.72 M147.29 281.74 C188.2 235.95, 227.43 190.54, 289 118.72 M152.28 282.1 C205.79 220.7, 257.32 160.91, 290.05 123.61 M152.28 282.1 C202.87 222.34, 254.45 161.39, 290.05 123.61 M156.61 283.21 C196.17 235.97, 239.54 189.51, 291.1 128.5 M156.61 283.21 C198.2 233.6, 240.36 185.33, 291.1 128.5 M160.94 284.33 C191.19 247.08, 224.17 213.21, 294.12 131.12 M160.94 284.33 C190.68 252.03, 218.93 219.47, 294.12 131.12 M167.24 283.18 C207.09 237.54, 251.95 187.69, 293.86 137.52 M167.24 283.18 C209.27 235.63, 252.77 187.85, 293.86 137.52 M174.19 281.27 C220.1 228.94, 265.31 176.96, 292.94 144.67 M174.19 281.27 C218.97 230.11, 263.86 178.67, 292.94 144.67 M181.15 279.37 C205.69 252.05, 226.98 223.43, 292.68 151.07 M181.15 279.37 C205.9 250.05, 231.47 221.93, 292.68 151.07 M188.1 277.47 C210.4 248.42, 235.75 222.56, 292.42 157.47 M188.1 277.47 C209.98 251.83, 232.76 226.56, 292.42 157.47 M194.4 276.32 C218.6 247.31, 243.64 222.54, 292.15 163.86 M194.4 276.32 C221.08 245.51, 246.57 214.14, 292.15 163.86 M203.32 272.15 C228.65 243.39, 254.46 214.08, 288.61 174.04 M203.32 272.15 C235.86 235.02, 268.22 196.33, 288.61 174.04 M214.87 264.96 C242.38 233.18, 267.93 203.33, 283.1 186.47 M214.87 264.96 C238.37 238.73, 260.75 212.03, 283.1 186.47 M225.76 258.53 C244.01 239.78, 260.59 220.17, 277.59 198.91 M225.76 258.53 C246.26 235.38, 265.53 212.46, 277.59 198.91 M236.66 252.1 C247.18 240.44, 256.5 228.73, 272.74 210.59 M236.66 252.1 C246.1 242.16, 254.36 232.95, 272.74 210.59 M35.25 232.29 C35.25 232.29, 35.25 232.29, 35.25 232.29 M35.25 232.29 C35.25 232.29, 35.25 232.29, 35.25 232.29 M72.6 259.45 C61.8 249.01, 52.29 242.33, 28.82 221.39 M72.6 259.45 C58.36 246.14, 42.38 233.63, 28.82 221.39 M82.77 262.99 C65.8 250.53, 54.24 239.75, 21.64 209.85 M82.77 262.99 C67.67 251.03, 51.78 237.39, 21.64 209.85 M93.69 267.18 C76.52 251.34, 57.11 237.69, 14.45 198.3 M93.69 267.18 C67.97 246.32, 45.25 225.1, 14.45 198.3 M103.86 270.73 C72.7 242.08, 39.91 212.62, 14.05 192.66 M103.86 270.73 C77.28 246.92, 50.29 224.54, 14.05 192.66 M114.79 274.92 C80.62 244.49, 48.47 218.17, 12.15 185.7 M114.79 274.92 C79.92 244.66, 47.5 215.16, 12.15 185.7 M121.19 275.19 C77.52 237.88, 35.88 199.95, 11 179.4 M121.19 275.19 C85.59 245.98, 51.66 216.59, 11 179.4 M128.34 276.1 C83.95 237.12, 41.64 200.49, 9.1 172.45 M128.34 276.1 C97.96 248.22, 67.15 221.51, 9.1 172.45 M135.49 277.02 C100.55 246.59, 67.77 216.52, 7.19 165.49 M135.49 277.02 C87.65 235.66, 39.98 192.7, 7.19 165.49 M141.89 277.28 C105.74 250.23, 72.27 220.67, 5.29 158.54 M141.89 277.28 C89.63 233.05, 36.87 188.54, 5.29 158.54 M149.04 278.2 C105.07 242.25, 59.31 204.33, 3.38 151.58 M149.04 278.2 C99.57 233.88, 49.37 189.72, 3.38 151.58 M158.46 281.09 C103.01 233.3, 46.99 184.77, 3.74 146.59 M158.46 281.09 C118.04 245.7, 77.83 209.87, 3.74 146.59 M163.35 280.04 C101.65 224.9, 36.01 171.06, 3.35 140.95 M163.35 280.04 C123.83 245.41, 84 211.29, 3.35 140.95 M168.24 278.98 C110.55 230.2, 52.39 178.64, 3.71 135.96 M168.24 278.98 C111.23 228.57, 54.64 178.44, 3.71 135.96 M173.13 277.93 C135.32 246.47, 99.74 214.4, 4.07 130.98 M173.13 277.93 C122.68 234.31, 72.55 191.4, 4.07 130.98 M177.26 276.23 C113.35 220.67, 51.43 163.38, 4.43 125.99 M177.26 276.23 C115.5 223.85, 55.03 172.4, 4.43 125.99 M182.15 275.18 C143.18 238.69, 103.85 204.4, 4.79 121 M182.15 275.18 C136 235.06, 90.98 195.56, 4.79 121 M187.04 274.13 C149.06 238.34, 109.02 206.11, 5.15 116.02 M187.04 274.13 C141.94 234.6, 96.79 194.37, 5.15 116.02 M191.92 273.07 C146.93 232.41, 102.74 196.16, 4.76 110.37 M191.92 273.07 C141.32 231.09, 89.98 186.45, 4.76 110.37 M196.06 271.37 C120.23 205.07, 45.09 141.26, 5.12 105.39 M196.06 271.37 C135.19 218.61, 76.67 167.29, 5.12 105.39 M200.95 270.32 C149.39 224.35, 96.25 178.98, 6.99 101.71 M200.95 270.32 C153.02 226.63, 102.48 182.48, 6.99 101.71 M204.32 267.95 C150.83 220.94, 99.93 173.77, 8.85 98.04 M204.32 267.95 C153.85 224.88, 105.17 182.22, 8.85 98.04 M208.46 266.25 C146.33 215.19, 88.65 163.75, 10.72 94.36 M208.46 266.25 C146.61 214.01, 86.91 162.21, 10.72 94.36 M211.84 263.89 C151.87 212.72, 94.87 162.01, 12.59 90.69 M211.84 263.89 C155.03 215.73, 99.86 167.33, 12.59 90.69 M215.22 261.52 C152.96 208.29, 93.02 155.94, 13.71 86.35 M215.22 261.52 C158.33 213.39, 102.23 164.47, 13.71 86.35 M219.35 259.82 C138.9 188.35, 56.42 120.23, 15.58 82.68 M219.35 259.82 C164.75 214.55, 111.96 168.19, 15.58 82.68 M222.73 257.45 C180 219.74, 138.11 183.59, 17.45 79 M222.73 257.45 C180.1 219.79, 136.31 182, 17.45 79 M226.11 255.09 C145.86 185.79, 68.22 118.66, 19.32 75.33 M226.11 255.09 C154.61 190.94, 82.66 129.54, 19.32 75.33 M230.24 253.38 C159.58 193.18, 87.72 132.53, 20.43 71 M230.24 253.38 C165.36 196.89, 101.03 140.37, 20.43 71 M233.62 251.02 C162.56 189.44, 94.82 128.54, 22.3 67.32 M233.62 251.02 C161.08 186.22, 87.45 123.96, 22.3 67.32 M237 248.66 C153.37 175.74, 71.75 102.58, 24.93 64.31 M237 248.66 C164.86 185.44, 93.98 123.61, 24.93 64.31 M240.38 246.3 C195.01 208.84, 149.07 171.33, 26.8 60.63 M240.38 246.3 C165.81 181.6, 91.18 116.78, 26.8 60.63 M244.51 244.59 C191.18 198.54, 138.08 153.6, 29.42 57.61 M244.51 244.59 C189.55 197.64, 136.33 150.64, 29.42 57.61 M247.14 241.57 C191.1 193.03, 137.6 146.66, 32.04 54.59 M247.14 241.57 C180.59 182.05, 114.4 123.93, 32.04 54.59 M249.76 238.55 C173.99 173.37, 97.2 106.01, 34.67 51.57 M249.76 238.55 C169.95 168.28, 89.81 97.25, 34.67 51.57 M252.38 235.53 C170.32 166.21, 88.1 94.17, 37.29 48.56 M252.38 235.53 C194.81 184.23, 136.84 133.43, 37.29 48.56 M255.01 232.51 C177.62 166.06, 103.66 99.06, 39.92 45.54 M255.01 232.51 C169.55 156.53, 84.05 82.72, 39.92 45.54 M257.63 229.49 C174.33 156.67, 90.36 81.87, 42.54 42.52 M257.63 229.49 C188.85 168.57, 118.26 106.77, 42.54 42.52 M260.26 226.48 C208.82 180.82, 155.2 136.19, 45.17 39.5 M260.26 226.48 C178.52 156.24, 97.15 85.52, 45.17 39.5 M262.13 222.8 C184.2 155.94, 109.75 87.96, 47.79 36.48 M262.13 222.8 C209.54 175.87, 155.38 130.01, 47.79 36.48 M264.75 219.78 C219.01 179.45, 172.78 137.65, 50.41 33.46 M264.75 219.78 C185.17 151.19, 107.89 84.88, 50.41 33.46 M267.38 216.76 C216.68 174.17, 168.29 129.95, 53.79 31.1 M267.38 216.76 C205.68 161.73, 142.85 107.23, 53.79 31.1 M270 213.74 C217.32 171.48, 166.2 126.63, 57.93 29.39 M270 213.74 C196.85 147.67, 120.8 82.42, 57.93 29.39 M272.62 210.73 C219.57 166.54, 167.92 123.94, 61.31 27.03 M272.62 210.73 C192.63 142.37, 112.43 73.43, 61.31 27.03 M274.49 207.05 C218.28 158.56, 162.36 108.38, 64.68 24.67 M274.49 207.05 C205.21 148.46, 135.29 87.62, 64.68 24.67 M276.36 203.38 C213.75 147.51, 150.78 94.23, 68.06 22.3 M276.36 203.38 C214.86 152.32, 156.09 100.55, 68.06 22.3 M278.23 199.7 C238.09 161.55, 196.11 125.21, 72.2 20.6 M278.23 199.7 C228.07 154.62, 178.18 111.69, 72.2 20.6 M279.35 195.37 C197.97 124.21, 116.16 54.45, 75.58 18.23 M279.35 195.37 C222.02 145.43, 163.43 95.99, 75.58 18.23 M281.22 191.69 C207.44 127.59, 133.69 63.67, 78.95 15.87 M281.22 191.69 C239.16 153.92, 196.41 116.96, 78.95 15.87 M283.09 188.02 C205.96 118.67, 129.21 51.79, 83.09 14.16 M283.09 188.02 C221.53 132.79, 159 80.26, 83.09 14.16 M284.96 184.34 C242.51 145.66, 199.6 109.07, 86.47 11.8 M284.96 184.34 C218.39 127.38, 150.28 68.2, 86.47 11.8 M286.07 180.01 C240.97 143.4, 200.37 104.88, 89.85 9.44 M286.07 180.01 C215.2 117.06, 145.35 55.39, 89.85 9.44 M287.94 176.34 C242.52 137.38, 198.61 99.39, 94.73 8.39 M287.94 176.34 C231.18 126.92, 174.77 77.58, 94.73 8.39 M289.81 172.66 C231.12 121.45, 170.82 67.33, 99.62 7.34 M289.81 172.66 C229.64 117.64, 166.21 64.51, 99.62 7.34 M290.17 167.68 C246.06 132.35, 205.01 94.27, 103.76 5.63 M290.17 167.68 C233.84 116.45, 175.62 67.31, 103.76 5.63 M290.53 162.69 C221.09 104.99, 155.05 47.29, 108.64 4.58 M290.53 162.69 C226.02 107.5, 163.02 51.99, 108.64 4.58 M290.14 157.05 C249.2 119.22, 206.91 83.27, 113.53 3.53 M290.14 157.05 C218.48 96.22, 149.2 34.72, 113.53 3.53 M290.5 152.06 C227.57 96.93, 164.67 42.51, 118.42 2.48 M290.5 152.06 C247.42 113.51, 204.91 76.64, 118.42 2.48 M290.86 147.07 C251.48 113.5, 210.26 77, 123.31 1.43 M290.86 147.07 C234.7 98.62, 177.55 49.18, 123.31 1.43 M291.22 142.09 C232.45 90.6, 173.29 39.9, 128.2 0.38 M291.22 142.09 C237.4 95.2, 184.97 47.79, 128.2 0.38 M291.58 137.1 C258.5 108.49, 226.53 82.88, 133.09 -0.67 M291.58 137.1 C246.66 95.96, 199.33 55.58, 133.09 -0.67 M291.94 132.11 C247.92 94.88, 205.95 56.56, 140.24 0.24 M291.94 132.11 C240.19 85.3, 188.14 40.63, 140.24 0.24 M292.3 127.12 C252.31 90.53, 211.53 55.55, 146.64 0.51 M292.3 127.12 C238.13 80.56, 181.33 30.72, 146.64 0.51 M290.39 120.17 C244.91 80.6, 194.45 39.81, 153.79 1.42 M290.39 120.17 C244.25 78.54, 199.76 38.96, 153.79 1.42 M288.49 113.21 C237.39 69.57, 185.49 24.23, 160.19 1.68 M288.49 113.21 C249.93 78.66, 209.31 42.83, 160.19 1.68 M287.34 106.92 C258.69 81.56, 230.75 55.7, 167.34 2.6 M287.34 106.92 C263.1 83.96, 237.27 62.37, 167.34 2.6 M285.43 99.96 C254.69 76.75, 226.15 51.2, 173.74 2.86 M285.43 99.96 C247.44 67.59, 208.66 33.89, 173.74 2.86 M283.53 93.01 C247.86 64.95, 214.66 35.01, 180.14 3.12 M283.53 93.01 C245.38 62.11, 207.49 27.86, 180.14 3.12 M280.87 85.39 C252.13 58.26, 221.51 32.59, 190.31 6.67 M280.87 85.39 C251.18 60.79, 221.14 34.99, 190.31 6.67 M272.93 73.19 C253.08 56.78, 233.25 40.78, 200.48 10.21 M272.93 73.19 C257.21 58.47, 239.39 43.7, 200.48 10.21 M264.99 60.99 C249.97 44.63, 231.44 31.67, 210.65 13.75 M264.99 60.99 C251.04 47.73, 235.22 35.67, 210.65 13.75" stroke="#a5d8ff" stroke-width="0.5" fill="none"></path><path d="M132.47 0.77 C146.51 -2.6, 163.81 1.3, 178.58 4.44 C193.36 7.57, 208.16 12.09, 221.14 19.58 C234.11 27.06, 246.64 38.31, 256.44 49.35 C266.24 60.39, 274.15 72.6, 279.93 85.81 C285.7 99.03, 289.71 113.97, 291.09 128.65 C292.48 143.33, 291.56 159.87, 288.25 173.92 C284.93 187.97, 278.95 200.74, 271.21 212.94 C263.47 225.15, 253.29 237.49, 241.82 247.14 C230.34 256.79, 216.35 265.03, 202.35 270.87 C188.34 276.71, 172.84 281.07, 157.77 282.18 C142.71 283.28, 126.63 280.83, 111.98 277.47 C97.33 274.12, 82.62 269.55, 69.88 262.06 C57.14 254.58, 45.14 243.71, 35.56 232.55 C25.98 221.39, 18.1 208.26, 12.41 195.11 C6.72 181.96, 2.91 168.19, 1.4 153.67 C-0.11 139.15, 0.01 122.32, 3.35 107.99 C6.7 93.65, 13.71 79.96, 21.46 67.65 C29.2 55.34, 38.7 43.61, 49.82 34.13 C60.95 24.66, 72.8 16.4, 88.23 10.81 C103.66 5.22, 131.61 1.77, 142.41 0.61 C153.21 -0.55, 152.99 1.74, 153.05 3.87 M111.55 4.95 C124.72 -0.59, 141.5 -0.78, 156.29 -0.09 C171.08 0.6, 186.29 3.41, 200.29 9.1 C214.29 14.8, 228.94 24.45, 240.29 34.08 C251.64 43.7, 260.42 54.87, 268.38 66.86 C276.33 78.84, 284.24 91.84, 288.01 105.99 C291.78 120.14, 291.94 136.86, 290.97 151.74 C290.01 166.62, 287.95 181.9, 282.2 195.28 C276.45 208.65, 266.34 221.25, 256.46 231.99 C246.58 242.73, 235.41 252.22, 222.93 259.71 C210.45 267.2, 196.15 273.39, 181.6 276.92 C167.05 280.44, 150.63 281.75, 135.63 280.87 C120.63 279.99, 105.74 276.79, 91.58 271.62 C77.41 266.46, 62.42 259.36, 50.64 249.88 C38.85 240.41, 28.39 227.51, 20.86 214.77 C13.33 202.03, 8.91 187.63, 5.44 173.44 C1.98 159.25, -0.92 144.02, 0.09 129.62 C1.1 115.22, 5.86 100.33, 11.51 87.04 C17.17 73.75, 24.56 61.03, 34.03 49.89 C43.5 38.75, 55.61 27.79, 68.34 20.2 C81.07 12.62, 103.35 6.38, 110.41 4.4 C117.46 2.41, 109.84 5.9, 110.69 8.29" stroke="#1e1e1e" stroke-width="1" fill="none"></path></g><g stroke-linecap="round" transform="translate(10 36.118386679049735) rotate(0 68.73259652381512 46.05083967095615)"><path d="M23.03 0 C53.76 -3.14, 82.7 -0.31, 114.44 0 C131.94 -1.76, 135.62 10.27, 137.47 23.03 C136.22 41.27, 138.22 51.33, 137.47 69.08 C134.76 86.66, 128.48 91.95, 114.44 92.1 C88.27 91.64, 53.55 92.19, 23.03 92.1 C7.26 89.05, 0.56 86.08, 0 69.08 C-1.52 58.32, -0.12 45.02, 0 23.03 C2.87 8.32, 8.12 -3.37, 23.03 0" stroke="none" stroke-width="0" fill="#ffec99"></path><path d="M23.03 0 C48.96 1.02, 76.26 -0.22, 114.44 0 M23.03 0 C50.82 -0.79, 77.67 0.54, 114.44 0 M114.44 0 C130.9 0.69, 137.46 7.19, 137.47 23.03 M114.44 0 C128.28 0.12, 135.21 7.21, 137.47 23.03 M137.47 23.03 C137.19 37.32, 135.5 52.89, 137.47 69.08 M137.47 23.03 C138.22 37.17, 138.12 49.67, 137.47 69.08 M137.47 69.08 C137.81 86.23, 128.08 90.16, 114.44 92.1 M137.47 69.08 C137.59 83.56, 130.68 92.92, 114.44 92.1 M114.44 92.1 C78.69 92.76, 46.55 91.49, 23.03 92.1 M114.44 92.1 C88.62 91.6, 65.04 91.35, 23.03 92.1 M23.03 92.1 C9.04 92.38, 1.2 86.38, 0 69.08 M23.03 92.1 C8.66 93.6, 1.76 86.43, 0 69.08 M0 69.08 C-0.15 56.72, -0.19 46.52, 0 23.03 M0 69.08 C1.29 57.62, -0.48 45.68, 0 23.03 M0 23.03 C0.92 7.23, 6.63 -1, 23.03 0 M0 23.03 C-2.3 6.57, 9.52 1.21, 23.03 0" stroke="#1e1e1e" stroke-width="1" fill="none"></path></g><g transform="translate(30.23259652381512 72.16922635000591) rotate(0 48.5 10)"><text x="48.5" y="14.016" font-family="Virgil, Segoe UI Emoji" font-size="16px" fill="#1e1e1e" text-anchor="middle" style="white-space: pre;" direction="ltr" dominant-baseline="alphabetic">JSONSchema</text></g><g stroke-linecap="round" transform="translate(258.8119994162107 197.63998851001512) rotate(0 68.73259652381512 46.05083967095615)"><path d="M23.03 0 C46.33 1.44, 62.45 2.76, 114.44 0 C126.42 3.43, 137.24 4.37, 137.47 23.03 C136.26 39.79, 134.49 57.6, 137.47 69.08 C137.03 86.72, 127.21 89.39, 114.44 92.1 C87.74 90.66, 64.12 92.58, 23.03 92.1 C9.38 88.8, -3.03 81.09, 0 69.08 C2.19 50.52, -0.42 31.6, 0 23.03 C2.3 4.98, 5.89 -1.3, 23.03 0" stroke="none" stroke-width="0" fill="#ffec99"></path><path d="M23.03 0 C53.13 -2.67, 79.86 -0.66, 114.44 0 M23.03 0 C46.13 -0.02, 69.65 1.4, 114.44 0 M114.44 0 C129.96 0.74, 136.22 7.67, 137.47 23.03 M114.44 0 C127.56 -0.03, 137.48 8.32, 137.47 23.03 M137.47 23.03 C136.21 40.89, 139.34 59.72, 137.47 69.08 M137.47 23.03 C138.65 33.91, 137.72 44.67, 137.47 69.08 M137.47 69.08 C135.99 83.04, 130.36 93.36, 114.44 92.1 M137.47 69.08 C136.26 84.68, 130.72 92.61, 114.44 92.1 M114.44 92.1 C82.89 90.99, 50.8 91.07, 23.03 92.1 M114.44 92.1 C95.95 92.49, 76.38 91.79, 23.03 92.1 M23.03 92.1 C8.5 92.51, -0.13 85.49, 0 69.08 M23.03 92.1 C8.9 90.75, 1.1 86.21, 0 69.08 M0 69.08 C1.2 55.42, 0.27 41.61, 0 23.03 M0 69.08 C-0.2 59.43, -0.11 48.53, 0 23.03 M0 23.03 C-0.09 9.57, 8.71 -0.57, 23.03 0 M0 23.03 C2.06 8.43, 7.88 -1.98, 23.03 0" stroke="#1e1e1e" stroke-width="1" fill="none"></path></g><g transform="translate(264.9279310535512 233.69082818097124) rotate(0 62.61666488647461 10)"><text x="62.61666488647461" y="14.016" font-family="Virgil, Segoe UI Emoji" font-size="16px" fill="#1e1e1e" text-anchor="middle" style="white-space: pre;" direction="ltr" dominant-baseline="alphabetic">MongoConnection</text></g><g transform="translate(190.07940289239787 129.5947179514383) rotate(0 38.56666564941406 10)"><text x="0" y="14.016" font-family="Virgil, Segoe UI Emoji" font-size="16px" fill="#1e1e1e" text-anchor="start" style="white-space: pre;" direction="ltr" dominant-baseline="alphabetic">Restlette</text></g></svg>