<svg version="1.1" xmlns="http://www.w3.org/2000/svg" viewBox="0 0 529.1729762306513 565.7368163990918" width="1058.3459524613027" height="1131.4736327981836">
  <!-- svg-source:excalidraw -->
  
  <defs>
    <style class="style-fonts">
      @font-face {
        font-family: "Virgil";
        src: url("https://excalidraw.com/Virgil.woff2");
      }
      @font-face {
        font-family: "Cascadia";
        src: url("https://excalidraw.com/Cascadia.woff2");
      }
      @font-face {
        font-family: "Assistant";
        src: url("https://app.excalidraw.com//dist/excalidraw-assets/Assistant-Regular.woff2");
      }
    </style>
    
  </defs>
  <rect x="0" y="0" width="529.1729762306513" height="565.7368163990918" fill="#ffffff"></rect><g stroke-linecap="round" transform="translate(145.26765114109412 60.86212142762304) rotate(0 106.5355246119135 247.4373474857344)"><path d="M32 0 C79.51 0.94, 129.46 -1.85, 181.07 0 M32 0 C82.09 0.45, 132.7 -0.74, 181.07 0 M181.07 0 C201.96 -0.62, 214.88 11.49, 213.07 32 M181.07 0 C202.52 -1.92, 212.35 11.43, 213.07 32 M213.07 32 C212.56 137.26, 212.46 243.52, 213.07 462.87 M213.07 32 C211.81 139.5, 211.57 246.33, 213.07 462.87 M213.07 462.87 C211.94 483.3, 201.48 495.79, 181.07 494.87 M213.07 462.87 C213.16 482.5, 200.62 496.45, 181.07 494.87 M181.07 494.87 C124.11 493.92, 70.49 494.56, 32 494.87 M181.07 494.87 C130.59 494.32, 78.5 493.17, 32 494.87 M32 494.87 C12.53 494.09, 1.08 485.13, 0 462.87 M32 494.87 C8.65 493.95, 1.91 482.01, 0 462.87 M0 462.87 C0.57 362.25, 0.48 259.88, 0 32 M0 462.87 C2.27 341.75, 1.47 219.64, 0 32 M0 32 C1.38 9.02, 10.32 -1.69, 32 0 M0 32 C-1.43 12.17, 9.35 -0.18, 32 0" stroke="#1e1e1e" stroke-width="1" fill="none"></path></g><g stroke-linecap="round" transform="translate(102.65344129632877 113.09889478572256) rotate(0 37.80292808809827 43.301535810003514)"><path d="M5.72 20.87 C5.72 20.87, 5.72 20.87, 5.72 20.87 M5.72 20.87 C5.72 20.87, 5.72 20.87, 5.72 20.87 M4.15 28.78 C11.45 24.44, 14.25 15.36, 25.14 4.63 M4.15 28.78 C9.86 21.42, 15.23 13.98, 25.14 4.63 M2.57 36.69 C15.46 24.9, 24.24 12.22, 31.44 3.48 M2.57 36.69 C8.21 28.96, 13.98 22.57, 31.44 3.48 M1 44.6 C14.17 27.85, 27.1 12.89, 38.4 1.58 M1 44.6 C9.67 36.56, 16.45 26.63, 38.4 1.58 M2.05 49.48 C12.59 35.1, 23.85 20.63, 43.38 1.94 M2.05 49.48 C18.46 31.38, 35.62 12.46, 43.38 1.94 M3.1 54.37 C17.93 37.85, 34.97 19.58, 47.06 3.81 M3.1 54.37 C18.22 36.91, 33.66 19.32, 47.06 3.81 M4.15 59.26 C16.42 43.21, 32.41 26.48, 50.73 5.68 M4.15 59.26 C16.03 44.57, 29.24 30.67, 50.73 5.68 M5.86 63.39 C15.99 51.74, 29.04 35.59, 54.41 7.55 M5.86 63.39 C21.94 44.45, 39.38 25.76, 54.41 7.55 M6.91 68.28 C21.07 51.75, 34.73 34.51, 58.08 9.42 M6.91 68.28 C19.55 54.93, 32.29 41.56, 58.08 9.42 M9.93 70.91 C19.49 58.57, 29.43 47.88, 61.76 11.28 M9.93 70.91 C22.25 57.74, 33.02 46.04, 61.76 11.28 M12.95 73.53 C28.27 56.04, 44.74 36.1, 64.12 14.66 M12.95 73.53 C30.2 52.91, 49.9 31.14, 64.12 14.66 M15.97 76.16 C33.89 53.8, 55.49 33.64, 66.48 18.04 M15.97 76.16 C32.85 56.7, 48.54 37.12, 66.48 18.04 M18.99 78.78 C37.24 55.36, 56.9 35.53, 68.85 21.42 M18.99 78.78 C29.08 66.69, 40.78 52.7, 68.85 21.42 M22 81.4 C37.62 62.62, 55.53 43.7, 70.55 25.56 M22 81.4 C35.49 64.85, 49.65 49.13, 70.55 25.56 M25.02 84.03 C39.56 68.81, 56.23 48.36, 72.92 28.93 M25.02 84.03 C35.05 73.33, 45.15 60.78, 72.92 28.93 M30.01 84.39 C46.1 62.98, 66.02 45.49, 74.62 33.07 M30.01 84.39 C47.83 65.88, 65.13 46.36, 74.62 33.07 M35 84.75 C45.23 73.53, 57.24 58.58, 74.36 39.47 M35 84.75 C43.88 74.21, 53.37 62.62, 74.36 39.47 M39.98 85.11 C49.97 75.7, 55.74 67.99, 74.1 45.86 M39.98 85.11 C51.81 71.29, 62.54 58.43, 74.1 45.86 M44.97 85.47 C54.18 77.85, 58.77 68.16, 74.49 51.51 M44.97 85.47 C52.29 77.01, 59.5 68.78, 74.49 51.51 M55.21 79.79 C60.91 75.39, 63.23 69.21, 68.33 64.7 M55.21 79.79 C57.9 77.37, 60.17 72.93, 68.33 64.7 M23.94 83.73 C23.94 83.73, 23.94 83.73, 23.94 83.73 M23.94 83.73 C23.94 83.73, 23.94 83.73, 23.94 83.73 M31.09 84.65 C25.51 78.42, 19.95 74.46, 9.2 65.63 M31.09 84.65 C24.24 77.77, 16.65 73.32, 9.2 65.63 M37.49 84.91 C25.88 75.85, 16.63 65.7, 7.3 58.67 M37.49 84.91 C29.99 79.09, 24.99 73.41, 7.3 58.67 M43.89 85.17 C29.01 72.85, 12.05 58.9, 5.4 51.72 M43.89 85.17 C28 71.31, 13.02 58.84, 5.4 51.72 M47.26 82.81 C34.45 71.13, 19.91 61.05, 1.98 43.45 M47.26 82.81 C33.05 69.54, 18.64 56.86, 1.98 43.45 M50.64 80.45 C36.66 66.77, 22.36 57.29, 3.1 39.12 M50.64 80.45 C31.15 65.02, 13.03 47.1, 3.1 39.12 M54.02 78.09 C33.8 59.71, 17.3 43.96, 4.21 34.79 M54.02 78.09 C41.48 67.97, 30.67 56.24, 4.21 34.79 M58.16 76.38 C44.6 61.87, 31.55 51.96, 5.33 30.46 M58.16 76.38 C46.04 66.24, 31.7 53.75, 5.33 30.46 M61.53 74.02 C47.9 61.63, 39.14 51.43, 5.69 25.47 M61.53 74.02 C49.44 62.93, 36.41 52.21, 5.69 25.47 M65.67 72.31 C41.41 51.58, 18.84 30.6, 6.05 20.48 M65.67 72.31 C43.39 54.32, 23.4 37.04, 6.05 20.48 M67.54 68.63 C49.52 55.03, 35.13 38.3, 8.67 17.46 M67.54 68.63 C51.48 55.61, 34.83 41.75, 8.67 17.46 M69.41 64.96 C52.36 48.3, 33.3 32.91, 12.05 15.1 M69.41 64.96 C56.91 54.93, 45.11 44.06, 12.05 15.1 M71.28 61.28 C51.8 44.37, 31.18 24.63, 14.67 12.08 M71.28 61.28 C59.24 50.07, 46.06 41.08, 14.67 12.08 M73.15 57.61 C60.31 44.81, 44.01 34.56, 17.3 9.06 M73.15 57.61 C53.15 39.26, 33.07 22.51, 17.3 9.06 M74.26 53.28 C59.06 38.87, 44.96 28.53, 19.92 6.04 M74.26 53.28 C64.19 44.15, 51.41 32.59, 19.92 6.04 M73.87 47.64 C63.64 38.66, 51.14 25.29, 22.55 3.02 M73.87 47.64 C60.88 35.49, 44.82 23.28, 22.55 3.02 M74.23 42.65 C57.86 30.36, 43.29 12.64, 27.43 1.97 M74.23 42.65 C63.92 34.77, 54.75 26.23, 27.43 1.97 M73.83 37.01 C57.94 25.22, 42.26 11.87, 32.32 0.92 M73.83 37.01 C62.8 27.15, 52.48 17.84, 32.32 0.92 M74.19 32.02 C61.08 23.39, 51.33 12.92, 37.21 -0.13 M74.19 32.02 C58.98 19.94, 46.93 8.22, 37.21 -0.13 M76.06 28.34 C67.08 20.11, 60.07 12.91, 42.85 -0.52 M76.06 28.34 C66.02 19.03, 54.96 9.05, 42.85 -0.52" stroke="#a5d8ff" stroke-width="0.5" fill="none"></path><path d="M41.41 0.59 C47.84 0.85, 55.39 5.45, 60.84 10.39 C66.29 15.33, 71.9 23.07, 74.11 30.22 C76.32 37.38, 75.96 45.88, 74.1 53.33 C72.24 60.78, 67.86 69.61, 62.95 74.93 C58.04 80.24, 51.09 83.69, 44.64 85.21 C38.2 86.73, 30.61 86.8, 24.28 84.04 C17.96 81.27, 10.63 74.99, 6.68 68.61 C2.73 62.24, 0.78 53.71, 0.6 45.79 C0.41 37.86, 2.06 27.89, 5.55 21.08 C9.04 14.26, 14.68 8.14, 21.53 4.9 C28.39 1.66, 41.75 1.79, 46.68 1.66 C51.62 1.53, 51.25 3.68, 51.13 4.13 M28.42 2.09 C34.99 0.05, 44.65 1.13, 50.97 3.61 C57.29 6.1, 62.09 11.27, 66.33 16.98 C70.58 22.68, 75.69 30.15, 76.45 37.84 C77.21 45.54, 73.88 56.29, 70.9 63.14 C67.93 69.99, 64.55 74.87, 58.61 78.94 C52.67 83.02, 42.41 87.4, 35.28 87.6 C28.14 87.81, 21.17 84.99, 15.8 80.17 C10.43 75.36, 5.41 66.04, 3.05 58.71 C0.68 51.37, 0.23 43.59, 1.63 36.16 C3.02 28.73, 6.99 19.81, 11.4 14.13 C15.81 8.45, 25.5 4.28, 28.09 2.07 C30.67 -0.14, 26.61 0.17, 26.92 0.88" stroke="#1e1e1e" stroke-width="1" fill="none"></path></g><g stroke-linecap="round" transform="translate(102.65344129632877 334.4178555924072) rotate(0 46.73816563619425 50.17479546238499)"><path d="M14.19 13.66 C14.19 13.66, 14.19 13.66, 14.19 13.66 M14.19 13.66 C14.19 13.66, 14.19 13.66, 14.19 13.66 M4.75 30.63 C7.97 25.05, 11.92 19.91, 23.77 8.74 M4.75 30.63 C10.41 25.87, 13.35 19.19, 23.77 8.74 M1.86 40.04 C7.65 32.54, 14.69 22.95, 34.01 3.06 M1.86 40.04 C8.93 32.78, 15.91 23.26, 34.01 3.06 M2.25 45.69 C15.81 29.16, 29.64 16.74, 39.65 2.67 M2.25 45.69 C15.24 31.53, 27.42 17.48, 39.65 2.67 M1.99 52.08 C20.67 34.2, 37.14 14.7, 45.29 2.27 M1.99 52.08 C17.43 33.32, 35.27 14.94, 45.29 2.27 M2.39 57.73 C20.76 38.16, 36.51 18.31, 50.94 1.88 M2.39 57.73 C15.76 41.75, 29.62 28.12, 50.94 1.88 M2.78 63.37 C24.56 40.24, 45.76 13.86, 56.58 1.48 M2.78 63.37 C20.01 43.79, 38.84 21.81, 56.58 1.48 M4.49 67.5 C19.71 49.32, 31.21 33.2, 60.91 2.6 M4.49 67.5 C23.07 45.44, 41.78 25.54, 60.91 2.6 M6.85 70.88 C21.71 57.07, 34.82 40.57, 64.59 4.47 M6.85 70.88 C22.23 54.16, 36.13 37.04, 64.59 4.47 M8.56 75.02 C24.02 56.75, 38.22 40.98, 67.6 7.09 M8.56 75.02 C30.55 49.23, 51.7 24.46, 67.6 7.09 M10.92 78.39 C24.55 62.87, 40.73 46.06, 71.28 8.96 M10.92 78.39 C29.2 56.9, 48.84 34.58, 71.28 8.96 M12.63 82.53 C30.31 59.92, 50.98 36.93, 74.3 11.59 M12.63 82.53 C36.2 55.58, 59.42 29.21, 74.3 11.59 M14.99 85.91 C26.93 70.04, 38.52 56.13, 77.97 13.46 M14.99 85.91 C29.45 67.68, 45.98 51.73, 77.97 13.46 M18.01 88.53 C36.19 69.69, 51.16 50.21, 80.99 16.08 M18.01 88.53 C43.62 60.19, 67.85 31.67, 80.99 16.08 M21.68 90.4 C34.18 74.32, 49.29 58.26, 82.7 20.21 M21.68 90.4 C39.7 67.57, 60.52 46.51, 82.7 20.21 M24.7 93.03 C46.97 69.42, 67.15 42.97, 85.06 23.59 M24.7 93.03 C43.29 73, 61.65 52.31, 85.06 23.59 M28.38 94.89 C42.91 77.95, 55.74 65.82, 87.42 26.97 M28.38 94.89 C39.83 79.8, 53.64 65.45, 87.42 26.97 M32.05 96.76 C53.18 72.3, 75.93 48.54, 89.13 31.1 M32.05 96.76 C48.23 76.82, 66.06 55.63, 89.13 31.1 M35.73 98.63 C49.49 80.85, 67.76 65.04, 91.49 34.48 M35.73 98.63 C58.56 73.85, 79.02 48.91, 91.49 34.48 M41.37 98.24 C58.5 78.51, 77.88 54.48, 93.2 38.62 M41.37 98.24 C55.7 83.81, 68.01 67.21, 93.2 38.62 M46.36 98.6 C56.12 87.44, 69.47 72.28, 92.28 45.77 M46.36 98.6 C58.47 84.12, 68.84 70.71, 92.28 45.77 M52 98.2 C60.75 88.34, 70.8 74.21, 92.02 52.17 M52 98.2 C61.78 84.83, 72.85 73.56, 92.02 52.17 M57.64 97.81 C68.49 84, 79.6 71.51, 91.76 58.57 M57.64 97.81 C70.25 83.22, 84.18 68.09, 91.76 58.57 M68.54 91.38 C74.89 87.1, 77.64 80.06, 88.87 67.98 M68.54 91.38 C76.34 83.02, 83.91 74.63, 88.87 67.98 M14.21 85.78 C14.21 85.78, 14.21 85.78, 14.21 85.78 M14.21 85.78 C14.21 85.78, 14.21 85.78, 14.21 85.78 M34.19 97.85 C29.76 93.41, 22.07 90.56, 9.29 76.2 M34.19 97.85 C26.31 92.42, 19.78 85.3, 9.29 76.2 M40.59 98.11 C27 88.53, 16.06 74.71, 3.61 65.96 M40.59 98.11 C31.21 89.98, 20.99 81.16, 3.61 65.96 M46.23 97.72 C32.05 85.54, 13.22 69.58, 1.7 59.01 M46.23 97.72 C33.38 86.75, 21.35 76.89, 1.7 59.01 M51.88 97.32 C40.95 86.43, 29.82 77.45, 2.06 54.02 M51.88 97.32 C35 84.23, 20.71 71.17, 2.06 54.02 M58.27 97.58 C44.19 82.54, 25.27 69.56, 1.67 48.38 M58.27 97.58 C38.41 80.94, 18 62.16, 1.67 48.38 M61.65 95.22 C37.73 76.69, 13.46 54.73, 2.03 43.39 M61.65 95.22 C48.59 83.52, 34.28 71.81, 2.03 43.39 M65.03 92.86 C43.51 74.84, 20.15 54.42, 1.64 37.75 M65.03 92.86 C48.73 78.07, 29.51 62.82, 1.64 37.75 M69.16 91.15 C51.43 73.73, 31.42 55.6, 2.75 33.42 M69.16 91.15 C46.58 70.92, 23.56 51, 2.75 33.42 M72.54 88.79 C46.58 67.09, 20.29 43.46, 5.37 30.4 M72.54 88.79 C58.72 78.1, 46.04 66.16, 5.37 30.4 M76.68 87.08 C51.22 65.23, 29.12 44.1, 7.24 26.72 M76.68 87.08 C53.52 67.19, 29.98 45.22, 7.24 26.72 M79.3 84.06 C65.55 69.69, 50.02 57.11, 9.11 23.05 M79.3 84.06 C51.95 59.56, 22.53 36.88, 9.11 23.05 M81.93 81.04 C62 62.53, 37.62 44.11, 10.98 19.37 M81.93 81.04 C59.01 63.02, 37.51 43.4, 10.98 19.37 M83.8 77.37 C67.43 63.89, 56.84 54.27, 12.85 15.7 M83.8 77.37 C69.36 65.86, 53.81 52.51, 12.85 15.7 M85.67 73.69 C58.84 51.16, 33.37 28.97, 15.48 12.68 M85.67 73.69 C63.87 55.8, 43.66 37.35, 15.48 12.68 M87.53 70.02 C60.61 45.58, 35.09 23.92, 19.61 10.97 M87.53 70.02 C70.71 54.85, 53.48 40.58, 19.61 10.97 M89.4 66.34 C74.41 53.17, 57.04 38.32, 22.99 8.61 M89.4 66.34 C66.25 45.44, 42.05 23.93, 22.99 8.61 M92.03 63.33 C78.67 52.43, 64.21 39.3, 27.12 6.9 M92.03 63.33 C77.88 50.9, 63.55 39.2, 27.12 6.9 M91.63 57.68 C79.26 46.76, 65.71 32.72, 30.5 4.54 M91.63 57.68 C73.84 41.65, 54.79 26.93, 30.5 4.54 M91.99 52.7 C75.3 36.91, 60.57 23.27, 34.64 2.84 M91.99 52.7 C74.28 36.01, 56.29 20.76, 34.64 2.84 M92.35 47.71 C73.9 31.4, 50.9 15, 39.52 1.78 M92.35 47.71 C76.22 35.35, 60.73 21.38, 39.52 1.78 M92.71 42.72 C74.83 26.5, 56.87 12.22, 45.92 2.05 M92.71 42.72 C76.03 27.86, 59.51 13.61, 45.92 2.05 M93.07 37.73 C78.2 22.6, 61.96 8.39, 51.57 1.65 M93.07 37.73 C79.65 25.27, 65.61 14.28, 51.57 1.65 M88.15 28.16 C78.02 22.02, 71.2 13.41, 57.21 1.26 M88.15 28.16 C79.06 19.17, 68.51 11.73, 57.21 1.26 M82.47 17.92 C79.62 17.02, 78.65 15.03, 71.91 8.73 M82.47 17.92 C79.01 15.27, 74.84 11.97, 71.91 8.73" stroke="#a5d8ff" stroke-width="0.5" fill="none"></path><path d="M35.36 2.5 C42.2 -0.14, 51.68 -0.9, 59.08 1.14 C66.49 3.18, 74.22 8.75, 79.8 14.73 C85.37 20.7, 90.59 28.86, 92.51 36.98 C94.43 45.1, 93.62 55.33, 91.3 63.46 C88.98 71.58, 84.22 80, 78.6 85.72 C72.99 91.44, 65.08 95.69, 57.64 97.78 C50.19 99.87, 41.16 100.25, 33.95 98.27 C26.74 96.29, 19.75 91.95, 14.37 85.92 C8.99 79.89, 3.81 70.34, 1.67 62.09 C-0.46 53.84, -0.53 44.47, 1.55 36.4 C3.64 28.33, 7.09 19.9, 14.18 13.68 C21.26 7.46, 37.61 0.94, 44.08 -0.9 C50.54 -2.75, 52.72 1.71, 52.97 2.59 M54.82 1.5 C61.84 1.74, 68.73 5.67, 74.45 10.96 C80.16 16.25, 86.06 25.22, 89.09 33.24 C92.12 41.26, 93.45 51.1, 92.61 59.06 C91.77 67.02, 89.05 74.85, 84.04 81 C79.04 87.15, 69.97 93.04, 62.6 95.98 C55.24 98.93, 47.26 99.81, 39.85 98.68 C32.44 97.56, 24.5 94.34, 18.15 89.26 C11.8 84.18, 4.93 76.04, 1.76 68.22 C-1.42 60.4, -2.38 50.74, -0.91 42.33 C0.55 33.93, 5.53 24.52, 10.53 17.79 C15.54 11.07, 21.87 5.05, 29.11 2.01 C36.36 -1.03, 50.11 -0.5, 54.01 -0.46 C57.91 -0.41, 52.86 1.43, 52.51 2.27" stroke="#1e1e1e" stroke-width="1" fill="none"></path></g><g stroke-linecap="round" transform="translate(104.02809322680469 217.57244150192156) rotate(0 41.23955791428921 46.73816563619425)"><path d="M14.38 9.85 C14.38 9.85, 14.38 9.85, 14.38 9.85 M14.38 9.85 C14.38 9.85, 14.38 9.85, 14.38 9.85 M4.93 26.81 C9.33 24.4, 12.66 18.68, 21.99 7.19 M4.93 26.81 C11.28 19.11, 17.37 13.53, 21.99 7.19 M2.05 36.23 C10.1 26.17, 17.74 19.78, 30.26 3.78 M2.05 36.23 C9.68 27.97, 14.58 20.74, 30.26 3.78 M1.78 42.63 C14.08 29.18, 26.84 13.13, 37.87 1.12 M1.78 42.63 C14.67 26.47, 28.73 11.87, 37.87 1.12 M1.52 49.02 C11.25 38.53, 21.24 27.49, 42.2 2.23 M1.52 49.02 C10.57 39.8, 17.33 29.36, 42.2 2.23 M1.26 55.42 C14.04 38.86, 29.55 20.02, 46.53 3.35 M1.26 55.42 C15.3 39.41, 27.55 24.91, 46.53 3.35 M1.66 61.07 C21.28 39.47, 38.48 19.34, 50.86 4.46 M1.66 61.07 C12.05 50.29, 22.11 38.56, 50.86 4.46 M4.02 64.44 C20.08 46.26, 37.07 29.09, 55.19 5.58 M4.02 64.44 C14.05 52.59, 24.82 40.81, 55.19 5.58 M5.73 68.58 C19.95 55.95, 30.57 39.32, 60.18 5.94 M5.73 68.58 C27.35 45.32, 47.27 19.99, 60.18 5.94 M8.09 71.96 C18.17 58.01, 30.23 44.29, 62.54 9.32 M8.09 71.96 C27.08 48.84, 46.23 26.86, 62.54 9.32 M9.8 76.09 C20.28 61.06, 34.61 49.29, 65.56 11.94 M9.8 76.09 C30.58 51.54, 51.72 26.76, 65.56 11.94 M12.16 79.47 C22.72 65, 38.65 51.31, 68.58 14.56 M12.16 79.47 C25.38 66.71, 36.96 52.05, 68.58 14.56 M15.18 82.09 C30.53 67.8, 44.99 47.96, 70.94 17.94 M15.18 82.09 C30.92 62.71, 46.35 44.35, 70.94 17.94 M18.85 83.96 C38.53 61.71, 60.93 38, 73.96 20.57 M18.85 83.96 C39.23 59.31, 59.21 36.81, 73.96 20.57 M22.53 85.83 C34.2 71.44, 50.18 53.99, 76.32 23.95 M22.53 85.83 C39.28 67.38, 53.28 50.79, 76.32 23.95 M25.55 88.46 C43.47 67.03, 64.74 43.3, 78.03 28.08 M25.55 88.46 C37.89 73.66, 51.03 60.55, 78.03 28.08 M29.22 90.33 C44.18 73.33, 55.65 59, 79.08 32.97 M29.22 90.33 C41.53 75.58, 54.88 61, 79.08 32.97 M32.9 92.2 C41.62 78.39, 53.81 68.46, 80.13 37.86 M32.9 92.2 C50.42 71.47, 68.29 51.85, 80.13 37.86 M37.88 92.56 C53.55 72.82, 70.37 57.76, 81.18 42.75 M37.88 92.56 C52.56 77.39, 65.69 60.67, 81.18 42.75 M44.18 91.41 C57.01 73.41, 74.79 56.8, 82.23 47.63 M44.18 91.41 C58.55 75.21, 72.6 59.13, 82.23 47.63 M50.48 90.26 C61.05 77.51, 71.58 64.33, 80.66 55.54 M50.48 90.26 C59.58 80.31, 69.06 68.87, 80.66 55.54 M56.78 89.11 C66.2 81.27, 72.29 68.5, 77.77 64.96 M56.78 89.11 C62.75 82.19, 69.69 73.64, 77.77 64.96 M12.29 80.36 C12.29 80.36, 12.29 80.36, 12.29 80.36 M12.29 80.36 C12.29 80.36, 12.29 80.36, 12.29 80.36 M29.26 89.81 C22.33 82.54, 17.23 80.3, 6.62 70.13 M29.26 89.81 C23.61 84.98, 16.85 78.14, 6.62 70.13 M37.92 92.04 C28.78 85.41, 20.45 76.72, 1.69 60.55 M37.92 92.04 C24.76 80.82, 13.44 71.66, 1.69 60.55 M42.81 90.99 C26.49 79.26, 11.79 64.22, 1.3 54.9 M42.81 90.99 C28.34 77.19, 11.68 64.04, 1.3 54.9 M47.7 89.94 C30.61 74.51, 13.69 59.1, 1.66 49.92 M47.7 89.94 C36.63 79.25, 25.85 71.33, 1.66 49.92 M52.59 88.88 C43.43 78.12, 33.14 72.31, 2.02 44.93 M52.59 88.88 C34.66 74.22, 17.27 59.19, 2.02 44.93 M57.47 87.83 C43.63 75.35, 28.45 62.72, 2.38 39.94 M57.47 87.83 C43.85 76.81, 29.09 63.28, 2.38 39.94 M60.85 85.47 C45.87 71.4, 32.94 59.48, 2.74 34.95 M60.85 85.47 C42.84 68.98, 25.4 55.1, 2.74 34.95 M64.23 83.11 C43.26 67.09, 25.01 48.68, 3.1 29.97 M64.23 83.11 C41.13 62.87, 19.85 44.29, 3.1 29.97 M66.86 80.09 C46.04 61.17, 26.05 45.75, 4.97 26.29 M66.86 80.09 C51.25 64.93, 33.91 50.89, 4.97 26.29 M70.23 77.73 C46.64 58.42, 24.97 39.31, 6.84 22.62 M70.23 77.73 C49.58 58.47, 28.49 40.02, 6.84 22.62 M72.86 74.71 C53.78 59.57, 37.8 42.21, 9.46 19.6 M72.86 74.71 C54.67 59.63, 38.25 43.71, 9.46 19.6 M75.48 71.69 C52.56 49.87, 28.14 30.63, 11.33 15.92 M75.48 71.69 C56.65 56.26, 37.69 38.61, 11.33 15.92 M76.6 67.36 C58.25 51.71, 37.41 31.78, 13.2 12.25 M76.6 67.36 C58.04 51.84, 39.4 34.24, 13.2 12.25 M77.71 63.03 C53.89 44.43, 32.84 25.2, 15.83 9.23 M77.71 63.03 C57.79 44.94, 36.99 26.98, 15.83 9.23 M79.58 59.35 C65.95 47.91, 50.15 34.56, 19.96 7.52 M79.58 59.35 C60.51 40.8, 40.33 23.8, 19.96 7.52 M80.7 55.02 C67.42 43.94, 51.24 30.33, 24.09 5.82 M80.7 55.02 C62.14 38.31, 42.9 22.51, 24.09 5.82 M81.81 50.69 C61.91 35.73, 44.36 16.34, 28.98 4.77 M81.81 50.69 C68.13 38.18, 54.21 26.61, 28.98 4.77 M82.17 45.7 C62.25 29.43, 44.79 12.32, 33.12 3.06 M82.17 45.7 C65.82 31.27, 48.73 16.95, 33.12 3.06 M80.27 38.75 C68.41 26.07, 53.39 16.5, 37.25 1.35 M80.27 38.75 C68.72 29.42, 59.17 19.95, 37.25 1.35 M79.12 32.45 C72.69 23.51, 63.48 16.41, 44.4 2.27 M79.12 32.45 C65.98 20.65, 53.99 10.64, 44.4 2.27 M77.21 25.49 C69.05 18.38, 62.07 9.82, 52.31 3.84 M77.21 25.49 C69.46 18.54, 61.5 10.92, 52.31 3.84" stroke="#a5d8ff" stroke-width="0.5" fill="none"></path><path d="M38.13 1.21 C45.12 -0.22, 53.12 1.9, 59.58 5.72 C66.05 9.54, 73.13 16.94, 76.93 24.12 C80.73 31.31, 82.68 40.69, 82.39 48.82 C82.11 56.94, 79.49 66.17, 75.22 72.88 C70.95 79.59, 63.59 85.75, 56.79 89.07 C49.99 92.39, 41.87 94.28, 34.43 92.8 C26.98 91.32, 17.73 85.87, 12.12 80.21 C6.5 74.55, 2.34 67.06, 0.75 58.85 C-0.84 50.64, 0.27 39.17, 2.58 30.95 C4.9 22.73, 8.05 14.7, 14.65 9.54 C21.24 4.38, 36.74 1.31, 42.16 0.01 C47.58 -1.3, 47.36 0.79, 47.18 1.72 M44.9 1.48 C52.24 2.15, 62.23 6.92, 68.05 12.01 C73.88 17.1, 77.54 23.98, 79.85 32.02 C82.16 40.06, 83.51 51.82, 81.9 60.28 C80.29 68.74, 75.87 77.12, 70.19 82.78 C64.5 88.43, 55.44 93.16, 47.79 94.21 C40.13 95.26, 30.86 92.66, 24.28 89.08 C17.7 85.5, 12.37 79.77, 8.31 72.71 C4.25 65.66, 0.07 54.99, -0.08 46.76 C-0.23 38.53, 3.52 30.23, 7.4 23.33 C11.29 16.44, 16.74 9.28, 23.24 5.36 C29.74 1.44, 42.73 0.49, 46.39 -0.18 C50.06 -0.86, 45.49 0.21, 45.24 1.31" stroke="#1e1e1e" stroke-width="1" fill="none"></path></g><g stroke-linecap="round" transform="translate(328.09635789444224 117.22285057715146) rotate(0 41.92688387952728 39.864905983812776)"><path d="M7.79 2.8 C7.79 2.8, 7.79 2.8, 7.79 2.8 M7.79 2.8 C7.79 2.8, 7.79 2.8, 7.79 2.8 M0.97 16.74 C7.57 9.18, 11.19 4.51, 14.09 1.65 M0.97 16.74 C5.25 12.58, 10.51 7.91, 14.09 1.65 M0.71 23.14 C7.69 14.52, 14.64 10.06, 20.39 0.5 M0.71 23.14 C6.78 16.8, 10.71 10.88, 20.39 0.5 M0.45 29.54 C8.94 20.56, 13.49 12.59, 26.03 0.1 M0.45 29.54 C6.34 24.14, 10.25 17.31, 26.03 0.1 M0.18 35.94 C9.33 22.05, 20.3 9.27, 31.02 0.46 M0.18 35.94 C7.72 27.86, 12.97 20.73, 31.02 0.46 M0.58 41.58 C13.22 24.18, 30.03 11, 36.01 0.82 M0.58 41.58 C13.08 26.56, 26.15 13.91, 36.01 0.82 M0.32 47.98 C15.81 32.4, 30.4 12.33, 41.65 0.43 M0.32 47.98 C11.12 35.97, 20.27 25.43, 41.65 0.43 M0.71 53.62 C17.76 35.63, 34.78 12.63, 46.64 0.79 M0.71 53.62 C12.76 38.92, 24.79 25.28, 46.64 0.79 M0.45 60.02 C16.5 38.46, 36.77 18.3, 52.28 0.4 M0.45 60.02 C11.32 47.21, 20.75 35.72, 52.28 0.4 M1.5 64.91 C15.15 48.92, 31.59 28.86, 57.27 0.76 M1.5 64.91 C20.07 43.69, 40.3 20.15, 57.27 0.76 M2.55 69.79 C19.01 52.81, 33.78 33.81, 62.91 0.36 M2.55 69.79 C24.28 46.77, 43.73 21.29, 62.91 0.36 M4.26 73.93 C19.33 51.89, 35.98 33.29, 67.9 0.72 M4.26 73.93 C17.55 56.77, 31.01 41.2, 67.9 0.72 M7.28 76.55 C25.19 53.79, 48.15 31.39, 72.23 1.84 M7.28 76.55 C26.02 54.33, 42.36 33.97, 72.23 1.84 M10.95 78.42 C36.28 52.35, 60.64 23.15, 76.56 2.95 M10.95 78.42 C37.09 48.71, 63 17.97, 76.56 2.95 M15.28 79.54 C31.68 62.99, 45.57 46.45, 79.58 5.57 M15.28 79.54 C40.03 52.65, 63.69 25.36, 79.58 5.57 M20.93 79.14 C40.71 60.52, 55.05 41.26, 81.94 8.95 M20.93 79.14 C39.28 58.87, 56.46 37.88, 81.94 8.95 M25.91 79.5 C45.56 56.02, 64.09 33.13, 82.99 13.84 M25.91 79.5 C46.94 55.75, 67.79 30.27, 82.99 13.84 M30.9 79.86 C41.31 68.92, 54.07 56.36, 84.04 18.73 M30.9 79.86 C48.52 59.02, 67.91 37.73, 84.04 18.73 M36.54 79.47 C53.32 62.53, 69.37 41.1, 83.78 25.13 M36.54 79.47 C47.83 66.52, 58.24 54.97, 83.78 25.13 M41.53 79.83 C59.67 58.89, 73.33 42.44, 84.17 30.77 M41.53 79.83 C55.61 64.63, 67.4 49.83, 84.17 30.77 M47.17 79.43 C56.99 68.25, 69.05 54, 83.91 37.17 M47.17 79.43 C53.42 69.92, 62.62 62.81, 83.91 37.17 M52.16 79.79 C59.1 73.08, 63.12 64.02, 83.65 43.57 M52.16 79.79 C63.84 65.85, 76.17 52.61, 83.65 43.57 M57.8 79.4 C64.9 71.49, 75.17 62.52, 84.05 49.21 M57.8 79.4 C67.34 67.21, 77.58 56.13, 84.05 49.21 M62.79 79.76 C67.89 72.51, 71.63 66.86, 83.78 55.61 M62.79 79.76 C67.89 73.78, 71.81 67.45, 83.78 55.61 M69.09 78.61 C75.76 72.91, 80.71 65.69, 83.52 62.01 M69.09 78.61 C72.06 75.49, 74.38 71.29, 83.52 62.01 M75.39 77.46 C76.5 75.74, 77.82 74.74, 81.95 69.91 M75.39 77.46 C77.19 76.17, 78.73 73.96, 81.95 69.91 M7.53 76.7 C7.53 76.7, 7.53 76.7, 7.53 76.7 M7.53 76.7 C7.53 76.7, 7.53 76.7, 7.53 76.7 M16.19 78.93 C10.17 73.87, 5.83 72.88, 1.85 66.47 M16.19 78.93 C11.78 74.2, 7.43 70.69, 1.85 66.47 M21.83 78.54 C14.52 71.23, 5.19 65.29, -0.06 59.51 M21.83 78.54 C14.85 72.61, 8.62 67.16, -0.06 59.51 M28.23 78.8 C21.16 72.67, 14.19 67.12, 0.3 54.52 M28.23 78.8 C16.92 70.05, 5.95 60.62, 0.3 54.52 M34.63 79.06 C23.33 70.82, 15.52 61.62, -0.09 48.88 M34.63 79.06 C24.29 69.32, 12.61 59.59, -0.09 48.88 M40.27 78.66 C31.51 70.56, 25.21 62.54, 0.27 43.89 M40.27 78.66 C28.15 67.42, 14.95 56.21, 0.27 43.89 M46.67 78.93 C35.96 67.69, 23.33 57.18, -0.12 38.25 M46.67 78.93 C29.68 65.18, 13.31 51.63, -0.12 38.25 M53.07 79.19 C36.95 63.46, 19.75 48.41, 0.24 33.26 M53.07 79.19 C33.88 62.79, 13.33 45.63, 0.24 33.26 M58.71 78.79 C43.37 64.33, 26.79 50.25, -0.16 27.62 M58.71 78.79 C39.59 61.6, 21.49 45.63, -0.16 27.62 M65.11 79.05 C50.13 64.37, 31.95 51.28, 0.2 22.63 M65.11 79.05 C38.84 56.21, 15.32 34.04, 0.2 22.63 M69.99 78 C44.51 58, 20.51 34.54, 0.56 17.65 M69.99 78 C47.72 58.31, 24.07 38.29, 0.56 17.65 M74.88 76.95 C51.89 54.98, 26.41 33.85, 0.92 12.66 M74.88 76.95 C49.18 53.61, 23.53 31.5, 0.92 12.66 M78.26 74.59 C51.45 49.49, 24.65 26.36, 2.79 8.98 M78.26 74.59 C58.08 57.98, 38.82 42.1, 2.79 8.98 M80.89 71.57 C54.62 48.84, 27.81 26.24, 5.41 5.96 M80.89 71.57 C57.18 52.35, 34.65 32.06, 5.41 5.96 M82.76 67.9 C61.27 51.31, 42.66 32.54, 8.04 2.95 M82.76 67.9 C57.2 45.27, 31.59 22.6, 8.04 2.95 M83.87 63.56 C67.57 50.85, 55.75 37.45, 12.93 1.9 M83.87 63.56 C58.94 40.94, 34.95 19.91, 12.93 1.9 M84.23 58.58 C63.75 44.03, 46.23 26.4, 17.82 0.84 M84.23 58.58 C67.29 45.09, 50.29 30.07, 17.82 0.84 M83.84 52.93 C61.38 33.7, 36.17 10.67, 21.95 -0.86 M83.84 52.93 C64.75 38.12, 47.83 21.28, 21.95 -0.86 M84.2 47.95 C65.12 30.07, 45.98 14.4, 28.35 -0.6 M84.2 47.95 C64.47 31.22, 44.67 13.05, 28.35 -0.6 M84.56 42.96 C67.11 26.67, 49.53 10.28, 34.75 -0.34 M84.56 42.96 C73.32 34.9, 64.56 24.94, 34.75 -0.34 M84.16 37.32 C74.6 28.61, 65.52 21.26, 40.39 -0.73 M84.16 37.32 C71.49 26.97, 60.94 18.27, 40.39 -0.73 M84.52 32.33 C68.62 20.62, 57.26 5.49, 46.79 -0.47 M84.52 32.33 C76.4 23.73, 66.06 15.74, 46.79 -0.47 M84.13 26.69 C75.01 16.3, 63.74 7.06, 53.18 -0.21 M84.13 26.69 C73.93 17.28, 63.21 8.91, 53.18 -0.21 M84.49 21.7 C78.8 18.01, 70.86 11.14, 58.83 -0.61 M84.49 21.7 C78.78 16.86, 71.95 11.84, 58.83 -0.61 M82.58 14.75 C80.71 9.85, 76.86 8.51, 65.22 -0.34 M82.58 14.75 C77.73 10.43, 70.98 4.56, 65.22 -0.34 M81.43 8.45 C78.59 5.87, 76.46 3.61, 73.89 1.89 M81.43 8.45 C78.86 6.34, 77.46 4.87, 73.89 1.89" stroke="#b2f2bb" stroke-width="0.5" fill="none"></path><path d="M19.93 0 C33.63 0.17, 44.85 -0.56, 63.92 0 M19.93 0 C30.25 0.39, 40.59 0.9, 63.92 0 M63.92 0 C75.38 0.88, 82.69 7.57, 83.85 19.93 M63.92 0 C79.04 0.8, 83.8 7.61, 83.85 19.93 M83.85 19.93 C82.05 33.23, 84.32 43.07, 83.85 59.8 M83.85 19.93 C82.9 29.96, 84.24 39.55, 83.85 59.8 M83.85 59.8 C82.9 74.76, 78.96 78.89, 63.92 79.73 M83.85 59.8 C81.95 72.96, 78.73 79.53, 63.92 79.73 M63.92 79.73 C49.27 81.02, 38.78 80.19, 19.93 79.73 M63.92 79.73 C48.96 79.43, 32.57 79.5, 19.93 79.73 M19.93 79.73 C6.3 80.04, 0.32 73.92, 0 59.8 M19.93 79.73 C6.82 77.5, -1.4 74.41, 0 59.8 M0 59.8 C-1.09 46.26, 0.24 31.32, 0 19.93 M0 59.8 C-1 51.15, 0.5 42.54, 0 19.93 M0 19.93 C1.97 5.2, 6.48 0.21, 19.93 0 M0 19.93 C1.19 5.02, 7.12 2.21, 19.93 0" stroke="#1e1e1e" stroke-width="1" fill="none"></path></g><g stroke-linecap="round" transform="translate(328.09635789444224 251.93873976382912) rotate(0 43.98886177524173 35.74095019238382)"><path d="M2.26 7.27 C2.26 7.27, 2.26 7.27, 2.26 7.27 M2.26 7.27 C2.26 7.27, 2.26 7.27, 2.26 7.27 M0.69 15.17 C3.99 11.5, 4.77 9.17, 12.5 1.59 M0.69 15.17 C3.7 11.35, 5.54 9.31, 12.5 1.59 M0.43 21.57 C6.21 12.25, 15.8 6.77, 18.8 0.44 M0.43 21.57 C6.16 16.27, 11.09 10.18, 18.8 0.44 M0.82 27.22 C9.41 17.27, 18.04 5.5, 23.79 0.8 M0.82 27.22 C7.22 19.77, 12.59 12.94, 23.79 0.8 M0.56 33.61 C4.68 27.49, 14.34 20.41, 29.43 0.41 M0.56 33.61 C9.06 24.04, 17.02 13.18, 29.43 0.41 M0.3 40.01 C14.28 26.66, 25.66 9.89, 34.42 0.77 M0.3 40.01 C12.72 25.27, 25.68 10.52, 34.42 0.77 M0.69 45.65 C15.19 30.34, 26.28 16.13, 39.4 1.13 M0.69 45.65 C15.58 29.74, 31.51 11.16, 39.4 1.13 M0.43 52.05 C8.04 43.04, 20.11 31.76, 45.05 0.73 M0.43 52.05 C9.72 42.93, 18.82 30.74, 45.05 0.73 M0.83 57.7 C16.75 38.2, 35.65 20.58, 50.03 1.09 M0.83 57.7 C11.94 46.09, 21.93 35.56, 50.03 1.09 M2.53 61.83 C24.88 37.63, 45.18 13.64, 55.68 0.7 M2.53 61.83 C22.55 38.22, 43.73 15.36, 55.68 0.7 M4.24 65.96 C24.02 43.44, 42.92 24.43, 60.66 1.06 M4.24 65.96 C25.38 39.43, 47.56 16.25, 60.66 1.06 M7.26 68.59 C28.57 43.46, 49.3 20.58, 66.31 0.66 M7.26 68.59 C23.69 51.04, 39.48 32.16, 66.31 0.66 M10.94 70.46 C27.1 54.14, 38.46 36.67, 71.29 1.02 M10.94 70.46 C31.05 47.16, 52.91 23.54, 71.29 1.02 M15.27 71.57 C39.27 44.57, 60.09 15.58, 76.28 1.38 M15.27 71.57 C32.81 51.61, 49.65 32.01, 76.28 1.38 M20.91 71.18 C40.96 46.54, 65.65 23.06, 79.95 3.25 M20.91 71.18 C35.08 55.92, 48.37 40.3, 79.95 3.25 M25.9 71.54 C40.16 54.92, 54.43 41.59, 83.63 5.12 M25.9 71.54 C43.92 51.77, 61.55 30.16, 83.63 5.12 M30.88 71.9 C50.74 47.91, 75.76 20.04, 85.99 8.5 M30.88 71.9 C41.52 58.32, 55.47 43.91, 85.99 8.5 M36.53 71.5 C56.06 50.49, 73.64 30.6, 87.7 12.63 M36.53 71.5 C51.56 54.01, 66.61 36.25, 87.7 12.63 M41.51 71.86 C59.74 52.14, 74.11 31.55, 88.09 18.28 M41.51 71.86 C51.43 60.68, 62.2 48.28, 88.09 18.28 M47.16 71.47 C55.63 60.26, 68.31 50.11, 88.49 23.92 M47.16 71.47 C59.85 58.03, 70.71 45.64, 88.49 23.92 M52.14 71.83 C61.33 60.59, 74.75 46.23, 88.23 30.32 M52.14 71.83 C63.33 57.68, 75.94 44.47, 88.23 30.32 M57.79 71.43 C65.31 60.04, 74.28 52.06, 87.97 36.72 M57.79 71.43 C68.79 58.72, 80.36 45.93, 87.97 36.72 M62.77 71.79 C68.98 65.97, 75.87 56.31, 88.36 42.36 M62.77 71.79 C67.87 66.1, 72.09 59.96, 88.36 42.36 M68.42 71.4 C74.14 67.64, 77.16 63.97, 88.1 48.76 M68.42 71.4 C75.3 64.37, 83.07 55.61, 88.1 48.76 M73.4 71.76 C80.43 65.82, 83.14 59.46, 87.84 55.16 M73.4 71.76 C78.03 66.77, 80.54 62.37, 87.84 55.16 M81.01 69.1 C82.74 68.15, 83.33 66.58, 84.95 64.57 M81.01 69.1 C82.03 68.01, 83 67.09, 84.95 64.57 M4.21 66.79 C4.21 66.79, 4.21 66.79, 4.21 66.79 M4.21 66.79 C4.21 66.79, 4.21 66.79, 4.21 66.79 M15.14 70.99 C12.07 66.44, 7.08 66.13, 0.8 58.53 M15.14 70.99 C9.93 66.8, 5.77 63.54, 0.8 58.53 M21.54 71.25 C16.82 67.51, 11.53 60.69, 1.16 53.54 M21.54 71.25 C15.49 65.24, 8.43 60.73, 1.16 53.54 M27.18 70.86 C21.08 65.28, 13.9 58.96, 0.77 47.9 M27.18 70.86 C18.95 62.98, 11.3 57.04, 0.77 47.9 M33.58 71.12 C24.34 63.63, 14.53 54.39, 1.13 42.91 M33.58 71.12 C26.02 65.28, 19.2 59.61, 1.13 42.91 M39.98 71.38 C30.97 62.37, 17.11 50.69, 0.73 37.27 M39.98 71.38 C30.39 62.02, 20.77 53.35, 0.73 37.27 M45.62 70.99 C31.47 58.37, 16.27 46.21, 1.09 32.28 M45.62 70.99 C32.5 58.17, 18.83 48.1, 1.09 32.28 M52.02 71.25 C38.56 57.78, 23.96 46.59, 0.7 26.64 M52.02 71.25 C41.56 61.58, 29.36 52.38, 0.7 26.64 M58.41 71.51 C43.42 60.08, 31.39 45.44, 1.06 21.65 M58.41 71.51 C44.22 58.81, 29.43 45.66, 1.06 21.65 M64.06 71.11 C46.36 57.17, 29.15 39.11, 0.66 16.01 M64.06 71.11 C43.12 53.72, 22.04 33.99, 0.66 16.01 M70.46 71.38 C48.59 49.8, 23.41 30.95, 1.02 11.02 M70.46 71.38 C45.5 51.4, 23.74 29.71, 1.02 11.02 M75.34 70.33 C57.59 54.25, 37.12 37.38, 2.89 7.34 M75.34 70.33 C59.03 55.9, 43.8 41.75, 2.89 7.34 M80.23 69.27 C50.42 45.93, 22.76 18.92, 5.52 4.32 M80.23 69.27 C54.55 45.05, 27.4 22.44, 5.52 4.32 M83.61 66.91 C57.31 44.13, 31.81 19.19, 8.89 1.96 M83.61 66.91 C55.94 42.28, 27.19 18.14, 8.89 1.96 M85.48 63.24 C68.08 47.82, 48.61 31.64, 13.78 0.91 M85.48 63.24 C61.63 41.61, 36.5 20.6, 13.78 0.91 M87.35 59.56 C65.46 42.4, 48.79 23.6, 17.92 -0.8 M87.35 59.56 C60.51 37.8, 35.65 14.94, 17.92 -0.8 M87.71 54.57 C69.58 41.19, 52.93 22.66, 24.31 -0.53 M87.71 54.57 C72.1 40.55, 55.08 25.65, 24.31 -0.53 M88.07 49.59 C67.24 30.81, 48.97 17.3, 30.71 -0.27 M88.07 49.59 C74.22 36.09, 58.98 25.08, 30.71 -0.27 M88.43 44.6 C76.83 33.47, 62.46 23.08, 36.36 -0.67 M88.43 44.6 C73.26 32.23, 59.39 19.63, 36.36 -0.67 M88.04 38.96 C69.86 22.12, 54.5 9.48, 42.75 -0.41 M88.04 38.96 C71.97 25.43, 57.6 13.36, 42.75 -0.41 M88.4 33.97 C79.86 26.74, 71.54 20.51, 49.15 -0.14 M88.4 33.97 C75.12 22.42, 62.29 9.7, 49.15 -0.14 M88 28.33 C79.91 21.55, 73.5 12.76, 54.79 -0.54 M88 28.33 C79.01 20.24, 71.63 14.58, 54.79 -0.54 M88.36 23.34 C79.44 14.65, 68.65 5.37, 61.19 -0.28 M88.36 23.34 C78.91 14.47, 68.7 5.68, 61.19 -0.28 M87.97 17.7 C83.39 10.72, 75.58 4.89, 67.59 -0.02 M87.97 17.7 C83.08 12.34, 77.48 9.07, 67.59 -0.02 M86.82 11.4 C82.87 7.02, 78.85 4.14, 73.23 -0.41 M86.82 11.4 C83.38 8.09, 79.72 4.78, 73.23 -0.41" stroke="#b2f2bb" stroke-width="0.5" fill="none"></path><path d="M17.87 0 C32.43 -1.26, 52.03 0.97, 70.11 0 M17.87 0 C36.38 0.45, 54.2 -0.61, 70.11 0 M70.11 0 C82.11 -0.75, 86.01 5.84, 87.98 17.87 M70.11 0 C83.22 -0.19, 90.24 4.29, 87.98 17.87 M87.98 17.87 C86.6 28.71, 89.94 37.13, 87.98 53.61 M87.98 17.87 C87.02 31.65, 87.65 46.49, 87.98 53.61 M87.98 53.61 C88 66.54, 82.12 71.52, 70.11 71.48 M87.98 53.61 C90.05 66.07, 82.27 73.64, 70.11 71.48 M70.11 71.48 C50.09 71.84, 33.1 72.42, 17.87 71.48 M70.11 71.48 C54.85 72.43, 39.18 71.59, 17.87 71.48 M17.87 71.48 C5.38 73.22, 0.79 64.13, 0 53.61 M17.87 71.48 C7.81 72.86, -0.79 64.37, 0 53.61 M0 53.61 C-1.38 45.16, -0.98 37.19, 0 17.87 M0 53.61 C-0.6 39.99, -1.25 27.79, 0 17.87 M0 17.87 C-1.67 7.44, 6.71 -1.11, 17.87 0 M0 17.87 C-1.08 7.28, 7.3 1.81, 17.87 0" stroke="#1e1e1e" stroke-width="1" fill="none"></path></g><g stroke-linecap="round" transform="translate(318.47379438110806 371.5334577152674) rotate(0 44.67618774047992 35.05362422714572)"><path d="M4.67 4.06 C4.67 4.06, 4.67 4.06, 4.67 4.06 M4.67 4.06 C4.67 4.06, 4.67 4.06, 4.67 4.06 M1.12 14.23 C4.42 11.86, 6.33 8.06, 11.62 2.15 M1.12 14.23 C5.34 10.74, 7.7 5.55, 11.62 2.15 M0.86 20.62 C4.02 13.25, 8.25 8.95, 17.92 1 M0.86 20.62 C4.42 15.31, 7.87 11.26, 17.92 1 M1.26 26.27 C6.27 18.95, 15.87 11.91, 23.56 0.61 M1.26 26.27 C8.22 18, 12.76 11.22, 23.56 0.61 M1 32.67 C12.27 22.78, 22.76 9.54, 28.55 0.97 M1 32.67 C11.91 20.68, 22.66 7.4, 28.55 0.97 M1.39 38.31 C10.52 30.16, 17.12 22.01, 34.19 0.57 M1.39 38.31 C14.41 25.02, 26.47 11.06, 34.19 0.57 M1.13 44.71 C14.2 33.54, 22.09 21.71, 39.18 0.93 M1.13 44.71 C12.84 31.97, 23.39 18.6, 39.18 0.93 M0.87 51.1 C16.13 32.75, 30.2 14.99, 44.82 0.54 M0.87 51.1 C16.97 32.9, 32.89 13.08, 44.82 0.54 M0.61 57.5 C10.21 47.5, 22.17 35.86, 49.81 0.9 M0.61 57.5 C16.87 38.2, 34.9 18.47, 49.81 0.9 M2.97 60.88 C21.53 41.91, 39.36 18.43, 55.45 0.5 M2.97 60.88 C15.41 46.57, 26.98 33.69, 55.45 0.5 M4.67 65.01 C27.94 38.04, 46.79 15.61, 60.44 0.86 M4.67 65.01 C22.82 45.13, 38.65 25.69, 60.44 0.86 M7.04 68.39 C23.55 49.28, 42.49 27.12, 66.08 0.47 M7.04 68.39 C17.62 53.58, 31.29 41.32, 66.08 0.47 M10.71 70.26 C23.23 56.6, 33.1 40.82, 71.07 0.83 M10.71 70.26 C33.43 43.6, 56.62 17.85, 71.07 0.83 M15.7 70.62 C32.77 51.22, 53.03 30.78, 74.74 2.7 M15.7 70.62 C37.74 44.17, 60.52 18.67, 74.74 2.7 M20.03 71.74 C34.47 53.51, 47.8 36.82, 80.39 2.3 M20.03 71.74 C34.39 54.87, 47.47 38.01, 80.39 2.3 M25.02 72.1 C48.04 47.89, 69.14 22.09, 84.06 4.17 M25.02 72.1 C36.65 58.49, 48.06 43.83, 84.06 4.17 M30.66 71.7 C42.74 57.37, 54.84 44.47, 87.08 6.8 M30.66 71.7 C44.3 58.19, 57.15 42.52, 87.08 6.8 M35.65 72.06 C52.02 52.95, 65.78 36.85, 88.79 10.93 M35.65 72.06 C49.61 54.19, 64.87 37.36, 88.79 10.93 M40.63 72.42 C55.25 53.67, 69.32 36.35, 89.84 15.82 M40.63 72.42 C59.82 51.37, 76.83 30.49, 89.84 15.82 M46.28 72.03 C59.05 57.62, 72.76 41.44, 91.55 19.95 M46.28 72.03 C63.62 52.09, 80.97 32.78, 91.55 19.95 M51.26 72.39 C65.96 56.34, 81.09 40.24, 91.94 25.6 M51.26 72.39 C67 54.05, 82.29 35.98, 91.94 25.6 M56.91 71.99 C69.21 57.22, 80.32 45.95, 91.68 31.99 M56.91 71.99 C65.8 61.64, 76.41 49.92, 91.68 31.99 M61.89 72.35 C72.11 61.18, 79.6 52.49, 91.42 38.39 M61.89 72.35 C67.3 66.41, 74.13 59.43, 91.42 38.39 M67.54 71.96 C76.91 63.84, 84.26 53.81, 91.81 44.04 M67.54 71.96 C75.05 63.29, 81.61 55.16, 91.81 44.04 M73.18 71.57 C79.39 64.64, 86.6 56.8, 91.55 50.43 M73.18 71.57 C78.94 66.02, 83.44 59, 91.55 50.43 M80.14 69.66 C83.79 67.11, 85.99 63.78, 90.63 57.59 M80.14 69.66 C83.41 65.7, 86 62.46, 90.63 57.59 M4.06 65.45 C4.06 65.45, 4.06 65.45, 4.06 65.45 M4.06 65.45 C4.06 65.45, 4.06 65.45, 4.06 65.45 M14.23 68.99 C8.22 65.57, 3.79 59.38, 0.65 57.18 M14.23 68.99 C10.42 65.16, 5.2 61.12, 0.65 57.18 M21.38 69.9 C16.04 63.55, 8.67 58.17, 1.01 52.19 M21.38 69.9 C14.38 62.82, 7.67 57.17, 1.01 52.19 M27.03 69.51 C17.59 60.02, 8.22 52.05, 0.61 46.55 M27.03 69.51 C19.53 63.45, 12.73 58.41, 0.61 46.55 M33.42 69.77 C22.24 59.77, 10.46 50.24, 0.97 41.56 M33.42 69.77 C22.92 61.66, 13.31 52.6, 0.97 41.56 M39.07 69.38 C27.15 61.16, 17.84 50.48, 0.58 35.92 M39.07 69.38 C26 57.91, 13.02 46.22, 0.58 35.92 M45.47 69.64 C34.55 61.33, 28.05 52.56, 0.94 30.93 M45.47 69.64 C29.8 55.13, 15 42.09, 0.94 30.93 M51.86 69.9 C35.64 59.05, 22.44 45.17, 0.54 25.29 M51.86 69.9 C38.71 59.62, 25.41 47.82, 0.54 25.29 M57.51 69.51 C37.07 52, 13.91 30.75, 0.9 20.3 M57.51 69.51 C39.98 56.01, 24.6 40.52, 0.9 20.3 M63.9 69.77 C42.22 49.59, 20.47 31.65, 0.51 14.66 M63.9 69.77 C41.51 50.72, 19.04 30.24, 0.51 14.66 M69.55 69.37 C45.4 47.3, 21.14 25.1, 1.62 10.33 M69.55 69.37 C54.55 58.14, 42.03 44.91, 1.62 10.33 M75.94 69.63 C60.14 55.57, 44.97 42.93, 3.49 6.65 M75.94 69.63 C55.6 52.77, 37.57 37.57, 3.49 6.65 M80.83 68.58 C50.81 44.67, 25.27 17.2, 6.12 3.63 M80.83 68.58 C63.83 52.07, 44.38 36.16, 6.12 3.63 M84.21 66.22 C60.94 42.91, 35.19 21.08, 9.5 1.27 M84.21 66.22 C59.34 43.77, 33.97 22.66, 9.5 1.27 M86.08 62.55 C69.35 49.36, 50.4 32.91, 14.38 0.22 M86.08 62.55 C69.74 48.28, 51.88 33.68, 14.38 0.22 M87.95 58.87 C74.91 44.26, 59.69 33.04, 19.27 -0.83 M87.95 58.87 C66.61 40.44, 43.41 20.28, 19.27 -0.83 M89.82 55.2 C68.48 37.06, 48.77 19.11, 25.67 -0.57 M89.82 55.2 C70.11 38.79, 52.85 23.27, 25.67 -0.57 M89.43 49.55 C75.75 37.67, 56.74 21.77, 32.07 -0.31 M89.43 49.55 C69.63 33.34, 49.99 15.32, 32.07 -0.31 M89.79 44.57 C71.14 29.03, 50.73 12.57, 37.71 -0.7 M89.79 44.57 C68.63 26.39, 47.8 8.45, 37.71 -0.7 M89.39 38.92 C75.69 25.08, 56.37 10.23, 44.11 -0.44 M89.39 38.92 C76.09 26.96, 62.07 15.65, 44.11 -0.44 M89.75 33.94 C76.84 21.6, 67.23 11.5, 49.75 -0.84 M89.75 33.94 C80.87 26.91, 71.48 18.53, 49.75 -0.84 M89.36 28.29 C77.44 16.86, 65.69 5.33, 56.15 -0.57 M89.36 28.29 C79.86 20.9, 71.79 13.03, 56.15 -0.57 M89.72 23.31 C84.11 16.8, 74.98 11.49, 62.55 -0.31 M89.72 23.31 C81.78 16.88, 73.52 10.32, 62.55 -0.31 M90.08 18.32 C80.64 10.81, 73.85 3.26, 68.19 -0.71 M90.08 18.32 C84.4 12.65, 76.2 5.87, 68.19 -0.71 M88.93 12.02 C85.73 10.32, 83.68 7.99, 75.34 0.21 M88.93 12.02 C86.21 9.52, 81.22 5.6, 75.34 0.21" stroke="#b2f2bb" stroke-width="0.5" fill="none"></path><path d="M17.53 0 C28.03 -0.53, 40.06 -0.84, 71.83 0 M17.53 0 C36.96 -0.34, 56.05 0.46, 71.83 0 M71.83 0 C81.84 1.48, 90.11 4.73, 89.35 17.53 M71.83 0 C82.43 1.33, 90.69 7.65, 89.35 17.53 M89.35 17.53 C88.14 23.4, 87.19 31.12, 89.35 52.58 M89.35 17.53 C88.87 30.96, 89.22 41.69, 89.35 52.58 M89.35 52.58 C88.18 62.5, 85.29 71.11, 71.83 70.11 M89.35 52.58 C90.53 63.32, 82.49 69.86, 71.83 70.11 M71.83 70.11 C61.44 68.72, 48.29 70.65, 17.53 70.11 M71.83 70.11 C50.68 69.03, 31.44 70.29, 17.53 70.11 M17.53 70.11 C5.24 69.63, 1.16 65.7, 0 52.58 M17.53 70.11 C7.01 71.7, 0.29 66.52, 0 52.58 M0 52.58 C0.65 40.66, -0.6 29.87, 0 17.53 M0 52.58 C-0.81 45.36, -0.96 37.5, 0 17.53 M0 17.53 C1.31 3.88, 3.97 0.73, 17.53 0 M0 17.53 C1.83 6.75, 5.65 -2.02, 17.53 0" stroke="#1e1e1e" stroke-width="1" fill="none"></path></g><g transform="translate(17.425021606797827 136.46797760381963) rotate(0 40.41666793823242 10)"><text x="0" y="14.016" font-family="Virgil, Segoe UI Emoji" font-size="16px" fill="#1e1e1e" text-anchor="start" style="white-space: pre;" direction="ltr" dominant-baseline="alphabetic">Repository</text></g><g transform="translate(86.15761813061317 476.0070044314664) rotate(0 42.91666793823242 10)"><text x="0" y="14.016" font-family="Virgil, Segoe UI Emoji" font-size="16px" fill="#1e1e1e" text-anchor="start" style="white-space: pre;" direction="ltr" dominant-baseline="alphabetic">Restlettes</text></g><g transform="translate(321.2230982420606 476.0070044314664) rotate(0 47.233333587646484 10)"><text x="0" y="14.016" font-family="Virgil, Segoe UI Emoji" font-size="16px" fill="#1e1e1e" text-anchor="start" style="white-space: pre;" direction="ltr" dominant-baseline="alphabetic">Graphlettes</text></g><g stroke-linecap="round" transform="translate(208.50163994300397 117.22285057715146) rotate(0 40.55223194905079 41.239557914289065)"><path d="M6.81 35.07 C6.81 35.07, 6.81 35.07, 6.81 35.07 M6.81 35.07 C6.81 35.07, 6.81 35.07, 6.81 35.07 M4.58 43.73 C13.39 32.34, 22.67 25.12, 39.35 3.73 M4.58 43.73 C13.17 33.38, 22.18 23, 39.35 3.73 M6.95 47.11 C18.3 33.76, 30.93 20.1, 44.34 4.09 M6.95 47.11 C15.65 37.31, 24.25 27.47, 44.34 4.09 M9.31 50.49 C20.56 37.38, 30.78 29.19, 47.36 6.72 M9.31 50.49 C19.78 38.4, 30 26.66, 47.36 6.72 M11.67 53.87 C23.65 37.89, 34.97 25.84, 50.38 9.34 M11.67 53.87 C26.42 36.18, 41.27 20.71, 50.38 9.34 M14.69 56.5 C22.93 49.47, 29.85 38.19, 52.74 12.72 M14.69 56.5 C23.61 46.02, 33.48 34.26, 52.74 12.72 M17.71 59.12 C24.6 49.81, 33.94 39.48, 55.76 15.35 M17.71 59.12 C31.28 44.18, 45.09 28.15, 55.76 15.35 M20.07 62.5 C32.73 49.82, 44.63 34.93, 58.78 17.97 M20.07 62.5 C35.16 47.01, 48.48 30.41, 58.78 17.97 M23.09 65.12 C35.88 52.55, 48.25 36.19, 61.14 21.35 M23.09 65.12 C33.16 53.87, 40.94 43.48, 61.14 21.35 M26.11 67.75 C36.16 56.57, 42.2 50.1, 64.16 23.97 M26.11 67.75 C40.22 53.7, 53.26 36.87, 64.16 23.97 M29.13 70.37 C38.32 58.91, 49.33 47.74, 66.52 27.35 M29.13 70.37 C39.44 58.99, 49.11 46.74, 66.52 27.35 M32.15 73 C44.79 57.96, 55.51 43.93, 69.54 29.98 M32.15 73 C43.03 61.89, 53.18 47.88, 69.54 29.98 M35.17 75.62 C43.78 65.26, 52.13 53.65, 72.56 32.6 M35.17 75.62 C45.94 62.87, 55.91 51.73, 72.56 32.6 M38.18 78.24 C47.78 68.13, 57.19 56.72, 74.92 35.98 M38.18 78.24 C48.42 67.24, 57.81 56.15, 74.92 35.98 M41.86 80.11 C52.49 68.12, 60.2 58.76, 77.29 39.36 M41.86 80.11 C51.82 69.91, 59.92 58.04, 77.29 39.36 M36.91 77.95 C36.91 77.95, 36.91 77.95, 36.91 77.95 M36.91 77.95 C36.91 77.95, 36.91 77.95, 36.91 77.95 M43.31 78.21 C33.51 68.27, 18.68 56.09, 4.82 44.75 M43.31 78.21 C34.3 71.25, 26.07 63.78, 4.82 44.75 M46.69 75.85 C37.59 67.73, 23.46 56.37, 4.43 39.11 M46.69 75.85 C37.98 68.03, 28.17 58.33, 4.43 39.11 M50.07 73.49 C38.36 65.63, 27.77 53.86, 6.3 35.44 M50.07 73.49 C36.25 60.9, 21.68 48.75, 6.3 35.44 M52.69 70.47 C35.82 57.15, 20.56 40.55, 8.92 32.42 M52.69 70.47 C41.14 61.59, 28.98 49.84, 8.92 32.42 M55.32 67.45 C41.46 55.02, 28.6 45.29, 12.3 30.06 M55.32 67.45 C41.74 56.18, 28.35 44.3, 12.3 30.06 M58.7 65.09 C47.26 54.72, 36.14 44.1, 14.92 27.04 M58.7 65.09 C45.18 53.84, 31.62 41.58, 14.92 27.04 M61.32 62.07 C49.31 51.97, 37.58 41.36, 17.55 24.02 M61.32 62.07 C44.01 46.13, 25.61 32.36, 17.55 24.02 M63.94 59.05 C49.59 44.42, 31.85 30.08, 20.93 21.65 M63.94 59.05 C51.89 48.48, 40.14 37.2, 20.93 21.65 M66.57 56.03 C51.95 41.9, 39.27 29.32, 23.55 18.64 M66.57 56.03 C53.24 43.85, 38.6 32.72, 23.55 18.64 M69.95 53.67 C61.41 45.03, 51.93 36.73, 26.17 15.62 M69.95 53.67 C56.19 41.9, 42.31 29.23, 26.17 15.62 M72.57 50.65 C62.9 41.44, 52.31 36.01, 28.8 12.6 M72.57 50.65 C61.53 42.11, 53.12 31.98, 28.8 12.6 M74.44 46.97 C64.42 39.55, 57.23 32.87, 32.18 10.24 M74.44 46.97 C63.71 36.86, 53.63 27.55, 32.18 10.24 M77.07 43.96 C67.12 34.77, 57.55 25.67, 34.8 7.22 M77.07 43.96 C60.65 28.21, 44.46 13.8, 34.8 7.22 M78.18 39.63 C66.84 30.9, 58.35 19.67, 37.43 4.2 M78.18 39.63 C69.24 32.3, 60.14 23.33, 37.43 4.2 M57.41 16.27 C51.7 12.49, 45.78 5.4, 42.31 3.15 M57.41 16.27 C53.03 11.33, 47.32 8.96, 42.31 3.15" stroke="#ffec99" stroke-width="0.5" fill="none"></path><path d="M51.25 10.5 C56.86 14.66, 59.34 21.41, 70.85 31.5 M51.25 10.5 C57.9 17.34, 64.31 24.83, 70.85 31.5 M70.85 31.5 C79.11 42.46, 82.48 41.59, 70.85 52.5 M70.85 31.5 C82.12 42.22, 82.34 40.79, 70.85 52.5 M70.85 52.5 C65.42 58.36, 58.65 65.22, 51.25 71.98 M70.85 52.5 C66.72 56.03, 62.18 61.08, 51.25 71.98 M51.25 71.98 C42.13 81.15, 40.25 80.98, 30.75 71.98 M51.25 71.98 C41.95 83.61, 41.37 84.24, 30.75 71.98 M30.75 71.98 C24.36 65.92, 19.6 60.44, 10.25 52.5 M30.75 71.98 C25.34 66.68, 21.46 61.54, 10.25 52.5 M10.25 52.5 C-1.75 42.68, -1.17 40.59, 10.25 31.5 M10.25 52.5 C1.12 40.94, -1.15 42.45, 10.25 31.5 M10.25 31.5 C15.11 24.84, 25.73 15.32, 30.75 10.5 M10.25 31.5 C15.9 26.67, 20.16 20.92, 30.75 10.5 M30.75 10.5 C39.35 1.27, 40.19 -0.28, 51.25 10.5 M30.75 10.5 C40.03 0.9, 39.01 1.96, 51.25 10.5" stroke="#1e1e1e" stroke-width="1" fill="none"></path></g><g stroke-linecap="round" transform="translate(209.18896590824193 220.32174536287408) rotate(0 40.55223194905079 41.239557914289065)"><path d="M6.81 35.07 C6.81 35.07, 6.81 35.07, 6.81 35.07 M6.81 35.07 C6.81 35.07, 6.81 35.07, 6.81 35.07 M4.58 43.73 C15.74 33.56, 24.68 23.4, 39.35 3.73 M4.58 43.73 C16.54 30.29, 28.71 16.87, 39.35 3.73 M6.95 47.11 C16.83 33.4, 30.27 17.21, 44.34 4.09 M6.95 47.11 C21.6 30.97, 35.38 13.27, 44.34 4.09 M9.31 50.49 C17.7 40.74, 26.73 31.29, 47.36 6.72 M9.31 50.49 C17.46 41.09, 24.53 32.58, 47.36 6.72 M11.67 53.87 C20.78 45.77, 27.19 35.34, 50.38 9.34 M11.67 53.87 C26.07 37.05, 41.84 19.81, 50.38 9.34 M14.69 56.5 C24.42 43.75, 37.09 31.02, 52.74 12.72 M14.69 56.5 C26.02 44.75, 34.77 32.44, 52.74 12.72 M17.71 59.12 C30.61 40.87, 47.12 27.8, 55.76 15.35 M17.71 59.12 C25.72 49.75, 33.56 41.86, 55.76 15.35 M20.07 62.5 C33.3 46.04, 48.74 31.16, 58.78 17.97 M20.07 62.5 C31.55 49.54, 43.39 36.8, 58.78 17.97 M23.09 65.12 C33.51 52.02, 44.72 39.69, 61.14 21.35 M23.09 65.12 C32.57 54.06, 41.62 44.6, 61.14 21.35 M26.11 67.75 C34.95 58.96, 43.58 50.07, 64.16 23.97 M26.11 67.75 C35.93 55.84, 46.57 43.81, 64.16 23.97 M29.13 70.37 C37.88 61.9, 42.8 50.87, 66.52 27.35 M29.13 70.37 C43.72 53.65, 57.62 37.76, 66.52 27.35 M32.15 73 C40.74 63.11, 53.13 49.8, 69.54 29.98 M32.15 73 C44.14 59.55, 54.07 45.51, 69.54 29.98 M35.17 75.62 C47.7 60.97, 57.16 46.96, 72.56 32.6 M35.17 75.62 C48.74 59.45, 62.73 45.81, 72.56 32.6 M38.18 78.24 C49.4 66.24, 58.45 58.19, 74.92 35.98 M38.18 78.24 C51.57 63.78, 63.97 48.57, 74.92 35.98 M41.86 80.11 C53.04 64.66, 66.94 52.5, 77.29 39.36 M41.86 80.11 C49.53 71.31, 56.73 64.43, 77.29 39.36 M36.91 77.95 C36.91 77.95, 36.91 77.95, 36.91 77.95 M36.91 77.95 C36.91 77.95, 36.91 77.95, 36.91 77.95 M42.56 77.56 C30.03 68.13, 19.37 55.72, 11.61 50.66 M42.56 77.56 C35.66 70.94, 28.79 64.28, 11.61 50.66 M46.69 75.85 C39.73 70.53, 28.43 59.62, 4.43 39.11 M46.69 75.85 C38.62 68.37, 29.6 61.49, 4.43 39.11 M49.31 72.83 C31.72 58.73, 19.21 45.51, 7.05 36.09 M49.31 72.83 C33.59 57.98, 17.55 43.84, 7.05 36.09 M52.69 70.47 C44.25 61.84, 31.88 54.4, 8.92 32.42 M52.69 70.47 C36.45 55.17, 18.44 41.88, 8.92 32.42 M55.32 67.45 C42.63 59.04, 32.24 49.71, 11.54 29.4 M55.32 67.45 C39.32 54.6, 23.74 39.29, 11.54 29.4 M57.94 64.43 C47.87 54.15, 34.74 45.06, 14.92 27.04 M57.94 64.43 C42.16 50.58, 25.68 35.56, 14.92 27.04 M61.32 62.07 C47.1 50.44, 35.08 38.68, 17.55 24.02 M61.32 62.07 C52.2 54.37, 41.93 45.98, 17.55 24.02 M63.94 59.05 C51.19 50.5, 39.64 37.43, 20.17 21 M63.94 59.05 C49.25 45.01, 33.55 31.9, 20.17 21 M66.57 56.03 C57.29 47.86, 48.28 40.43, 23.55 18.64 M66.57 56.03 C55.92 46.75, 46.64 38.29, 23.55 18.64 M69.95 53.67 C55.77 41.5, 38.5 25.43, 26.17 15.62 M69.95 53.67 C60.88 44.94, 50.7 35.58, 26.17 15.62 M72.57 50.65 C53.75 35.92, 36.87 21.27, 28.8 12.6 M72.57 50.65 C63.49 41.24, 51.4 33.37, 28.8 12.6 M75.2 47.63 C61.83 36.49, 49.69 27.75, 32.18 10.24 M75.2 47.63 C62.97 35.83, 50.06 24.05, 32.18 10.24 M77.07 43.96 C62.96 33.73, 52.22 24.32, 34.8 7.22 M77.07 43.96 C65.99 33.83, 54.17 24.54, 34.8 7.22 M79.69 40.94 C65.45 31.23, 56.57 21.3, 37.43 4.2 M79.69 40.94 C67.13 31.62, 56.27 19.73, 37.43 4.2 M79.3 35.29 C69.4 26.86, 58.25 15.35, 40.81 1.84 M79.3 35.29 C66.96 26.15, 56.87 15.74, 40.81 1.84" stroke="#ffec99" stroke-width="0.5" fill="none"></path><path d="M51.25 10.5 C58.92 18.9, 65.93 25.85, 70.85 31.5 M51.25 10.5 C57.64 16.84, 64.59 24.9, 70.85 31.5 M70.85 31.5 C82.17 43.54, 81.55 42.71, 70.85 52.5 M70.85 31.5 C81.11 43.8, 83.1 41.63, 70.85 52.5 M70.85 52.5 C65.31 58.2, 58.5 63.44, 51.25 71.98 M70.85 52.5 C65.06 56.55, 60.22 63.03, 51.25 71.98 M51.25 71.98 C41.94 82.45, 42.06 83.64, 30.75 71.98 M51.25 71.98 C42.68 81.35, 41.61 83.72, 30.75 71.98 M30.75 71.98 C21.61 63, 13.85 57.16, 10.25 52.5 M30.75 71.98 C22.2 64.13, 15.79 58, 10.25 52.5 M10.25 52.5 C-0.78 43.07, -0.74 40.54, 10.25 31.5 M10.25 52.5 C0.38 42.55, 1.49 42.3, 10.25 31.5 M10.25 31.5 C16.51 26.08, 18.81 22.28, 30.75 10.5 M10.25 31.5 C17.37 24.6, 26.19 16.5, 30.75 10.5 M30.75 10.5 C42.8 0.01, 39.66 0.12, 51.25 10.5 M30.75 10.5 C40.19 2.25, 40.04 -1.62, 51.25 10.5" stroke="#1e1e1e" stroke-width="1" fill="none"></path></g><g stroke-linecap="round" transform="translate(206.43966204728918 352.2883306885993) rotate(0 40.55223194905079 41.239557914289065)"><path d="M6.81 35.07 C6.81 35.07, 6.81 35.07, 6.81 35.07 M6.81 35.07 C6.81 35.07, 6.81 35.07, 6.81 35.07 M4.58 43.73 C10.9 35.63, 20.06 28.25, 39.35 3.73 M4.58 43.73 C13.9 33.33, 23.84 23.17, 39.35 3.73 M6.95 47.11 C16.97 36.56, 27.37 25.89, 44.34 4.09 M6.95 47.11 C22.38 29.28, 37.98 12.36, 44.34 4.09 M9.31 50.49 C18.16 39.47, 29.94 26.09, 47.36 6.72 M9.31 50.49 C18.31 41.06, 27.08 30.19, 47.36 6.72 M11.67 53.87 C24.48 39.36, 37.06 21.46, 50.38 9.34 M11.67 53.87 C23.73 38.92, 34.72 26.8, 50.38 9.34 M14.69 56.5 C25.46 43.38, 38.03 28.13, 52.74 12.72 M14.69 56.5 C30.96 39.76, 45.33 22.19, 52.74 12.72 M17.71 59.12 C31.78 40.43, 44.73 26.07, 55.76 15.35 M17.71 59.12 C24.8 49.27, 32.24 41.77, 55.76 15.35 M20.07 62.5 C27.6 53.24, 40.13 40.46, 58.78 17.97 M20.07 62.5 C27.88 53.32, 37.54 42.88, 58.78 17.97 M23.09 65.12 C30.94 56.97, 37 47.51, 61.14 21.35 M23.09 65.12 C33.79 52.64, 46.01 38.71, 61.14 21.35 M26.11 67.75 C37.78 54.11, 53.37 38.95, 64.16 23.97 M26.11 67.75 C34.03 57.5, 43.93 47.55, 64.16 23.97 M29.13 70.37 C39.81 57.02, 49.01 46.62, 66.52 27.35 M29.13 70.37 C42.33 55.27, 56.29 38.27, 66.52 27.35 M32.15 73 C40.98 63.18, 49.94 52.32, 69.54 29.98 M32.15 73 C40.67 64.8, 47.08 54.26, 69.54 29.98 M35.17 75.62 C44.33 65.95, 51.56 58.51, 72.56 32.6 M35.17 75.62 C48.44 59.3, 64.21 43.42, 72.56 32.6 M38.18 78.24 C53.31 61.7, 68.06 45.47, 74.92 35.98 M38.18 78.24 C47.75 68.13, 55.24 58.99, 74.92 35.98 M41.86 80.11 C56.67 63.38, 67.72 50.34, 77.29 39.36 M41.86 80.11 C50.11 70.1, 59.67 59.84, 77.29 39.36 M36.91 77.95 C36.91 77.95, 36.91 77.95, 36.91 77.95 M36.91 77.95 C36.91 77.95, 36.91 77.95, 36.91 77.95 M42.56 77.56 C31.99 69.94, 20.03 59.95, 11.61 50.66 M42.56 77.56 C34.31 70.56, 25.98 62.1, 11.61 50.66 M46.69 75.85 C36.34 64.25, 23.77 53.91, 4.43 39.11 M46.69 75.85 C38.1 66.19, 26.9 59.34, 4.43 39.11 M49.31 72.83 C33.43 61.81, 19.89 46.92, 7.05 36.09 M49.31 72.83 C34.89 60.68, 21.42 48.5, 7.05 36.09 M52.69 70.47 C36.14 58.81, 21.85 44.89, 8.92 32.42 M52.69 70.47 C43.47 61.89, 32.48 53.08, 8.92 32.42 M55.32 67.45 C40.4 55.51, 23.47 43.3, 11.54 29.4 M55.32 67.45 C44.12 56.66, 33.22 47.21, 11.54 29.4 M57.94 64.43 C47.57 54.05, 39.38 46.82, 14.92 27.04 M57.94 64.43 C44.62 52.34, 32.35 41.17, 14.92 27.04 M61.32 62.07 C50.2 54.72, 38.76 43.61, 17.55 24.02 M61.32 62.07 C45.68 47.67, 30.43 33.93, 17.55 24.02 M63.94 59.05 C50.49 48.25, 39.58 37.85, 20.17 21 M63.94 59.05 C48.88 45.96, 33.71 31.46, 20.17 21 M66.57 56.03 C53.37 43.33, 34.93 28.86, 23.55 18.64 M66.57 56.03 C52.89 44.03, 37.68 31.76, 23.55 18.64 M69.95 53.67 C56.21 40.8, 39.33 24.85, 26.17 15.62 M69.95 53.67 C57.98 41.56, 43.51 29.79, 26.17 15.62 M72.57 50.65 C61.33 41.48, 47.27 29.49, 28.8 12.6 M72.57 50.65 C64.5 43.61, 55 35.48, 28.8 12.6 M75.2 47.63 C58.64 35.56, 44.93 21.86, 32.18 10.24 M75.2 47.63 C59.35 34.6, 42.57 20.49, 32.18 10.24 M77.07 43.96 C64.84 32.94, 49.13 21.85, 34.8 7.22 M77.07 43.96 C66.2 35.66, 56.41 27.06, 34.8 7.22 M79.69 40.94 C64.45 31.23, 53.45 16.83, 37.43 4.2 M79.69 40.94 C69.41 32.21, 58.04 21.96, 37.43 4.2 M79.3 35.29 C63.21 21.65, 49.88 8.14, 40.81 1.84 M79.3 35.29 C70.16 28.14, 62.65 21.21, 40.81 1.84" stroke="#ffec99" stroke-width="0.5" fill="none"></path><path d="M51.25 10.5 C59.04 17.21, 66.83 26.07, 70.85 31.5 M51.25 10.5 C58.7 19.14, 66.88 27.08, 70.85 31.5 M70.85 31.5 C82.53 41.46, 81.25 41.47, 70.85 52.5 M70.85 31.5 C80.74 41.35, 79.58 43, 70.85 52.5 M70.85 52.5 C64.25 59.02, 58.27 66.36, 51.25 71.98 M70.85 52.5 C64.76 59.03, 56.98 65.79, 51.25 71.98 M51.25 71.98 C40.94 83.02, 41.45 83.05, 30.75 71.98 M51.25 71.98 C43.22 84.42, 38.72 83.33, 30.75 71.98 M30.75 71.98 C26.99 68.59, 20.99 63.94, 10.25 52.5 M30.75 71.98 C25.35 67.78, 20.16 62.26, 10.25 52.5 M10.25 52.5 C-0.06 43.15, -1.73 42.67, 10.25 31.5 M10.25 52.5 C-0.88 42.41, -0.49 40, 10.25 31.5 M10.25 31.5 C16.27 25.03, 26.13 15.79, 30.75 10.5 M10.25 31.5 C16.13 24.83, 22.11 19.75, 30.75 10.5 M30.75 10.5 C41.76 -0.31, 41.28 -1.34, 51.25 10.5 M30.75 10.5 C39.82 -0.63, 41.93 -0.95, 51.25 10.5" stroke="#1e1e1e" stroke-width="1" fill="none"></path></g><g transform="translate(203.0030322210987 477.38165636194253) rotate(0 40.96666717529297 10)"><text x="0" y="14.016" font-family="Virgil, Segoe UI Emoji" font-size="16px" fill="#1e1e1e" text-anchor="start" style="white-space: pre;" direction="ltr" dominant-baseline="alphabetic">Collections</text></g><g stroke-linecap="round"><g transform="translate(185.13255712490695 155.71310463048798) rotate(0 13.924021786776052 0.12112621946143065)"><path d="M0.44 0.3 C5.1 0.31, 23.25 0.46, 27.85 0.48 M0 -0.02 C4.64 -0.19, 22.94 -0.17, 27.6 -0.24" stroke="#1e1e1e" stroke-width="1" fill="none"></path></g><g transform="translate(185.13255712490695 155.71310463048798) rotate(0 13.924021786776052 0.12112621946143065)"><path d="M14.71 4.54 C18.62 3.62, 22.39 2.52, 27.6 -0.24 M14.71 4.54 C19.23 2.53, 24.12 0.71, 27.6 -0.24" stroke="#1e1e1e" stroke-width="1" fill="none"></path></g><g transform="translate(185.13255712490695 155.71310463048798) rotate(0 13.924021786776052 0.12112621946143065)"><path d="M14.65 -4.86 C18.61 -3.2, 22.4 -1.7, 27.6 -0.24 M14.65 -4.86 C19.19 -3.34, 24.1 -1.63, 27.6 -0.24" stroke="#1e1e1e" stroke-width="1" fill="none"></path></g></g><mask></mask><g stroke-linecap="round"><g transform="translate(182.20575078194133 265.5641328491308) rotate(0 13.867933252368857 -0.07600832486517106)"><path d="M-0.27 -0.53 C4.17 -0.68, 22.45 -0.48, 27.02 -0.35 M0.59 0.38 C5.17 0.53, 23.39 0.34, 28.01 0.16" stroke="#1e1e1e" stroke-width="1" fill="none"></path></g><g transform="translate(182.20575078194133 265.5641328491308) rotate(0 13.867933252368857 -0.07600832486517106)"><path d="M15.19 5.14 C19.22 2.75, 24.16 1.09, 28.01 0.16 M15.19 5.14 C19.73 3.4, 23.9 1.65, 28.01 0.16" stroke="#1e1e1e" stroke-width="1" fill="none"></path></g><g transform="translate(182.20575078194133 265.5641328491308) rotate(0 13.867933252368857 -0.07600832486517106)"><path d="M14.99 -4.26 C19.14 -3.19, 24.15 -1.39, 28.01 0.16 M14.99 -4.26 C19.59 -2.76, 23.83 -1.27, 28.01 0.16" stroke="#1e1e1e" stroke-width="1" fill="none"></path></g></g><mask></mask><g stroke-linecap="round"><g transform="translate(189.13509896872984 390.8545930668008) rotate(0 13.910455098419902 -0.05573696763070757)"><path d="M-0.14 0.25 C4.55 0.19, 23.4 -0.39, 27.96 -0.36 M0.79 -0.09 C5.47 -0.09, 23.44 0.21, 27.77 0.15" stroke="#1e1e1e" stroke-width="1" fill="none"></path></g><g transform="translate(189.13509896872984 390.8545930668008) rotate(0 13.910455098419902 -0.05573696763070757)"><path d="M14.83 4.8 C18.6 4.16, 21.29 2, 27.77 0.15 M14.83 4.8 C19.36 2.89, 24.55 1.52, 27.77 0.15" stroke="#1e1e1e" stroke-width="1" fill="none"></path></g><g transform="translate(189.13509896872984 390.8545930668008) rotate(0 13.910455098419902 -0.05573696763070757)"><path d="M14.87 -4.6 C18.63 -2.73, 21.31 -2.37, 27.77 0.15 M14.87 -4.6 C19.42 -2.99, 24.6 -0.84, 27.77 0.15" stroke="#1e1e1e" stroke-width="1" fill="none"></path></g></g><mask></mask><g stroke-linecap="round"><g transform="translate(281.3581922582482 158.4624084914406) rotate(0 27.461364955357226 -0.11894516138272593)"><path d="M-0.94 0.57 C8.35 0.57, 46.4 -0.68, 55.86 -0.81 M0.77 -0.18 C9.97 0.04, 46.24 0.11, 55.37 0.31" stroke="#1e1e1e" stroke-width="1" fill="none"></path></g><g transform="translate(281.3581922582482 158.4624084914406) rotate(0 27.461364955357226 -0.11894516138272593)"><path d="M31.79 8.61 C40.12 7.67, 45.16 5.06, 55.37 0.31 M31.79 8.61 C38.5 5.54, 45.82 3.35, 55.37 0.31" stroke="#1e1e1e" stroke-width="1" fill="none"></path></g><g transform="translate(281.3581922582482 158.4624084914406) rotate(0 27.461364955357226 -0.11894516138272593)"><path d="M31.97 -8.49 C40.13 -4.12, 45.11 -1.42, 55.37 0.31 M31.97 -8.49 C38.47 -6.72, 45.74 -4.08, 55.37 0.31" stroke="#1e1e1e" stroke-width="1" fill="none"></path></g></g><mask></mask><g stroke-linecap="round"><g transform="translate(275.85958453634316 262.93595520763955) rotate(0 30.03095809362776 3.5713748558907525)"><path d="M0.42 0.51 C10.63 1.68, 51.01 6.28, 60.88 7.41 M-0.82 -0.26 C9.3 0.52, 49.65 4.66, 60.14 5.56" stroke="#1e1e1e" stroke-width="1" fill="none"></path></g><g transform="translate(275.85958453634316 262.93595520763955) rotate(0 30.03095809362776 3.5713748558907525)"><path d="M35.94 11.85 C43.28 10.73, 49.82 6.99, 60.14 5.56 M35.94 11.85 C43.57 9.16, 52.32 7.13, 60.14 5.56" stroke="#1e1e1e" stroke-width="1" fill="none"></path></g><g transform="translate(275.85958453634316 262.93595520763955) rotate(0 30.03095809362776 3.5713748558907525)"><path d="M37.56 -5.17 C44.52 -1.71, 50.62 -0.88, 60.14 5.56 M37.56 -5.17 C44.81 -2.18, 53.03 1.48, 60.14 5.56" stroke="#1e1e1e" stroke-width="1" fill="none"></path></g></g><mask></mask><g stroke-linecap="round"><g transform="translate(268.9863248839615 394.9025405333646) rotate(0 28.665889177121926 2.528324834247627)"><path d="M0.85 -0.72 C10.53 0.08, 47.99 4.66, 57.49 5.78 M-0.16 1.51 C9.39 1.86, 46.87 3.4, 56.41 3.8" stroke="#1e1e1e" stroke-width="1" fill="none"></path></g><g transform="translate(268.9863248839615 394.9025405333646) rotate(0 28.665889177121926 2.528324834247627)"><path d="M32.58 11.37 C37.36 8.88, 45.06 7.52, 56.41 3.8 M32.58 11.37 C39.92 9.58, 48.94 6.44, 56.41 3.8" stroke="#1e1e1e" stroke-width="1" fill="none"></path></g><g transform="translate(268.9863248839615 394.9025405333646) rotate(0 28.665889177121926 2.528324834247627)"><path d="M33.29 -5.71 C38.02 -3.88, 45.55 -0.91, 56.41 3.8 M33.29 -5.71 C40.36 -1.66, 49.15 1.04, 56.41 3.8" stroke="#1e1e1e" stroke-width="1" fill="none"></path></g></g><mask></mask><g stroke-linecap="round" transform="translate(71.03644689537396 103.47633127238848) rotate(0 195.8879000928731 51.54944739286135)"><path d="M25.77 0 C127.42 -1.64, 228.07 -2.38, 366 0 M366 0 C383.75 0.48, 390.83 9.81, 391.78 25.77 M391.78 25.77 C392.42 38.37, 393.66 49.09, 391.78 77.32 M391.78 77.32 C393.15 92.68, 381.39 101.11, 366 103.1 M366 103.1 C235.53 106.46, 104.38 105.32, 25.77 103.1 M25.77 103.1 C9.68 101.49, -1.82 93.46, 0 77.32 M0 77.32 C1.07 66.62, 1.74 55.66, 0 25.77 M0 25.77 C1.7 9.28, 9.98 -1.54, 25.77 0" stroke="#1e1e1e" stroke-width="1.5" fill="none" stroke-dasharray="8 9"></path></g><g stroke-linecap="round" transform="translate(68.97446899965917 215.5104636062071) rotate(0 195.8879000928731 56.360729149528424)"><path d="M28.18 0 C154.87 2.57, 282.34 0.87, 363.6 0 M363.6 0 C382.22 0.78, 390.78 8.81, 391.78 28.18 M391.78 28.18 C393.04 41.18, 393.41 51.65, 391.78 84.54 M391.78 84.54 C390.71 102.19, 383.16 113.93, 363.6 112.72 M363.6 112.72 C248.38 115.51, 131.74 113.4, 28.18 112.72 M28.18 112.72 C11.38 112.54, -1.86 104.14, 0 84.54 M0 84.54 C-1.81 65.24, -0.51 44.23, 0 28.18 M0 28.18 C-0.28 10.36, 9.97 -0.75, 28.18 0" stroke="#1e1e1e" stroke-width="1.5" fill="none" stroke-dasharray="8 9"></path></g><g stroke-linecap="round" transform="translate(68.97446899965917 334.41785559240725) rotate(0 195.8879000928731 63.92131476714815)"><path d="M31.96 0 C119.97 2.92, 206.72 2.68, 359.82 0 M359.82 0 C379.34 -1.74, 393.41 9.51, 391.78 31.96 M391.78 31.96 C392.88 46.97, 390.15 62.2, 391.78 95.88 M391.78 95.88 C392.86 117.33, 382.77 128.46, 359.82 127.84 M359.82 127.84 C254.79 126.38, 151.87 127.38, 31.96 127.84 M31.96 127.84 C11.9 129.03, 0.53 117.85, 0 95.88 M0 95.88 C-0.55 77.08, -0.73 56.46, 0 31.96 M0 31.96 C0.63 10.37, 11.98 -1.28, 31.96 0" stroke="#1e1e1e" stroke-width="1.5" fill="none" stroke-dasharray="8 9"></path></g><g stroke-linecap="round" transform="translate(306.1019270068243 10) rotate(0 106.5355246119135 259.121888894783)"><path d="M32 0 C74.5 0.74, 115.74 -0.11, 181.07 0 M181.07 0 C202.27 -0.1, 211.09 11.55, 213.07 32 M213.07 32 C215.09 145.11, 215.13 259.61, 213.07 486.24 M213.07 486.24 C211.61 506.44, 203.24 519.14, 181.07 518.24 M181.07 518.24 C141.16 517.28, 102.83 520.09, 32 518.24 M32 518.24 C10.2 516.26, -0.2 509.13, 0 486.24 M0 486.24 C-0.79 352.47, -0.9 220.74, 0 32 M0 32 C0.49 12.15, 10.8 0.67, 32 0" stroke="#1e1e1e" stroke-width="1.5" fill="none" stroke-dasharray="1.5 7"></path></g><g transform="translate(446.3164239154071 40.24234247047869) rotate(0 18.816667556762695 10)"><text x="0" y="14.016" font-family="Virgil, Segoe UI Emoji" font-size="16px" fill="#1e1e1e" text-anchor="start" style="white-space: pre;" direction="ltr" dominant-baseline="alphabetic">Mesh</text></g><g transform="translate(10 254.31060713811598) rotate(0 40.41666793823242 10)"><text x="0" y="14.016" font-family="Virgil, Segoe UI Emoji" font-size="16px" fill="#1e1e1e" text-anchor="start" style="white-space: pre;" direction="ltr" dominant-baseline="alphabetic">Repository</text></g><g transform="translate(26.495823165716274 328.54181138383626) rotate(0 40.41666793823242 10)"><text x="0" y="14.016" font-family="Virgil, Segoe UI Emoji" font-size="16px" fill="#1e1e1e" text-anchor="start" style="white-space: pre;" direction="ltr" dominant-baseline="alphabetic">Repository</text></g><g transform="translate(174.13534168109982 71.85933687143364) rotate(0 24.683332443237305 10)"><text x="0" y="14.016" font-family="Virgil, Segoe UI Emoji" font-size="16px" fill="#1e1e1e" text-anchor="start" style="white-space: pre;" direction="ltr" dominant-baseline="alphabetic">Server</text></g><g transform="translate(44.91806021632942 117.2228505771514) rotate(0 18.433332443237305 10)"><text x="0" y="14.016" font-family="Virgil, Segoe UI Emoji" font-size="16px" fill="#1e1e1e" text-anchor="start" style="white-space: pre;" direction="ltr" dominant-baseline="alphabetic">Farm</text></g><g transform="translate(36.10729128642606 229.56687238954237) rotate(0 17.96666717529297 10)"><text x="0" y="14.016" font-family="Virgil, Segoe UI Emoji" font-size="16px" fill="#1e1e1e" text-anchor="start" style="white-space: pre;" direction="ltr" dominant-baseline="alphabetic">Coop</text></g><g transform="translate(40.69791234579952 364.28276157622) rotate(0 12.516666412353516 10)"><text x="0" y="14.016" font-family="Virgil, Segoe UI Emoji" font-size="16px" fill="#1e1e1e" text-anchor="start" style="white-space: pre;" direction="ltr" dominant-baseline="alphabetic">Hen</text></g></svg>