<svg version="1.1" xmlns="http://www.w3.org/2000/svg" viewBox="0 0 727.9457441952957 523.1226065543269" width="1455.8914883905913" height="1046.2452131086538">
  <!-- svg-source:excalidraw -->
  
  <defs>
    <style class="style-fonts">
      @font-face {
        font-family: "Virgil";
        src: url("https://excalidraw.com/Virgil.woff2");
      }
      @font-face {
        font-family: "Cascadia";
        src: url("https://excalidraw.com/Cascadia.woff2");
      }
      @font-face {
        font-family: "Assistant";
        src: url("https://app.excalidraw.com//dist/excalidraw-assets/Assistant-Regular.woff2");
      }
    </style>
    
  </defs>
  <rect x="0" y="0" width="727.9457441952957" height="523.1226065543269" fill="#ffffff"></rect><g stroke-linecap="round" transform="translate(10 10) rotate(0 353.97287209764784 251.56130327716346)"><path d="M32 0 C169.35 0.89, 304.83 0.2, 675.95 0 C697.77 0.47, 706.88 7.51, 707.95 32 C708.91 187.1, 711.74 339.97, 707.95 471.12 C711.04 492.98, 695.95 505.95, 675.95 503.12 C533.88 500.2, 389.69 499.93, 32 503.12 C13.88 505.16, 2.53 490.67, 0 471.12 C-0.51 339.73, -1.53 205.49, 0 32 C0.42 11.8, 12.35 -0.36, 32 0" stroke="none" stroke-width="0" fill="#ffffff"></path><path d="M32 0 C256.16 -0.85, 478.68 0.55, 675.95 0 M32 0 C168.88 -2.42, 306.15 -2.12, 675.95 0 M675.95 0 C697.8 0.56, 709.26 9.49, 707.95 32 M675.95 0 C698.95 -0.76, 708.55 12.1, 707.95 32 M707.95 32 C706.55 127.27, 707.07 222.76, 707.95 471.12 M707.95 32 C706.05 162.8, 706.35 293.61, 707.95 471.12 M707.95 471.12 C707.66 492.62, 697.7 504.5, 675.95 503.12 M707.95 471.12 C708.66 492.86, 695.55 503.51, 675.95 503.12 M675.95 503.12 C544.94 500.9, 415.46 501.02, 32 503.12 M675.95 503.12 C518.24 503.21, 360.23 502.88, 32 503.12 M32 503.12 C10.43 502.54, -0.14 490.7, 0 471.12 M32 503.12 C12.17 503.35, -1.47 493.35, 0 471.12 M0 471.12 C-0.13 377.96, 0.38 286.67, 0 32 M0 471.12 C-0.95 344.84, -0.83 218.72, 0 32 M0 32 C1.41 9.72, 8.78 1.59, 32 0 M0 32 C0.39 10.52, 11.85 2.04, 32 0" stroke="#1e1e1e" stroke-width="1" fill="none"></path></g><g stroke-linecap="round" transform="translate(293.17829767811395 265.685259068592) rotate(0 77.66783407191087 44.676187740479804)"><path d="M22.34 0 C52.62 1.86, 74.43 1.8, 133 0 C145.1 2.88, 153.08 7.75, 155.34 22.34 C151.43 36.37, 156.43 49.5, 155.34 67.01 C153.08 83.99, 148.95 85.83, 133 89.35 C88.47 93.27, 50.44 93.28, 22.34 89.35 C8.52 91.59, -2.91 83.3, 0 67.01 C2.62 49.24, 3.06 33.89, 0 22.34 C-2.06 4.8, 6.74 3.49, 22.34 0" stroke="none" stroke-width="0" fill="#ffec99"></path><path d="M22.34 0 C62.92 0.49, 98.52 -0.23, 133 0 M22.34 0 C48.43 -1.81, 75.18 -0.45, 133 0 M133 0 C149.41 1.25, 155.76 8.38, 155.34 22.34 M133 0 C149.04 -1.13, 156.91 6.65, 155.34 22.34 M155.34 22.34 C155.63 36.77, 153.36 52.45, 155.34 67.01 M155.34 22.34 C156.12 38.65, 154.63 56.69, 155.34 67.01 M155.34 67.01 C156.58 80.74, 149.42 89.06, 133 89.35 M155.34 67.01 C157.04 83.68, 147.55 91.62, 133 89.35 M133 89.35 C98.84 90.98, 63.01 88.04, 22.34 89.35 M133 89.35 C111.08 89.82, 87.19 89.9, 22.34 89.35 M22.34 89.35 C5.53 88.92, -1.6 80.15, 0 67.01 M22.34 89.35 C5.57 91.53, 1.4 81.71, 0 67.01 M0 67.01 C-0.89 53.58, 0.39 42.17, 0 22.34 M0 67.01 C0.79 50.1, 0.26 32.38, 0 22.34 M0 22.34 C-0.42 6.34, 6.86 -1.01, 22.34 0 M0 22.34 C-2.01 5.28, 7.53 -0.96, 22.34 0" stroke="#1e1e1e" stroke-width="1" fill="none"></path></g><g transform="translate(352.37946457473186 300.3614468090718) rotate(0 18.46666717529297 10)"><text x="18.46666717529297" y="14.016" font-family="Virgil, Segoe UI Emoji" font-size="16px" fill="#1e1e1e" text-anchor="middle" style="white-space: pre;" direction="ltr" dominant-baseline="alphabetic">DTO</text></g><g stroke-linecap="round" transform="translate(79.4199224890533 77.35794459333852) rotate(0 68.73259652381512 46.05083967095618)"><path d="M23.03 0 C61.71 -1.58, 95.89 1.69, 114.44 0 C129.03 -2.51, 138.69 5.33, 137.47 23.03 C137.56 29.91, 135.72 43.66, 137.47 69.08 C139.93 84.84, 127.78 93.11, 114.44 92.1 C89.78 90.13, 58.89 92.43, 23.03 92.1 C10.7 93.26, 2.31 83.68, 0 69.08 C2.17 58.07, -2.09 45.48, 0 23.03 C0.52 11.26, 7.41 1.35, 23.03 0" stroke="none" stroke-width="0" fill="#ffec99"></path><path d="M23.03 0 C41.63 0.32, 60.74 -1.09, 114.44 0 M23.03 0 C49.02 0.24, 75.45 0.21, 114.44 0 M114.44 0 C129.42 0.47, 139.13 5.75, 137.47 23.03 M114.44 0 C131.87 1.2, 139.73 9.09, 137.47 23.03 M137.47 23.03 C137.25 36.06, 137.87 48.93, 137.47 69.08 M137.47 23.03 C136.14 36.72, 137.13 50.56, 137.47 69.08 M137.47 69.08 C137.1 83.06, 130.06 90.61, 114.44 92.1 M137.47 69.08 C135.86 83.65, 131.85 89.83, 114.44 92.1 M114.44 92.1 C84.71 92.12, 54.38 91.03, 23.03 92.1 M114.44 92.1 C86.85 90.99, 60.74 91.72, 23.03 92.1 M23.03 92.1 C9.64 92.43, -1.29 85.52, 0 69.08 M23.03 92.1 C6.52 91.62, -0.75 84.05, 0 69.08 M0 69.08 C-0.12 54.93, -1.82 38.56, 0 23.03 M0 69.08 C0.5 55, -0.36 40.84, 0 23.03 M0 23.03 C-0.55 9.03, 9.09 1.88, 23.03 0 M0 23.03 C0.43 6.19, 5.77 0.64, 23.03 0" stroke="#1e1e1e" stroke-width="1" fill="none"></path></g><g transform="translate(99.65251901286842 113.40878426429458) rotate(0 48.5 10)"><text x="48.5" y="14.016" font-family="Virgil, Segoe UI Emoji" font-size="16px" fill="#1e1e1e" text-anchor="middle" style="white-space: pre;" direction="ltr" dominant-baseline="alphabetic">JSONSchema</text></g><g stroke-linecap="round" transform="translate(64.29875125381363 93.85376775905434) rotate(0 68.73259652381512 46.05083967095618)"><path d="M23.03 0 C46.98 0.82, 66.46 1.28, 114.44 0 C127.53 1.06, 136.92 8.16, 137.47 23.03 C134.02 36.37, 136 47.24, 137.47 69.08 C137.56 81.63, 129.45 90.83, 114.44 92.1 C79.99 95.31, 53.28 93.87, 23.03 92.1 C4.73 89.68, -1.3 83, 0 69.08 C1.76 54.55, 2.98 34.68, 0 23.03 C1.55 4.49, 6.75 1.75, 23.03 0" stroke="none" stroke-width="0" fill="#ffec99"></path><path d="M23.03 0 C47.23 -1.81, 67.32 0.76, 114.44 0 M23.03 0 C50.49 -0.23, 77.49 0.72, 114.44 0 M114.44 0 C130.49 -1.77, 137.64 7.29, 137.47 23.03 M114.44 0 C130.16 -0.69, 135.56 7.03, 137.47 23.03 M137.47 23.03 C137.4 38.94, 137.59 51.57, 137.47 69.08 M137.47 23.03 C137.43 32.03, 138.15 42.72, 137.47 69.08 M137.47 69.08 C138.03 82.84, 131 93.17, 114.44 92.1 M137.47 69.08 C138.68 85.23, 129.8 93.41, 114.44 92.1 M114.44 92.1 C84.23 92.78, 57.82 92.83, 23.03 92.1 M114.44 92.1 C87.63 93.69, 60.27 92.68, 23.03 92.1 M23.03 92.1 C5.87 93.89, 0.45 85.65, 0 69.08 M23.03 92.1 C7.1 90.6, -0.18 84.61, 0 69.08 M0 69.08 C-1.32 51.47, -0.37 33.89, 0 23.03 M0 69.08 C-0.57 58.96, -0.45 49.26, 0 23.03 M0 23.03 C0.49 8.51, 9.33 -1.11, 23.03 0 M0 23.03 C1.05 7.58, 9.05 0.14, 23.03 0" stroke="#1e1e1e" stroke-width="1" fill="none"></path></g><g transform="translate(84.53134777762875 129.90460743001051) rotate(0 48.5 10)"><text x="48.5" y="14.016" font-family="Virgil, Segoe UI Emoji" font-size="16px" fill="#1e1e1e" text-anchor="middle" style="white-space: pre;" direction="ltr" dominant-baseline="alphabetic">JSONSchema</text></g><g stroke-linecap="round" transform="translate(49.17758001857419 118.59750250762772) rotate(0 68.73259652381512 46.05083967095618)"><path d="M23.03 0 C45.07 -1.28, 64.5 2.71, 114.44 0 C127.85 0.85, 138.61 6.21, 137.47 23.03 C139.44 37.06, 141.67 52.61, 137.47 69.08 C141.05 81.97, 131.11 94.64, 114.44 92.1 C96.05 91.84, 72.84 94.48, 23.03 92.1 C11.09 95.16, 1.16 82.52, 0 69.08 C-3.98 48.56, -1.63 37.08, 0 23.03 C-2.93 4.88, 10.52 2.26, 23.03 0" stroke="none" stroke-width="0" fill="#ffec99"></path><path d="M23.03 0 C58.08 -1.13, 93.6 -1.35, 114.44 0 M23.03 0 C47.44 -1.24, 72.08 0.23, 114.44 0 M114.44 0 C128.55 1.22, 136.56 8.12, 137.47 23.03 M114.44 0 C128.68 1.7, 136.15 7.72, 137.47 23.03 M137.47 23.03 C138.4 38.01, 136.75 55.17, 137.47 69.08 M137.47 23.03 C137.36 38.78, 138.55 54.53, 137.47 69.08 M137.47 69.08 C135.61 83.67, 129.2 91.44, 114.44 92.1 M137.47 69.08 C135.94 84.74, 128.98 93.66, 114.44 92.1 M114.44 92.1 C86.94 90.53, 57.7 90.41, 23.03 92.1 M114.44 92.1 C86.5 91.51, 58.29 91.89, 23.03 92.1 M23.03 92.1 C6.71 93.02, 0.8 84.13, 0 69.08 M23.03 92.1 C5.54 90.64, -0.71 85.62, 0 69.08 M0 69.08 C0.11 52.64, -0.9 31.28, 0 23.03 M0 69.08 C-0.32 56.37, 0.43 42.77, 0 23.03 M0 23.03 C1.55 7.02, 9.27 1.62, 23.03 0 M0 23.03 C-1.58 9.12, 7.43 1.36, 23.03 0" stroke="#1e1e1e" stroke-width="1" fill="none"></path></g><g transform="translate(69.41017654238931 154.6483421785839) rotate(0 48.5 10)"><text x="48.5" y="14.016" font-family="Virgil, Segoe UI Emoji" font-size="16px" fill="#1e1e1e" text-anchor="middle" style="white-space: pre;" direction="ltr" dominant-baseline="alphabetic">JSONSchema</text></g><g stroke-linecap="round" transform="translate(341.29111524478844 67.73538108000423) rotate(0 74.91853021095858 43.30153581000354)"><path d="M21.65 0 C62 3.2, 106.75 1.95, 128.19 0 C145.7 1.47, 146.62 6.08, 149.84 21.65 C150.32 34.41, 148.52 53.31, 149.84 64.95 C149.49 82.56, 145.21 83.79, 128.19 86.6 C88.22 90.57, 45.42 85.08, 21.65 86.6 C8.22 83.1, -2.79 76.04, 0 64.95 C-0.63 52.5, -2.12 41.54, 0 21.65 C1.46 6.6, 9.49 3.14, 21.65 0" stroke="none" stroke-width="0" fill="#ffec99"></path><path d="M21.65 0 C65.45 2.64, 103.42 0.54, 128.19 0 M21.65 0 C47.37 -1.03, 74.59 -0.57, 128.19 0 M128.19 0 C144.6 -1.03, 149.62 8.79, 149.84 21.65 M128.19 0 C144.25 -1.48, 150.87 8.2, 149.84 21.65 M149.84 21.65 C148.97 38.64, 150.34 50.41, 149.84 64.95 M149.84 21.65 C150.11 32.08, 150.4 42.96, 149.84 64.95 M149.84 64.95 C149.4 79.09, 141.92 85.71, 128.19 86.6 M149.84 64.95 C150.61 77.1, 143.52 86.69, 128.19 86.6 M128.19 86.6 C87.7 88.68, 44.53 88.02, 21.65 86.6 M128.19 86.6 C95.63 86.56, 62.18 87.56, 21.65 86.6 M21.65 86.6 C5.38 86.58, 0.6 80.16, 0 64.95 M21.65 86.6 C8.73 87.29, 0.76 77.28, 0 64.95 M0 64.95 C-0.71 51.29, 0.48 35.08, 0 21.65 M0 64.95 C0.97 49.99, 0.39 36.93, 0 21.65 M0 21.65 C0.54 7.95, 8.09 -1.13, 21.65 0 M0 21.65 C0.44 5.77, 5.83 0.03, 21.65 0" stroke="#1e1e1e" stroke-width="1" fill="none"></path></g><g transform="translate(355.17631263104 101.03691689000777) rotate(0 61.03333282470703 10)"><text x="61.03333282470703" y="14.016" font-family="Virgil, Segoe UI Emoji" font-size="16px" fill="#1e1e1e" text-anchor="middle" style="white-space: pre;" direction="ltr" dominant-baseline="alphabetic">GraphQLSchema</text></g><g stroke-linecap="round" transform="translate(352.288330688599 82.85655231524379) rotate(0 74.91853021095858 43.30153581000354)"><path d="M21.65 0 C51.86 -1.67, 88.12 3.9, 128.19 0 C139.14 -1.78, 152.48 9.65, 149.84 21.65 C147.86 35.79, 150.89 42.4, 149.84 64.95 C146.53 77.4, 144.35 84.8, 128.19 86.6 C99.97 88.06, 69.01 88.52, 21.65 86.6 C4.58 86.96, -1.04 78.26, 0 64.95 C-1.98 52.86, -2.39 47.15, 0 21.65 C-0.5 10.32, 5.22 -2.89, 21.65 0" stroke="none" stroke-width="0" fill="#ffec99"></path><path d="M21.65 0 C63.94 1.78, 102.05 -0.47, 128.19 0 M21.65 0 C56.89 0.95, 93.9 1.18, 128.19 0 M128.19 0 C142.38 -0.6, 149.57 8.13, 149.84 21.65 M128.19 0 C143.44 1.59, 151.23 8, 149.84 21.65 M149.84 21.65 C151.54 30.63, 151.01 41.09, 149.84 64.95 M149.84 21.65 C149.87 36.64, 149.54 52.32, 149.84 64.95 M149.84 64.95 C148.08 79.09, 141.18 87.96, 128.19 86.6 M149.84 64.95 C149.1 77.13, 142.58 86.01, 128.19 86.6 M128.19 86.6 C94.54 87.77, 59.25 86.03, 21.65 86.6 M128.19 86.6 C105.25 86.22, 82.93 86.19, 21.65 86.6 M21.65 86.6 C6.68 87.42, -0.28 79.17, 0 64.95 M21.65 86.6 C5.34 85.43, 1.64 77.22, 0 64.95 M0 64.95 C1.67 49.48, -1.04 32.62, 0 21.65 M0 64.95 C0.62 51.74, 0.54 37.36, 0 21.65 M0 21.65 C-1.45 9.18, 7.52 -1.38, 21.65 0 M0 21.65 C1.64 6.31, 7.81 1.77, 21.65 0" stroke="#1e1e1e" stroke-width="1" fill="none"></path></g><g transform="translate(366.17352807485054 116.15808812524733) rotate(0 61.03333282470703 10)"><text x="61.03333282470703" y="14.016" font-family="Virgil, Segoe UI Emoji" font-size="16px" fill="#1e1e1e" text-anchor="middle" style="white-space: pre;" direction="ltr" dominant-baseline="alphabetic">GraphQLSchema</text></g><g stroke-linecap="round" transform="translate(360.5362422714568 104.85098320286465) rotate(0 74.91853021095858 43.30153581000354)"><path d="M21.65 0 C44.76 -2.22, 66.09 -2.76, 128.19 0 C143.7 -0.32, 147.22 7.66, 149.84 21.65 C147.59 37.01, 147.08 48.08, 149.84 64.95 C148.16 82.89, 145.55 88.5, 128.19 86.6 C85.05 89.62, 47.44 89.8, 21.65 86.6 C8.03 90.15, -2.62 77.95, 0 64.95 C-3.65 46.46, -3.55 35.63, 0 21.65 C2.98 9.59, 9.42 -3.03, 21.65 0" stroke="none" stroke-width="0" fill="#ffec99"></path><path d="M21.65 0 C56.69 -0.87, 87.95 0.01, 128.19 0 M21.65 0 C50.35 -1.08, 77.95 -1.2, 128.19 0 M128.19 0 C142.4 -0.28, 151.56 6.11, 149.84 21.65 M128.19 0 C140.78 1.06, 148.9 5.23, 149.84 21.65 M149.84 21.65 C151.72 38.36, 150.56 52.65, 149.84 64.95 M149.84 21.65 C150.42 37.81, 149.41 56.15, 149.84 64.95 M149.84 64.95 C148.41 77.8, 143.91 85.07, 128.19 86.6 M149.84 64.95 C150.58 80.92, 143.66 87.66, 128.19 86.6 M128.19 86.6 C101.75 86.3, 78.47 86.91, 21.65 86.6 M128.19 86.6 C89.58 86.32, 50.21 86.17, 21.65 86.6 M21.65 86.6 C6.74 85.93, -0.54 78.9, 0 64.95 M21.65 86.6 C5.02 86.36, -1.57 80.94, 0 64.95 M0 64.95 C-1.69 49.03, 0.47 31.84, 0 21.65 M0 64.95 C-0.48 54.94, 0.15 44.06, 0 21.65 M0 21.65 C-1.07 7.19, 7.98 1.15, 21.65 0 M0 21.65 C0.93 9.07, 8.86 -0.25, 21.65 0" stroke="#1e1e1e" stroke-width="1" fill="none"></path></g><g transform="translate(374.42143965770833 138.1525190128682) rotate(0 61.03333282470703 10)"><text x="61.03333282470703" y="14.016" font-family="Virgil, Segoe UI Emoji" font-size="16px" fill="#1e1e1e" text-anchor="middle" style="white-space: pre;" direction="ltr" dominant-baseline="alphabetic">GraphQLSchema</text></g><g stroke-linecap="round" transform="translate(302.8008611914529 280.80643030383123) rotate(0 77.66783407191087 44.67618774047975)"><path d="M22.34 0 C58.16 3.21, 88.76 4.94, 133 0 C145.15 2.75, 158.65 5.92, 155.34 22.34 C158.36 33.73, 154.23 51.43, 155.34 67.01 C153.16 82.3, 147.73 86.24, 133 89.35 C91.5 90.3, 47.18 90.61, 22.34 89.35 C3.95 86.81, -3.06 83.62, 0 67.01 C1.47 53.82, 0.32 43.83, 0 22.34 C2.38 8.97, 5.2 0.06, 22.34 0" stroke="none" stroke-width="0" fill="#ffec99"></path><path d="M22.34 0 C51.38 2.23, 78.95 0.64, 133 0 M22.34 0 C52.38 0.76, 84.17 0.34, 133 0 M133 0 C146.98 -0.87, 156.62 6.22, 155.34 22.34 M133 0 C150.02 0.33, 155.85 9.73, 155.34 22.34 M155.34 22.34 C155.54 32.66, 156.78 41.75, 155.34 67.01 M155.34 22.34 C154.86 32.34, 154.19 44.08, 155.34 67.01 M155.34 67.01 C155.46 83.26, 147.23 88.07, 133 89.35 M155.34 67.01 C155.84 84.03, 145.79 90.13, 133 89.35 M133 89.35 C107.18 87.57, 79.81 91.39, 22.34 89.35 M133 89.35 C108.73 88.71, 83.83 89.11, 22.34 89.35 M22.34 89.35 C8.97 90.03, 1.7 81.12, 0 67.01 M22.34 89.35 C5.69 89.1, -0.53 81.96, 0 67.01 M0 67.01 C-1.21 51.42, 0.75 34.29, 0 22.34 M0 67.01 C0.03 55.04, -0.67 42.11, 0 22.34 M0 22.34 C-0.47 7.52, 6.28 -1.81, 22.34 0 M0 22.34 C1.45 7.84, 8.99 0.09, 22.34 0" stroke="#1e1e1e" stroke-width="1" fill="none"></path></g><g transform="translate(362.0020280880708 315.48261804431104) rotate(0 18.46666717529297 10)"><text x="18.46666717529297" y="14.016" font-family="Virgil, Segoe UI Emoji" font-size="16px" fill="#1e1e1e" text-anchor="middle" style="white-space: pre;" direction="ltr" dominant-baseline="alphabetic">DTO</text></g><g stroke-linecap="round" transform="translate(317.9220324266921 301.42620926097607) rotate(0 77.66783407191087 44.676187740479804)"><path d="M22.34 0 C50.99 2.39, 75.58 1.85, 133 0 C147.68 -1.51, 152.5 10.26, 155.34 22.34 C154.71 37.4, 153.65 49.06, 155.34 67.01 C157.54 80.1, 144.71 92.33, 133 89.35 C94.72 93.62, 65.43 92.97, 22.34 89.35 C8.21 91.25, -3.22 78.59, 0 67.01 C-0.01 48.41, 3.56 37.26, 0 22.34 C-3.34 8.04, 8.33 -3.54, 22.34 0" stroke="none" stroke-width="0" fill="#ffec99"></path><path d="M22.34 0 C55.88 0.76, 85.37 -1.06, 133 0 M22.34 0 C62.6 -0.73, 102.88 -0.64, 133 0 M133 0 C148.25 -1.44, 154.13 6.97, 155.34 22.34 M133 0 C147.97 -1.35, 153.26 8.9, 155.34 22.34 M155.34 22.34 C155.82 34.91, 154.03 51.57, 155.34 67.01 M155.34 22.34 C154.32 38.5, 156 52.72, 155.34 67.01 M155.34 67.01 C155.5 83.71, 146.75 90.63, 133 89.35 M155.34 67.01 C153.82 80.74, 148.89 87.96, 133 89.35 M133 89.35 C100.38 88.79, 65.14 89.31, 22.34 89.35 M133 89.35 C98.93 88.73, 65.95 89.91, 22.34 89.35 M22.34 89.35 C5.87 87.76, -1.54 82.37, 0 67.01 M22.34 89.35 C5.33 89.15, -2.18 83.43, 0 67.01 M0 67.01 C0.03 53.23, -1.03 36.91, 0 22.34 M0 67.01 C0.89 51.19, -0.65 34.07, 0 22.34 M0 22.34 C1.17 9.44, 8.66 0.91, 22.34 0 M0 22.34 C1.22 7.5, 8.36 -1.1, 22.34 0" stroke="#1e1e1e" stroke-width="1" fill="none"></path></g><g transform="translate(377.12319932331 336.10239700145587) rotate(0 18.46666717529297 10)"><text x="18.46666717529297" y="14.016" font-family="Virgil, Segoe UI Emoji" font-size="16px" fill="#1e1e1e" text-anchor="middle" style="white-space: pre;" direction="ltr" dominant-baseline="alphabetic">DTO</text></g><g stroke-linecap="round" transform="translate(328.91924787050243 312.42342470478627) rotate(0 77.66783407191087 44.67618774047986)"><path d="M22.34 0 C55.65 3.73, 79.07 2.9, 133 0 C146.14 2.35, 153.76 9.97, 155.34 22.34 C155.02 30.13, 156.4 44.54, 155.34 67.01 C154.48 81.84, 146.07 92.9, 133 89.35 C104.63 86.55, 72.97 87.75, 22.34 89.35 C6.85 92.74, -0.85 84.84, 0 67.01 C-3.53 52.78, -2.16 42.57, 0 22.34 C-3.22 10.42, 4.85 -1.65, 22.34 0" stroke="none" stroke-width="0" fill="#ffec99"></path><path d="M22.34 0 C50.28 -0.13, 79.28 -2.86, 133 0 M22.34 0 C63.89 -0.09, 104.11 -1.53, 133 0 M133 0 C149.16 -1.26, 157.23 7.16, 155.34 22.34 M133 0 C146.39 1.95, 157.09 5.31, 155.34 22.34 M155.34 22.34 C154.7 35.87, 156.6 50.53, 155.34 67.01 M155.34 22.34 C154.64 31.86, 154.26 42.16, 155.34 67.01 M155.34 67.01 C154.87 80.17, 148.57 87.54, 133 89.35 M155.34 67.01 C155.43 82.94, 148.81 88.59, 133 89.35 M133 89.35 C102.09 89.62, 71.51 89.62, 22.34 89.35 M133 89.35 C104.97 88.17, 78.76 88.91, 22.34 89.35 M22.34 89.35 C7.52 88.49, -1.29 81.16, 0 67.01 M22.34 89.35 C7.72 88.12, -1.37 80.42, 0 67.01 M0 67.01 C-0.84 55.26, -0.55 42.13, 0 22.34 M0 67.01 C-0.81 51.16, -0.49 36.78, 0 22.34 M0 22.34 C-0.02 7.88, 7.85 1.82, 22.34 0 M0 22.34 C-0.49 7.33, 8.09 -1.18, 22.34 0" stroke="#1e1e1e" stroke-width="1" fill="none"></path></g><g transform="translate(388.12041476712034 347.0996124452661) rotate(0 18.46666717529297 10)"><text x="18.46666717529297" y="14.016" font-family="Virgil, Segoe UI Emoji" font-size="16px" fill="#1e1e1e" text-anchor="middle" style="white-space: pre;" direction="ltr" dominant-baseline="alphabetic">DTO</text></g><g stroke-linecap="round" transform="translate(73.23398880191075 315.1727285657389) rotate(0 77.66783407191087 44.676187740479804)"><path d="M22.34 0 C50.12 -4.2, 75.14 1.22, 133 0 C146.91 0.41, 152.96 9.67, 155.34 22.34 C155.97 35.26, 157.78 44.31, 155.34 67.01 C155.42 81, 148.69 92.54, 133 89.35 C106.86 86.74, 82.76 88.3, 22.34 89.35 C4.46 91.53, -1.69 84.99, 0 67.01 C-3.22 50.64, -2.4 43.42, 0 22.34 C1.92 4.87, 4.16 1.84, 22.34 0" stroke="none" stroke-width="0" fill="#ffec99"></path><path d="M22.34 0 C58.45 0.05, 97.51 0.7, 133 0 M22.34 0 C57.72 -1.06, 93.81 -1.52, 133 0 M133 0 C147.3 -1.56, 153.34 9.34, 155.34 22.34 M133 0 C149 -1.97, 155.92 6.33, 155.34 22.34 M155.34 22.34 C153.43 39.71, 153.22 54.58, 155.34 67.01 M155.34 22.34 C155.18 33.5, 154.91 45.7, 155.34 67.01 M155.34 67.01 C154.57 81.27, 148.13 89.69, 133 89.35 M155.34 67.01 C153.39 80.59, 146.71 88.97, 133 89.35 M133 89.35 C89.64 90.93, 47.68 88.44, 22.34 89.35 M133 89.35 C99.66 91.27, 67.39 89.98, 22.34 89.35 M22.34 89.35 C6.25 87.6, -1.12 82.01, 0 67.01 M22.34 89.35 C8.2 89.01, 1.01 81.11, 0 67.01 M0 67.01 C-1.94 54.25, 0.28 41.76, 0 22.34 M0 67.01 C-1.43 57.03, -1 47.54, 0 22.34 M0 22.34 C-0.41 7.16, 9.32 0.5, 22.34 0 M0 22.34 C-1.06 7.72, 8.61 -1.38, 22.34 0" stroke="#1e1e1e" stroke-width="1" fill="none"></path></g><g transform="translate(113.8684900491146 349.8489163062187) rotate(0 37.03333282470703 9.999999999999943)"><text x="37.03333282470703" y="14.016" font-family="Virgil, Segoe UI Emoji" font-size="16px" fill="#1e1e1e" text-anchor="middle" style="white-space: pre;" direction="ltr" dominant-baseline="alphabetic">Resolvers</text></g><g stroke-linecap="round" transform="translate(37.493038609526366 344.0404191057413) rotate(0 77.66783407191087 44.67618774047975)"><path d="M22.34 0 C57.65 -3, 90.12 0.04, 133 0 C146.12 0.11, 153.88 6.47, 155.34 22.34 C157.15 40.99, 153.4 52.17, 155.34 67.01 C158.57 84.33, 147.89 91.2, 133 89.35 C103.78 91.33, 77.54 91.04, 22.34 89.35 C6.81 92.75, -0.03 81.02, 0 67.01 C-2.72 54.51, -1.86 35.39, 0 22.34 C3.32 10.11, 8.69 -3.25, 22.34 0" stroke="none" stroke-width="0" fill="#ffec99"></path><path d="M22.34 0 C65.22 1.6, 108.11 -1.89, 133 0 M22.34 0 C45.64 -0.15, 70.05 0.6, 133 0 M133 0 C146.04 1.23, 153.63 6.69, 155.34 22.34 M133 0 C148.78 1.14, 153.09 7.79, 155.34 22.34 M155.34 22.34 C154.7 36.6, 153.28 53.89, 155.34 67.01 M155.34 22.34 C154.65 39.37, 155.31 56.24, 155.34 67.01 M155.34 67.01 C157.17 83.27, 149.26 90.41, 133 89.35 M155.34 67.01 C154.95 82.74, 147.24 87.37, 133 89.35 M133 89.35 C88.22 89.54, 46.66 90.78, 22.34 89.35 M133 89.35 C89.24 88.18, 45.99 87.91, 22.34 89.35 M22.34 89.35 C7.35 91.06, 0.61 83.84, 0 67.01 M22.34 89.35 C9.49 90, 0.53 83.58, 0 67.01 M0 67.01 C-1.93 51.47, 0.96 36.03, 0 22.34 M0 67.01 C-0.62 58.28, 0.2 49.41, 0 22.34 M0 22.34 C1.27 6.92, 8.99 -1.7, 22.34 0 M0 22.34 C-1.64 8.35, 7.35 -1.61, 22.34 0" stroke="#1e1e1e" stroke-width="1" fill="none"></path></g><g transform="translate(78.12753985673021 378.7166068462211) rotate(0 37.03333282470703 10)"><text x="37.03333282470703" y="14.016" font-family="Virgil, Segoe UI Emoji" font-size="16px" fill="#1e1e1e" text-anchor="middle" style="white-space: pre;" direction="ltr" dominant-baseline="alphabetic">Resolvers</text></g><g stroke-linecap="round" transform="translate(16.873259652381876 371.53345771526756) rotate(0 77.66783407191087 44.676187740479804)"><path d="M22.34 0 C65.06 1.53, 108.31 1.78, 133 0 C150.65 -1.3, 152.6 10.3, 155.34 22.34 C155.91 33.75, 154.77 45.15, 155.34 67.01 C154.45 84.64, 148.11 89.9, 133 89.35 C87.91 88.85, 49.8 92.56, 22.34 89.35 C8.8 86.1, 0.44 83.73, 0 67.01 C-3.44 57.85, -1.98 48.11, 0 22.34 C0.24 9.27, 9.51 -2.14, 22.34 0" stroke="none" stroke-width="0" fill="#ffec99"></path><path d="M22.34 0 C60.19 0.85, 95.39 -0.03, 133 0 M22.34 0 C49.91 -1.52, 78.9 -1.52, 133 0 M133 0 C149.24 1.26, 156.53 8.78, 155.34 22.34 M133 0 C146.83 -1.27, 154.69 5.49, 155.34 22.34 M155.34 22.34 C153.62 36.89, 156.06 47.68, 155.34 67.01 M155.34 22.34 C154.79 34.65, 155.07 44.94, 155.34 67.01 M155.34 67.01 C154.5 80.35, 147.5 90.86, 133 89.35 M155.34 67.01 C155 82.82, 147.99 90.69, 133 89.35 M133 89.35 C99.45 88.17, 65.3 87.71, 22.34 89.35 M133 89.35 C94.78 90.7, 55.37 89.8, 22.34 89.35 M22.34 89.35 C8.77 88.97, -0.83 82.47, 0 67.01 M22.34 89.35 C9.58 87.59, 0.08 80.54, 0 67.01 M0 67.01 C-1.81 53.21, 1.41 37.43, 0 22.34 M0 67.01 C0.8 50.24, 0.05 33.6, 0 22.34 M0 22.34 C-1.81 6.51, 8.05 1.63, 22.34 0 M0 22.34 C1.39 8.89, 5.93 0.19, 22.34 0" stroke="#1e1e1e" stroke-width="1" fill="none"></path></g><g transform="translate(57.50776089958572 406.20964545574725) rotate(0 37.03333282470703 10)"><text x="37.03333282470703" y="14.016" font-family="Virgil, Segoe UI Emoji" font-size="16px" fill="#1e1e1e" text-anchor="middle" style="white-space: pre;" direction="ltr" dominant-baseline="alphabetic">Resolvers</text></g><g transform="translate(31.307104922382905 39.555016505240246) rotate(0 22.950000762939453 10)"><text x="0" y="14.016" font-family="Virgil, Segoe UI Emoji" font-size="16px" fill="#1e1e1e" text-anchor="start" style="white-space: pre;" direction="ltr" dominant-baseline="alphabetic">Config</text></g><g stroke-linecap="round" transform="translate(552.3001865729016 217.57244150192162) rotate(0 68.73259652381512 46.05083967095612)"><path d="M23.03 0 C53.98 -2.98, 79.46 1.93, 114.44 0 C127.23 0.85, 138.47 7.7, 137.47 23.03 C139.9 38.74, 136.4 56.4, 137.47 69.08 C140.04 84.1, 126.48 91.62, 114.44 92.1 C80.49 88.52, 49.35 92.25, 23.03 92.1 C9.27 93.74, -0.24 80.99, 0 69.08 C2.94 55.8, 1.34 41.8, 0 23.03 C1.32 8.54, 7.35 1.99, 23.03 0" stroke="none" stroke-width="0" fill="#ffec99"></path><path d="M23.03 0 C44.66 -1.69, 68.8 -1.37, 114.44 0 M23.03 0 C44.6 0.71, 64.22 0.52, 114.44 0 M114.44 0 C129.7 -1.96, 138.24 6.19, 137.47 23.03 M114.44 0 C130.58 -0.39, 135.38 8.22, 137.47 23.03 M137.47 23.03 C135.37 35.72, 137.8 48.76, 137.47 69.08 M137.47 23.03 C137.78 35.3, 138.43 47.94, 137.47 69.08 M137.47 69.08 C138.25 83.33, 128.5 92.37, 114.44 92.1 M137.47 69.08 C139.17 85.5, 127.92 91.49, 114.44 92.1 M114.44 92.1 C94.31 91.23, 69.06 91.98, 23.03 92.1 M114.44 92.1 C87.67 91.19, 60.95 91.79, 23.03 92.1 M23.03 92.1 C7.42 92.34, -1.02 84.56, 0 69.08 M23.03 92.1 C7.23 90.55, 2.03 84.22, 0 69.08 M0 69.08 C-0.15 60.22, 2.2 50.68, 0 23.03 M0 69.08 C-0.63 55.25, 0.06 39.82, 0 23.03 M0 23.03 C-0.79 7.19, 8.76 -1.69, 23.03 0 M0 23.03 C1.17 8.11, 5.53 1.21, 23.03 0" stroke="#1e1e1e" stroke-width="1" fill="none"></path></g><g transform="translate(558.4161182102421 253.6232811728778) rotate(0 62.61666488647461 10)"><text x="62.61666488647461" y="14.016" font-family="Virgil, Segoe UI Emoji" font-size="16px" fill="#1e1e1e" text-anchor="middle" style="white-space: pre;" direction="ltr" dominant-baseline="alphabetic">MongoConnection</text></g><g stroke-linecap="round" transform="translate(560.5480981557591 234.0682646676371) rotate(0 68.73259652381512 46.05083967095618)"><path d="M23.03 0 C48.28 2.1, 72.94 2.55, 114.44 0 C132.76 2.37, 140.1 7.94, 137.47 23.03 C135.55 39.53, 138.76 58.16, 137.47 69.08 C135.94 86.59, 131.54 90.19, 114.44 92.1 C95.47 95.03, 71.85 91.59, 23.03 92.1 C5.22 94.9, 1.11 85.21, 0 69.08 C-1.31 52.73, 0.86 28.97, 0 23.03 C-1.96 5.86, 5.39 -2.73, 23.03 0" stroke="none" stroke-width="0" fill="#ffec99"></path><path d="M23.03 0 C48.92 2.47, 71.33 -0.56, 114.44 0 M23.03 0 C57.33 -1, 93.64 -0.36, 114.44 0 M114.44 0 C128.12 -0.75, 135.53 6.83, 137.47 23.03 M114.44 0 C130.68 -1.57, 138.98 6.12, 137.47 23.03 M137.47 23.03 C137.13 39.21, 135.55 56.68, 137.47 69.08 M137.47 23.03 C137.6 41.62, 137.86 59.97, 137.47 69.08 M137.47 69.08 C137.47 83.61, 128.36 90.29, 114.44 92.1 M137.47 69.08 C135.77 84.1, 130.87 91.15, 114.44 92.1 M114.44 92.1 C88.13 94.86, 63.24 93.5, 23.03 92.1 M114.44 92.1 C81.68 92.31, 48.88 93.83, 23.03 92.1 M23.03 92.1 C8.86 92.83, -1.68 86.23, 0 69.08 M23.03 92.1 C8.63 92.46, 2.15 82.47, 0 69.08 M0 69.08 C0.19 53.26, -0.43 36.05, 0 23.03 M0 69.08 C0.21 56.29, -0.55 44.59, 0 23.03 M0 23.03 C-1.46 8.54, 6.01 1.79, 23.03 0 M0 23.03 C1.95 8.2, 7.34 1.88, 23.03 0" stroke="#1e1e1e" stroke-width="1" fill="none"></path></g><g transform="translate(566.6640297930996 270.1191043385933) rotate(0 62.61666488647461 10)"><text x="62.61666488647461" y="14.016" font-family="Virgil, Segoe UI Emoji" font-size="16px" fill="#1e1e1e" text-anchor="middle" style="white-space: pre;" direction="ltr" dominant-baseline="alphabetic">MongoConnection</text></g><g stroke-linecap="round" transform="translate(568.7960097386172 258.8119994162105) rotate(0 68.73259652381512 46.05083967095618)"><path d="M23.03 0 C54.54 -2.22, 82.64 1.21, 114.44 0 C128.93 -0.58, 136.96 6.17, 137.47 23.03 C140.01 36.95, 141.14 58.94, 137.47 69.08 C138.92 87.81, 131.23 90.14, 114.44 92.1 C96.97 90.45, 75.55 89.52, 23.03 92.1 C8.46 95.52, -2.32 84.33, 0 69.08 C3.3 52.28, 3.68 33.41, 0 23.03 C-0.23 8.16, 8.02 -0.66, 23.03 0" stroke="none" stroke-width="0" fill="#ffec99"></path><path d="M23.03 0 C54.97 -0.77, 90.41 -0.33, 114.44 0 M23.03 0 C43.7 -0.67, 62.68 0.44, 114.44 0 M114.44 0 C129.82 0.41, 137.92 5.9, 137.47 23.03 M114.44 0 C131.18 0.94, 139.4 9.45, 137.47 23.03 M137.47 23.03 C135.64 39.69, 137.08 58.1, 137.47 69.08 M137.47 23.03 C138.2 35.32, 138.03 48.96, 137.47 69.08 M137.47 69.08 C139.26 85.64, 129.31 92.5, 114.44 92.1 M137.47 69.08 C136.49 84.75, 131.74 93.13, 114.44 92.1 M114.44 92.1 C83.44 90.52, 49.62 93.91, 23.03 92.1 M114.44 92.1 C88.51 92.4, 63.93 92.19, 23.03 92.1 M23.03 92.1 C6.45 93.79, 1.8 86.24, 0 69.08 M23.03 92.1 C6.17 93.95, 0.22 86.37, 0 69.08 M0 69.08 C1.57 58.39, 0.97 50.88, 0 23.03 M0 69.08 C-0.79 51.26, -0.92 33.15, 0 23.03 M0 23.03 C-1.87 6.78, 7.1 0.6, 23.03 0 M0 23.03 C-1.96 8.17, 6.9 1.9, 23.03 0" stroke="#1e1e1e" stroke-width="1" fill="none"></path></g><g transform="translate(574.9119413759577 294.86283908716666) rotate(0 62.61666488647461 10)"><text x="62.61666488647461" y="14.016" font-family="Virgil, Segoe UI Emoji" font-size="16px" fill="#1e1e1e" text-anchor="middle" style="white-space: pre;" direction="ltr" dominant-baseline="alphabetic">MongoConnection</text></g></svg>